<svg width="65" height="65" viewBox="0 0 65 65" fill="none" xmlns="http://www.w3.org/2000/svg">
<circle cx="32.5" cy="32.5" r="31.5" stroke="#81A90C" stroke-width="2"/>
<path d="M29.1968 30.1245H31.6792C33.0539 30.1245 34.255 29.8843 35.2827 29.4038C36.3104 28.91 37.0911 28.2427 37.625 27.4019C38.1722 26.5477 38.4458 25.5667 38.4458 24.459C38.4458 22.5905 37.9186 21.1291 36.8643 20.0747C35.8099 19.0203 34.2951 18.4932 32.3198 18.4932C30.4513 18.4932 28.9165 19.047 27.7153 20.1548C26.5275 21.2492 25.9336 22.6973 25.9336 24.499H23.5312C23.5312 22.9909 23.9116 21.6162 24.6724 20.375C25.4331 19.1204 26.4875 18.1528 27.8354 17.4722C29.1834 16.7915 30.6782 16.4512 32.3198 16.4512C34.9624 16.4512 37.0444 17.1719 38.5659 18.6133C40.0874 20.0547 40.8481 22.0299 40.8481 24.5391C40.8481 25.9404 40.401 27.235 39.5068 28.4229C38.626 29.5973 37.4115 30.4782 35.8633 31.0654C37.6784 31.5726 39.0531 32.4468 39.9873 33.688C40.9215 34.9159 41.3887 36.384 41.3887 38.0923C41.3887 40.5881 40.5745 42.5967 38.9463 44.1182C37.318 45.6396 35.1426 46.4004 32.4199 46.4004C30.6849 46.4004 29.09 46.0534 27.6353 45.3594C26.1938 44.6654 25.0728 43.6978 24.272 42.4565C23.4845 41.202 23.0908 39.7472 23.0908 38.0923H25.4932C25.4932 39.9474 26.1405 41.4622 27.4351 42.6367C28.7297 43.7979 30.3913 44.3784 32.4199 44.3784C34.4886 44.3784 36.0968 43.8512 37.2446 42.7969C38.4058 41.7292 38.9863 40.1877 38.9863 38.1724C38.9863 36.2238 38.359 34.7357 37.1045 33.708C35.8633 32.6803 34.0282 32.1665 31.5991 32.1665H29.1968V30.1245Z" fill="#81A90C"/>
</svg>
