<svg width="65" height="65" viewBox="0 0 65 65" fill="none" xmlns="http://www.w3.org/2000/svg">
<circle cx="32.5" cy="32.5" r="31.5" stroke="#81A90C" stroke-width="2"/>
<path d="M42.1294 46H23.8716V44.1582L33.8613 32.8271C35.5163 30.9186 36.6641 29.3438 37.3047 28.1025C37.9453 26.8613 38.2656 25.6535 38.2656 24.479C38.2656 22.6372 37.7251 21.1825 36.644 20.1147C35.563 19.0337 34.0749 18.4932 32.1797 18.4932C30.2178 18.4932 28.6296 19.1204 27.415 20.375C26.2139 21.6296 25.6133 23.2578 25.6133 25.2598H23.231C23.231 23.6182 23.598 22.1234 24.332 20.7754C25.0794 19.4274 26.1338 18.373 27.4951 17.6123C28.8698 16.8382 30.4313 16.4512 32.1797 16.4512C34.849 16.4512 36.931 17.1519 38.4258 18.5532C39.9339 19.9546 40.688 21.8631 40.688 24.2788C40.688 25.6401 40.2609 27.1283 39.4067 28.7432C38.5659 30.3581 37.0778 32.3734 34.9424 34.7891L26.8145 43.978H42.1294V46Z" fill="#81A90C"/>
</svg>
