<svg xmlns="http://www.w3.org/2000/svg" viewBox="0 0 152.71 51.4"><defs><style>.cls-1,.cls-2{fill:#81a90c;}.cls-2{fill-opacity:0;}</style></defs><g id="Слой_2" data-name="Слой 2"><g id="Слой_1-2" data-name="Слой 1"><g id="Слой_2-2" data-name="Слой 2"><g id="Слой_1-2-2" data-name="Слой 1-2"><path class="cls-1" d="M150.11,26.5l-9.4-1.3-3.8-9.7a6.75,6.75,0,0,0-6.6-4.2h-10.9a1.75,1.75,0,0,0-1.8,1.5L114,32.7a1.82,1.82,0,0,1-1.8,1.5H64.41a1.75,1.75,0,0,0-1.8,1.5l-1,5.7a1.9,1.9,0,0,0,1.6,2.2h4.1a6.76,6.76,0,0,0,5.8,7.6c.4,0,.7.1,1.1.1a10.47,10.47,0,0,0,9.7-7.7h43.5a6.76,6.76,0,0,0,5.8,7.6c.4,0,.7.1,1.1.1a10.47,10.47,0,0,0,9.7-7.7h4.7a1.75,1.75,0,0,0,1.8-1.5l2.1-11.9a2.9,2.9,0,0,0-2-3.6C150.41,26.6,150.31,26.5,150.11,26.5Zm-70,16.4a5.54,5.54,0,0,1-5.2,4.4,3.57,3.57,0,0,1-3.7-3.4,3.75,3.75,0,0,1,.1-1,5.54,5.54,0,0,1,5.2-4.4,3.57,3.57,0,0,1,3.7,3.4A3.08,3.08,0,0,1,80.11,42.9Zm41.3-18,1.5-8.4h6.4a2.64,2.64,0,0,1,2.5,1.6l2.7,6.8Zm18.8,18a5.54,5.54,0,0,1-5.2,4.4,3.55,3.55,0,0,1-3.7-3.3,4.1,4.1,0,0,1,.1-1.1,5.54,5.54,0,0,1,5.2-4.4,3.57,3.57,0,0,1,3.7,3.4A3.08,3.08,0,0,1,140.21,42.9Z"/><path class="cls-1" d="M111.81,30l4.9-27.7a1.9,1.9,0,0,0-1.6-2.2H67.21a3.12,3.12,0,0,0-3.1,3.1h0a3.12,3.12,0,0,0,3.1,3.1h5.2a3.1,3.1,0,1,1,0,6.2H64a3.12,3.12,0,0,0-3.1,3.1h0A3.12,3.12,0,0,0,64,18.7h5.2a3.12,3.12,0,0,1,3.1,3.1,3.27,3.27,0,0,1-3.1,3.2h-8.4a3.12,3.12,0,0,0-3.1,3.1h0a3.12,3.12,0,0,0,3.1,3.1h49.1a1.36,1.36,0,0,0,1.8-.7A.9.9,0,0,0,111.81,30Z"/></g></g><path class="cls-2" d="M9.71,51.4,35,26.1a13.45,13.45,0,0,0,14.7-2.9,13.73,13.73,0,0,0,3.2-14.1l-7.3,7.3-6.4-1.8-1.8-6.4L44.71.9h0a13.6,13.6,0,0,0-14,3.2,13.3,13.3,0,0,0-2.9,14.7L2.51,44.1"/><path class="cls-1" d="M48.51,34.7a9.78,9.78,0,0,0-10.1-2.3L19,13a9.58,9.58,0,0,0-2.3-10.1A10,10,0,0,0,9.61,0C8.41,0,8.21.9,9,1.8l2.5,2.5q3.6,3.6,0,7.2t-7.2,0L1.81,9C1,8.2.11,8.4,0,9.6a9.29,9.29,0,0,0,2.9,7.1A9.78,9.78,0,0,0,13,19l19.4,19.4a9.58,9.58,0,0,0,2.3,10.1,10,10,0,0,0,7.1,2.9c1.2,0,1.4-.9.6-1.8l-2.5-2.5q-3.6-3.6,0-7.2t7.2,0l2.5,2.5c.8.8,1.7.6,1.8-.6A10.07,10.07,0,0,0,48.51,34.7Z"/><path class="cls-1" d="M42.11,13a4.23,4.23,0,0,1,.7-.5l3.5-1.6a2.54,2.54,0,0,0,1.2-1.1l2.8-4.9c.1-.3.1-.4-.1-.6l-2.3-2.2a.47.47,0,0,0-.6-.1l-4.9,2.8A2.16,2.16,0,0,0,41.31,6l-1.6,3.5a1.79,1.79,0,0,1-.5.7l-9.6,9.6,2.8,2.8Z"/><path class="cls-1" d="M14.31,29.2a.91.91,0,0,0-.7.3L3.31,39.8c-3.2,3.2-2.9,5.9,0,8.8l.4.4c2.9,2.9,5.6,3.2,8.8,0l10.3-10.3a.91.91,0,0,0,.3-.7,6.58,6.58,0,0,1,1.4-3.5l-6.7-6.7A6.58,6.58,0,0,1,14.31,29.2ZM3.71,44.8a1.27,1.27,0,0,1,0-1.8l11.2-11.2a1.49,1.49,0,0,1,.9-.4,1.22,1.22,0,0,1,.9.4,1.27,1.27,0,0,1,0,1.8L5.51,44.8A1.27,1.27,0,0,1,3.71,44.8Zm15.8-9.5a1.22,1.22,0,0,1,.9.4,1.27,1.27,0,0,1,0,1.8L9.21,48.7a1.27,1.27,0,0,1-1.8-1.8l11.3-11.2A.91.91,0,0,1,19.51,35.3Z"/></g></g></svg>