<svg xmlns="http://www.w3.org/2000/svg" viewBox="0 0 90 53"><defs><style>.cls-1{fill:#1d46a7;}</style></defs><g id="Слой_2" data-name="Слой 2"><g id="Слой_1-2" data-name="Слой 1"><g id="Слой_2-2" data-name="Слой 2"><g id="Слой_1-2-2" data-name="Слой 1-2"><polygon class="cls-1" points="29.6 41.3 57.6 53 57.6 24.5 29.6 14.1 29.6 41.3"/><path class="cls-1" d="M79.1,26.4l-7.8,2.8V21.3L61,24.9V53L90,41.3V14.6L79.1,18.5Z"/><polygon class="cls-1" points="79.1 14.6 90 10.6 59.8 0 50.1 3.4 79.1 14.4 79.1 14.6"/><polygon class="cls-1" points="41.5 6.4 29.6 10.6 59.8 21.6 71.2 17.5 41.5 6.4"/><polygon class="cls-1" points="0 38.7 24.8 38.7 24.8 33.7 2.3 33.7 0 38.7"/><polygon class="cls-1" points="4.1 29.9 24.8 29.9 24.8 24.9 6.4 24.9 4.1 29.9"/><polygon class="cls-1" points="8.2 20.8 8.2 21.2 24.8 21.2 24.8 16.2 10.4 16.2 8.2 20.8"/></g></g></g></g></svg>