<svg xmlns="http://www.w3.org/2000/svg" viewBox="0 0 95.01 51.2"><defs><style>.cls-1{fill:red;}</style></defs><g id="Слой_2" data-name="Слой 2"><g id="Слой_1-2" data-name="Слой 1"><g id="Слой_2-2" data-name="Слой 2"><g id="Слой_1-2-2" data-name="Слой 1-2"><path class="cls-1" d="M92.4,26.4,83,25.1l-3.8-9.7a6.76,6.76,0,0,0-6.6-4.2H61.7a1.75,1.75,0,0,0-1.8,1.5L56.3,32.6a1.83,1.83,0,0,1-1.8,1.5H6.7a1.75,1.75,0,0,0-1.8,1.5l-1,5.7a1.9,1.9,0,0,0,1.57,2.18l.23,0H9.6a6.79,6.79,0,0,0,5.82,7.64,6.52,6.52,0,0,0,1.08.06,10.56,10.56,0,0,0,9.7-7.7H69.7a6.79,6.79,0,0,0,5.82,7.64,6.52,6.52,0,0,0,1.08.06,10.46,10.46,0,0,0,9.7-7.7H91A1.75,1.75,0,0,0,92.8,42l2.1-11.9a2.91,2.91,0,0,0-2-3.6A3.06,3.06,0,0,0,92.4,26.4Zm-70,16.4a5.45,5.45,0,0,1-5.2,4.4,3.57,3.57,0,0,1-3.7-3.44,3.45,3.45,0,0,1,.1-1,5.45,5.45,0,0,1,5.2-4.4,3.57,3.57,0,0,1,3.7,3.44A3.45,3.45,0,0,1,22.4,42.8Zm41.3-18,1.5-8.4h6.4A2.64,2.64,0,0,1,74.1,18l2.7,6.8Zm18.8,18a5.45,5.45,0,0,1-5.2,4.4,3.52,3.52,0,0,1-3.71-3.32,3.58,3.58,0,0,1,.11-1.08,5.45,5.45,0,0,1,5.2-4.4,3.57,3.57,0,0,1,3.7,3.44A3.45,3.45,0,0,1,82.5,42.8Z"/><path class="cls-1" d="M54.1,29.9,59,2.2A1.9,1.9,0,0,0,57.43,0L57.2,0H9.5A3.12,3.12,0,0,0,6.4,3.1h0A3.12,3.12,0,0,0,9.5,6.2h5.2a3.1,3.1,0,0,1,0,6.2H6.3a3.12,3.12,0,0,0-3.1,3.1h0a3.12,3.12,0,0,0,3.1,3.1h5.2a3.12,3.12,0,0,1,3.1,3.1,3.27,3.27,0,0,1-3.1,3.2H3.1A3.12,3.12,0,0,0,0,28H0a3.12,3.12,0,0,0,3.1,3.1H52.2a1.36,1.36,0,0,0,1.9-1.2Z"/></g></g></g></g></svg>