<svg width="37" height="24" viewBox="0 0 37 24" fill="none" xmlns="http://www.w3.org/2000/svg">
<path fill-rule="evenodd" clip-rule="evenodd" d="M10.8775 11.9659C10.2923 11.9659 9.76958 11.8651 9.30935 11.6633C8.85197 11.4616 8.48975 11.1818 8.22271 10.8239C7.9585 10.4631 7.81646 10.0455 7.79657 9.57102H9.13464C9.15168 9.82954 9.23833 10.054 9.39458 10.2443C9.55367 10.4318 9.76106 10.5767 10.0167 10.679C10.2724 10.7812 10.5565 10.8324 10.869 10.8324C11.2128 10.8324 11.5167 10.7727 11.7809 10.6534C12.048 10.5341 12.2568 10.3679 12.4074 10.1548C12.5579 9.93892 12.6332 9.69034 12.6332 9.40909C12.6332 9.11647 12.5579 8.85937 12.4074 8.63778C12.2596 8.41335 12.0423 8.23721 11.7554 8.10937C11.4713 7.98153 11.1275 7.91761 10.7241 7.91761H9.98691V6.84375H10.7241C11.048 6.84375 11.3321 6.78551 11.5764 6.66903C11.8236 6.55255 12.0167 6.39062 12.1559 6.18324C12.2952 5.97301 12.3648 5.72727 12.3648 5.44602C12.3648 5.17613 12.3037 4.94176 12.1815 4.74289C12.0622 4.54119 11.8917 4.38352 11.6702 4.26988C11.4514 4.15625 11.1929 4.09943 10.8946 4.09943C10.6105 4.09943 10.3449 4.15199 10.0977 4.2571C9.85339 4.35937 9.65453 4.5071 9.50112 4.70028C9.34771 4.89062 9.26532 5.11931 9.25396 5.38636H7.97981C7.99401 4.91477 8.13322 4.5 8.39742 4.14204C8.66447 3.78409 9.01674 3.50426 9.45424 3.30255C9.89174 3.10085 10.3775 3 10.9116 3C11.4713 3 11.9542 3.10937 12.3605 3.32812C12.7696 3.54403 13.0849 3.83238 13.3065 4.19318C13.5309 4.55397 13.6417 4.94886 13.6389 5.37784C13.6417 5.86647 13.5054 6.28125 13.2298 6.62216C12.9571 6.96307 12.5934 7.19176 12.1389 7.30824V7.37642C12.7184 7.46449 13.1673 7.6946 13.4855 8.06676C13.8065 8.43892 13.9656 8.90057 13.9628 9.4517C13.9656 9.93182 13.8321 10.3622 13.5622 10.7429C13.2952 11.1236 12.9301 11.4233 12.467 11.642C12.004 11.858 11.4741 11.9659 10.8775 11.9659ZM18.6204 11.9659C18.2312 11.9602 17.8477 11.8892 17.4699 11.7528C17.0949 11.6165 16.754 11.3892 16.4471 11.071C16.1403 10.7528 15.8946 10.3253 15.7099 9.78835C15.5281 9.25142 15.4372 8.58096 15.4372 7.77699C15.4372 7.01562 15.5125 6.33949 15.663 5.74858C15.8165 5.15767 16.0366 4.65909 16.3236 4.25284C16.6105 3.84375 16.9571 3.53267 17.3633 3.3196C17.7696 3.10653 18.2255 3 18.7312 3C19.2511 3 19.7128 3.10227 20.1162 3.30682C20.5196 3.51136 20.8463 3.79403 21.0963 4.15483C21.3491 4.51562 21.5096 4.92613 21.5778 5.38636H20.2781C20.19 5.02272 20.0153 4.72585 19.754 4.49574C19.4926 4.26562 19.1517 4.15057 18.7312 4.15057C18.092 4.15057 17.5934 4.42897 17.2355 4.98579C16.8804 5.54261 16.7014 6.31676 16.6986 7.30824H16.7625C16.913 7.06108 17.0977 6.85085 17.3165 6.67755C17.538 6.50142 17.7852 6.36647 18.0579 6.27272C18.3335 6.17613 18.6233 6.12784 18.9273 6.12784C19.4329 6.12784 19.8903 6.25142 20.2994 6.49858C20.7113 6.74289 21.0395 7.08096 21.2838 7.51278C21.5281 7.9446 21.6503 8.43892 21.6503 8.99574C21.6503 9.55255 21.5238 10.0568 21.271 10.5085C21.021 10.9602 20.6687 11.3182 20.2142 11.5824C19.7596 11.8437 19.2284 11.9716 18.6204 11.9659ZM18.6162 10.858C18.9514 10.858 19.2511 10.7756 19.5153 10.6108C19.7795 10.446 19.9883 10.2244 20.1417 9.94602C20.2952 9.66761 20.3719 9.35653 20.3719 9.01278C20.3719 8.67755 20.2966 8.37216 20.146 8.09659C19.9983 7.82102 19.7937 7.60227 19.5324 7.44034C19.2738 7.27841 18.9784 7.19744 18.646 7.19744C18.3932 7.19744 18.1588 7.24574 17.9429 7.34233C17.7298 7.43892 17.5423 7.57244 17.3804 7.7429C17.2184 7.91335 17.0906 8.10937 16.9969 8.33096C16.9059 8.54971 16.8605 8.78125 16.8605 9.02557C16.8605 9.35227 16.9358 9.65483 17.0863 9.93324C17.2398 10.2116 17.4486 10.4361 17.7128 10.6065C17.9798 10.7741 18.2809 10.858 18.6162 10.858ZM26.2408 11.9915C25.5675 11.9886 24.9922 11.8111 24.515 11.4588C24.0377 11.1065 23.6726 10.5937 23.4198 9.92045C23.167 9.24716 23.0405 8.43608 23.0405 7.48721C23.0405 6.54119 23.167 5.73295 23.4198 5.0625C23.6755 4.39204 24.042 3.88068 24.5192 3.52841C24.9993 3.17613 25.5732 3 26.2408 3C26.9084 3 27.4809 3.17755 27.9581 3.53267C28.4354 3.88494 28.8005 4.3963 29.0533 5.06676C29.309 5.73437 29.4368 6.54119 29.4368 7.48721C29.4368 8.43892 29.3104 9.25142 29.0576 9.92471C28.8047 10.5952 28.4397 11.108 27.9624 11.4631C27.4851 11.8153 26.9113 11.9915 26.2408 11.9915ZM26.2408 10.8537C26.8317 10.8537 27.2934 10.5653 27.6258 9.98863C27.961 9.41193 28.1286 8.57812 28.1286 7.48721C28.1286 6.76278 28.0519 6.15057 27.8985 5.65057C27.7479 5.14772 27.5306 4.76704 27.2465 4.50852C26.9653 4.24716 26.63 4.11647 26.2408 4.11647C25.6528 4.11647 25.1911 4.40625 24.8559 4.98579C24.5206 5.56534 24.3516 6.39914 24.3488 7.48721C24.3488 8.21449 24.4241 8.82954 24.5746 9.33238C24.728 9.83238 24.9454 10.2116 25.2266 10.4702C25.5079 10.7258 25.8459 10.8537 26.2408 10.8537ZM13.2773 17.619L12.1093 16.1589L12.8901 15.5342L14.8901 18.0342L15.1697 18.3837L14.8532 18.7001L12.8532 20.7001L12.1461 19.993L13.4974 18.6417C9.41955 18.3013 5.84691 17.5539 3.39095 16.5205C2.06648 15.9633 1.11404 15.3428 0.561895 14.6922C0.294124 14.3767 0.111651 14.0465 0.0371923 13.6969C-0.0385911 13.3411 0.0051744 13.0005 0.134543 12.6837C0.41116 12.0064 1.10635 11.3564 2.16612 10.764C2.92865 10.3377 3.87989 9.94132 4.9997 9.58603V10.6376C4.06343 10.9502 3.27901 11.2875 2.65404 11.6368C1.66609 12.1891 1.20921 12.6972 1.06032 13.0618C0.998835 13.2123 0.985471 13.3487 1.01525 13.4886C1.04636 13.6346 1.13215 13.8187 1.32431 14.0451C1.7297 14.5228 2.51682 15.0679 3.77876 15.5988C6.04419 16.5519 9.3877 17.2725 13.2773 17.619ZM34.6698 11.8282C34.2177 11.5463 33.6603 11.269 32.9997 11.0035V9.93089C33.8656 10.2558 34.6025 10.6078 35.1989 10.9796C36.1703 11.5854 36.7687 12.2439 36.945 12.924C37.1209 13.6027 36.8707 14.2807 36.2215 14.925C35.5738 15.5678 34.5306 16.1752 33.1251 16.7147C30.3141 17.7936 26.2543 18.5232 21.7346 18.7619L21.6819 17.7633C26.144 17.5277 30.0896 16.8086 32.7668 15.7811C34.1125 15.2646 35.0099 14.7185 35.5171 14.2152C36.0058 13.7302 36.0353 13.4 35.977 13.1749C35.8963 12.8637 35.5599 12.3833 34.6698 11.8282Z" fill="white"/>
</svg>
