<svg width="38" height="38" viewBox="0 0 38 38" fill="none" xmlns="http://www.w3.org/2000/svg">
<path fill-rule="evenodd" clip-rule="evenodd" d="M20.5109 9.95398e-06L20.7297 0.113203L35.2297 7.6132L35.5 7.75301V8.05731V27.5573V27.8452L35.2511 27.9897L19.7511 36.9897L19.4958 37.1379L19.2428 36.9861L4.24275 27.9861L4 27.8404V27.5573V8.05731V7.73948L4.28778 7.60458L20.2878 0.104583L20.5109 9.95398e-06ZM5 8.94041V27.2742L19 35.6742V17.3404L5 8.94041ZM20 17.3452V35.6888L34.5 27.2695V8.92581L20 17.3452ZM33.9606 8.08264L20.4891 1.11461L5.56227 8.11158L19.5042 16.4767L33.9606 8.08264ZM9.71047 24.9834L8.5 24.2846L11.2199 17.1276L12.5374 17.8883L15.2572 28.1859L14.0467 27.487L13.3557 24.7784L10.4027 23.0734L9.71047 24.9834ZM11.91 19.1113L13.0243 23.4791L10.7347 22.1572L11.8509 19.0772L11.91 19.1113ZM25.5 18.7896V27.5168L26.6403 26.8584V23.5559L28.1903 22.661C28.215 22.6468 28.2395 22.6324 28.2638 22.618L29.7994 25.0346L31.0984 24.2846L29.4257 21.7232C29.5031 21.6449 29.5773 21.5647 29.6481 21.4827C30.0368 21.0339 30.3271 20.5523 30.519 20.0381C30.7134 19.5197 30.8106 18.9934 30.8106 18.4593C30.8106 17.9224 30.7146 17.5047 30.5227 17.2065C30.3308 16.9053 30.0405 16.7505 29.6518 16.742C29.2655 16.732 28.7796 16.8961 28.194 17.2342L25.5 18.7896ZM26.6403 22.4224L28.087 21.5871C28.4561 21.3741 28.7562 21.1397 28.9875 20.884C29.2212 20.6269 29.3922 20.3506 29.5004 20.0552C29.6087 19.7597 29.6628 19.4486 29.6628 19.1219C29.6628 18.7924 29.6075 18.5388 29.4968 18.3613C29.3885 18.1823 29.2175 18.0964 28.9838 18.1035C28.7525 18.1063 28.4487 18.2164 28.0722 18.4337L26.6403 19.2604V22.4224Z" fill="white"/>
</svg>
