<svg width="40" height="40" viewBox="0 0 40 40" fill="none" xmlns="http://www.w3.org/2000/svg">
<path fill-rule="evenodd" clip-rule="evenodd" d="M26.1629 10.6066C30.4587 14.9024 30.4587 21.8672 26.1629 26.163C21.8672 30.4587 14.9024 30.4587 10.6066 26.163C6.31082 21.8672 6.31082 14.9024 10.6066 10.6066C14.9024 6.31084 21.8672 6.31084 26.1629 10.6066ZM28.2574 26.8433C32.6428 21.7358 32.4161 14.0313 27.5772 9.19239C22.5003 4.11558 14.2692 4.11558 9.19238 9.19239C4.11556 14.2692 4.11556 22.5004 9.19238 27.5772C14.0313 32.4161 21.7357 32.6428 26.8432 28.2575L36.0626 37.4768L37.4768 36.0626L28.2574 26.8433Z" fill="white"/>
<path fill-rule="evenodd" clip-rule="evenodd" d="M19.4563 12.9138H17.4563V16.9138L13.4563 16.9138V18.9138H17.4563V22.9138H19.4563V18.9138H23.4563V16.9138L19.4563 16.9138V12.9138Z" fill="white"/>
<path fill-rule="evenodd" clip-rule="evenodd" d="M19.4563 12.9138H17.4563V16.9138L13.4563 16.9138V18.9138H17.4563V22.9138H19.4563V18.9138H23.4563V16.9138L19.4563 16.9138V12.9138Z" fill="white"/>
</svg>
