<svg width="23" height="176" viewBox="0 0 23 176" fill="none" xmlns="http://www.w3.org/2000/svg">
<path d="M0 0H23V176H0V0Z" fill="#62BB46"/>
<path d="M18.6985 142.948L18.6985 144.288L17.1154 144.493L17.1154 150.748L18.6985 150.953L18.6985 152.293L15.4557 152.293L15.4557 151.259C15.3621 151.191 15.1578 151.085 14.8429 150.94C14.528 150.795 14.0769 150.651 13.4897 150.506C12.9024 150.361 12.1747 150.238 11.3066 150.136C10.4299 150.025 9.38731 149.978 8.17873 149.995L8.17873 144.174L15.4557 144.174L15.4557 142.948L18.6985 142.948ZM15.4557 146.063L9.8384 146.063L9.8384 148.233C11.3023 148.284 12.5024 148.416 13.4386 148.629C14.3748 148.833 15.0472 149.042 15.4557 149.255L15.4557 146.063Z" fill="white"/>
<path d="M13.7705 142.406C12.6641 142.406 11.796 142.113 11.1661 141.525C10.5363 140.938 10.2214 140.1 10.2214 139.01C10.2214 138.44 10.3108 137.942 10.4895 137.517C10.6682 137.091 10.9193 136.738 11.2427 136.457C11.5576 136.176 11.9321 135.968 12.3662 135.832C12.7918 135.687 13.2599 135.615 13.7705 135.615C14.3152 135.615 14.8089 135.691 15.2515 135.844C15.6855 135.998 16.0558 136.219 16.3622 136.508C16.6686 136.798 16.9026 137.155 17.0643 137.581C17.226 137.998 17.3069 138.474 17.3069 139.01C17.3069 139.589 17.2175 140.091 17.0388 140.517C16.8601 140.942 16.6132 141.296 16.2983 141.577C15.9749 141.857 15.6004 142.066 15.1749 142.202C14.7408 142.338 14.2727 142.406 13.7705 142.406ZM13.7705 140.568C14.0514 140.568 14.3152 140.538 14.5621 140.479C14.8089 140.419 15.0259 140.33 15.2132 140.211C15.3919 140.083 15.5366 139.921 15.6472 139.725C15.7579 139.53 15.8132 139.291 15.8132 139.01C15.8132 137.972 15.1323 137.453 13.7705 137.453C13.4726 137.453 13.2003 137.483 12.9535 137.542C12.6981 137.593 12.4811 137.683 12.3024 137.81C12.1151 137.93 11.9704 138.091 11.8683 138.296C11.7662 138.491 11.7151 138.73 11.7151 139.01C11.7151 139.496 11.8768 139.879 12.2002 140.159C12.5237 140.432 13.0471 140.568 13.7705 140.568Z" fill="white"/>
<path d="M16.7069 129.101C16.9026 129.39 17.0516 129.739 17.1537 130.148C17.2558 130.548 17.3069 130.965 17.3069 131.399C17.3069 131.978 17.2218 132.467 17.0516 132.867C16.8813 133.259 16.6388 133.582 16.3239 133.837C16.009 134.084 15.6387 134.263 15.2132 134.373C14.7791 134.484 14.2982 134.539 13.7705 134.539C12.6556 134.539 11.7874 134.267 11.1661 133.722C10.5363 133.169 10.2214 132.369 10.2214 131.322C10.2214 130.812 10.264 130.395 10.3491 130.071C10.4257 129.739 10.5278 129.446 10.6555 129.19L12.0853 129.624C11.9917 129.846 11.9236 130.067 11.8811 130.288C11.83 130.501 11.8045 130.752 11.8045 131.041C11.8045 131.578 11.9619 131.99 12.2768 132.28C12.5832 132.561 13.0811 132.701 13.7705 132.701C14.0429 132.701 14.2982 132.667 14.5365 132.599C14.7663 132.531 14.9706 132.424 15.1493 132.28C15.3281 132.135 15.4685 131.952 15.5706 131.731C15.6728 131.509 15.7238 131.25 15.7238 130.952C15.7238 130.595 15.694 130.314 15.6345 130.109C15.5664 129.897 15.477 129.697 15.3664 129.509L16.7069 129.101Z" fill="white"/>
<path d="M11.996 122.664L11.996 124.745L17.1154 124.745L17.1154 126.609L11.996 126.609L11.996 128.69L10.4129 128.69L10.4129 122.664L11.996 122.664Z" fill="white"/>
<path d="M10.8725 121.703C10.7023 121.32 10.5618 120.852 10.4512 120.299C10.3406 119.737 10.2852 119.158 10.2852 118.562C10.2852 118.094 10.3406 117.703 10.4512 117.388C10.5618 117.064 10.7236 116.809 10.9363 116.622C11.1406 116.435 11.3917 116.303 11.6896 116.226C11.9789 116.141 12.3024 116.098 12.6598 116.098C13.0939 116.098 13.5237 116.115 13.9493 116.149C14.3748 116.183 14.8259 116.201 15.3025 116.201C15.626 116.201 15.9409 116.179 16.2473 116.137C16.5537 116.094 16.8473 116.026 17.1282 115.932L17.1282 117.388L16.1324 117.681L16.1324 117.835C16.4303 118.056 16.6856 118.337 16.8984 118.677C17.1111 119.018 17.2175 119.456 17.2175 119.992C17.2175 120.316 17.1707 120.614 17.0771 120.886C16.9835 121.15 16.8516 121.38 16.6813 121.575C16.5026 121.763 16.2941 121.911 16.0558 122.022C15.8175 122.124 15.5579 122.175 15.277 122.175C14.5195 122.175 13.9493 121.924 13.5663 121.422C13.1748 120.911 12.979 120.141 12.979 119.111C12.979 118.873 13.0003 118.635 13.0428 118.396C13.0769 118.158 13.1024 117.992 13.1194 117.898C12.9407 117.873 12.7875 117.86 12.6598 117.86C12.3364 117.86 12.0981 117.941 11.9449 118.103C11.7917 118.264 11.7151 118.567 11.7151 119.009C11.7151 119.418 11.7662 119.818 11.8683 120.209C11.9619 120.592 12.0811 120.933 12.2258 121.231L10.8725 121.703ZM15.7877 119.367C15.7877 118.967 15.694 118.647 15.5068 118.409C15.3196 118.171 15.1238 117.996 14.9195 117.886L14.1535 117.886C14.1365 117.928 14.1195 117.996 14.1025 118.09C14.0854 118.175 14.0684 118.273 14.0514 118.384C14.0344 118.486 14.0216 118.592 14.0131 118.703C14.0046 118.805 14.0003 118.899 14.0003 118.984C14.0003 119.443 14.0854 119.784 14.2557 120.005C14.4174 120.226 14.6216 120.337 14.8685 120.337C15.1749 120.337 15.4047 120.252 15.5579 120.082C15.7111 119.903 15.7877 119.665 15.7877 119.367Z" fill="white"/>
<path d="M10.4129 114.246C10.3874 113.897 10.3618 113.488 10.3363 113.02C10.3108 112.552 10.298 112.037 10.298 111.476C10.298 110.42 10.4384 109.671 10.7193 109.229C11.0002 108.786 11.4172 108.565 11.9704 108.565C12.2853 108.565 12.5875 108.663 12.8769 108.858C13.1662 109.054 13.3833 109.361 13.528 109.778L13.6301 109.778C13.7407 109.25 13.9322 108.867 14.2046 108.629C14.4684 108.382 14.8131 108.258 15.2387 108.258C15.9026 108.258 16.4005 108.539 16.7324 109.101C17.0643 109.663 17.2303 110.556 17.2303 111.782C17.2303 112.182 17.2175 112.608 17.192 113.059C17.175 113.501 17.1494 113.897 17.1154 114.246L10.4129 114.246ZM15.7494 112.497C15.7834 112.327 15.8047 112.182 15.8132 112.063C15.8217 111.935 15.826 111.786 15.826 111.616C15.826 111.037 15.7579 110.637 15.6217 110.416C15.477 110.186 15.2727 110.071 15.0089 110.071C14.7706 110.071 14.5791 110.169 14.4344 110.365C14.2812 110.561 14.2046 110.918 14.2046 111.437L14.2046 112.497L15.7494 112.497ZM13.145 111.412C13.145 111.071 13.0811 110.795 12.9535 110.582C12.8173 110.369 12.6428 110.263 12.43 110.263C12.2002 110.263 12.0215 110.356 11.8938 110.544C11.7662 110.722 11.7023 111.05 11.7023 111.527C11.7023 111.697 11.7066 111.837 11.7151 111.948C11.7236 112.059 11.7321 112.161 11.7406 112.254C11.7406 112.288 11.7449 112.331 11.7534 112.382C11.7534 112.433 11.7534 112.471 11.7534 112.497L13.145 112.497L13.145 111.412Z" fill="white"/>
<path d="M14.0897 102.435L12.9535 102.358L14.0769 103.163L17.1154 105.805L17.1154 106.878L10.4129 106.878L10.4129 105.09L13.5663 105.09L14.4855 105.154L14.4855 105.001C14.3408 104.899 14.1876 104.797 14.0259 104.695C13.8642 104.584 13.711 104.478 13.5663 104.375L10.4129 101.72L10.4129 100.648L17.1154 100.648L17.1154 102.435L14.0897 102.435Z" fill="white"/>
<path d="M14.1408 92.4917L12.6854 92.364L12.6854 92.5683L13.8344 93.1683L13.8216 93.1683L15.9026 94.5216L15.9026 95.1472L13.8216 96.6409L13.8344 96.6409L12.6854 97.2409L12.6854 97.4196L14.128 97.2281L17.1154 97.2281L17.1154 98.8112L10.4129 98.8112L10.4129 96.9345L12.9152 95.2621L12.9024 95.2621L13.7578 94.8152L13.7578 94.6748L12.8769 94.228L12.8896 94.228L10.4129 92.6704L10.4129 90.7937L17.1154 90.7937L17.1154 92.4917L14.1408 92.4917Z" fill="white"/>
<path d="M14.3323 84.7445L13.1322 84.7445L13.1322 83.9147C13.1322 83.5317 13.0726 83.2295 12.9535 83.0083C12.8258 82.787 12.6556 82.6763 12.4428 82.6763C12.196 82.6763 12.0258 82.7742 11.9321 82.97C11.83 83.1657 11.7789 83.4721 11.7789 83.8892C11.7789 84.2551 11.8257 84.5913 11.9194 84.8977C12.0045 85.1956 12.0938 85.4424 12.1875 85.6382C11.9577 85.7063 11.7406 85.7659 11.5364 85.8169C11.3236 85.8595 11.1023 85.9148 10.8725 85.9829C10.7023 85.702 10.5618 85.3233 10.4512 84.8467C10.3406 84.37 10.2852 83.8636 10.2852 83.3274C10.2852 82.5018 10.4299 81.889 10.7193 81.489C11.0002 81.0805 11.4087 80.8762 11.9449 80.8762C12.0981 80.8762 12.2513 80.9018 12.4045 80.9528C12.5577 80.9954 12.7066 81.0635 12.8513 81.1571C12.9875 81.2507 13.1152 81.3699 13.2343 81.5146C13.345 81.6592 13.4343 81.8295 13.5024 82.0252L13.6046 82.0252C13.7152 81.4975 13.9067 81.1273 14.1791 80.9145C14.4429 80.7017 14.8004 80.5954 15.2515 80.5954C15.5323 80.5954 15.7962 80.6592 16.043 80.7869C16.2813 80.906 16.4941 81.0933 16.6813 81.3486C16.8686 81.6039 17.0133 81.9273 17.1154 82.3189C17.226 82.7019 17.2814 83.1572 17.2814 83.6849C17.2814 84.1956 17.226 84.6509 17.1154 85.0509C17.0048 85.451 16.8813 85.7786 16.7452 86.034C16.5154 85.9744 16.2856 85.9105 16.0558 85.8425C15.826 85.7744 15.5962 85.7063 15.3664 85.6382C15.4855 85.4084 15.5877 85.1318 15.6728 84.8084C15.7494 84.4764 15.7877 84.119 15.7877 83.736C15.7877 82.8338 15.5281 82.3827 15.0089 82.3827C14.8897 82.3827 14.7876 82.4125 14.7025 82.4721C14.6174 82.5231 14.5493 82.6125 14.4982 82.7402C14.4387 82.8678 14.3961 83.0423 14.3706 83.2636C14.345 83.4764 14.3323 83.7487 14.3323 84.0807L14.3323 84.7445Z" fill="white"/>
<path d="M10.8725 79.2762C10.7023 78.8932 10.5618 78.4251 10.4512 77.8719C10.3406 77.3101 10.2852 76.7314 10.2852 76.1356C10.2852 75.6675 10.3406 75.276 10.4512 74.9611C10.5618 74.6376 10.7236 74.3823 10.9363 74.1951C11.1406 74.0078 11.3917 73.8759 11.6896 73.7993C11.9789 73.7142 12.3024 73.6716 12.6598 73.6716C13.0939 73.6716 13.5237 73.6887 13.9493 73.7227C14.3748 73.7567 14.8259 73.7738 15.3025 73.7738C15.626 73.7738 15.9409 73.7525 16.2473 73.7099C16.5537 73.6674 16.8473 73.5993 17.1282 73.5057L17.1282 74.9611L16.1324 75.2547L16.1324 75.4079C16.4303 75.6292 16.6856 75.9101 16.8984 76.2505C17.1111 76.5909 17.2175 77.0293 17.2175 77.5655C17.2175 77.8889 17.1707 78.1868 17.0771 78.4591C16.9835 78.723 16.8516 78.9528 16.6813 79.1485C16.5026 79.3358 16.2941 79.4847 16.0558 79.5954C15.8175 79.6975 15.5579 79.7486 15.277 79.7486C14.5195 79.7486 13.9493 79.4975 13.5663 78.9953C13.1748 78.4847 12.979 77.7144 12.979 76.6846C12.979 76.4463 13.0003 76.2079 13.0428 75.9696C13.0769 75.7313 13.1024 75.5654 13.1194 75.4717C12.9407 75.4462 12.7875 75.4334 12.6598 75.4334C12.3364 75.4334 12.0981 75.5143 11.9449 75.676C11.7917 75.8377 11.7151 76.1399 11.7151 76.5824C11.7151 76.991 11.7662 77.391 11.8683 77.7825C11.9619 78.1655 12.0811 78.5059 12.2258 78.8038L10.8725 79.2762ZM15.7877 76.9399C15.7877 76.5399 15.694 76.2207 15.5068 75.9824C15.3196 75.7441 15.1238 75.5696 14.9195 75.459L14.1535 75.459C14.1365 75.5015 14.1195 75.5696 14.1025 75.6632C14.0854 75.7483 14.0684 75.8462 14.0514 75.9569C14.0344 76.059 14.0216 76.1654 14.0131 76.276C14.0046 76.3782 14.0003 76.4718 14.0003 76.5569C14.0003 77.0165 14.0854 77.3569 14.2557 77.5782C14.4174 77.7995 14.6216 77.9102 14.8685 77.9102C15.1749 77.9102 15.4047 77.8251 15.5579 77.6548C15.7111 77.4761 15.7877 77.2378 15.7877 76.9399Z" fill="white"/>
<path d="M10.3874 62.7757C10.8129 62.7757 11.2427 62.8608 11.6768 63.031C12.1109 63.2012 12.5364 63.4183 12.9535 63.6821C13.362 63.9374 13.762 64.2268 14.1535 64.5502C14.545 64.8652 14.9068 65.1758 15.2387 65.4822L15.7621 66.2099L15.826 66.2099L15.6217 65.2269L15.6217 62.5842L17.1154 62.5842L17.1154 68.4185L16.2217 68.4185C16.0004 68.1973 15.7536 67.9504 15.4813 67.6781C15.2004 67.3972 14.9025 67.1163 14.5876 66.8355C14.2727 66.5546 13.9493 66.2823 13.6173 66.0184C13.2769 65.7461 12.9407 65.5077 12.6088 65.3035C12.2768 65.0992 11.9534 64.9332 11.6385 64.8056C11.3151 64.6779 11.0172 64.6141 10.7448 64.6141C10.4214 64.6141 10.1491 64.712 9.92776 64.9077C9.69796 65.1035 9.58306 65.4397 9.58306 65.9163C9.58306 66.2142 9.6469 66.5163 9.77456 66.8227C9.89372 67.1291 10.0512 67.393 10.2469 67.6142L8.97026 68.3547C8.69791 67.9887 8.46811 67.5802 8.28086 67.1291C8.09362 66.678 8 66.1376 8 65.5077C8 65.1162 8.05106 64.7545 8.1532 64.4226C8.25533 64.0821 8.40427 63.7928 8.60003 63.5544C8.79579 63.3076 9.04686 63.1161 9.35326 62.9799C9.65115 62.8438 9.99585 62.7757 10.3874 62.7757Z" fill="white"/>
<path d="M14.6514 54.1605L14.6514 55.6797L17.1154 55.6797L17.1154 57.3521L14.6514 57.3521L14.6514 61.5524L13.6556 61.5524L8.1149 57.1606L8.1149 55.6797L13.2599 55.6797L13.2599 54.1605L14.6514 54.1605ZM11.4215 57.3521L10.3874 57.25L10.3874 57.3011L11.2555 57.7607L12.9024 59.1778L13.3748 59.8927L13.2599 58.999L13.2599 57.3521L11.4215 57.3521Z" fill="white"/>
<path d="M10.4129 48.5095L11.7279 48.5095C12.0513 48.5095 12.3279 48.4967 12.5577 48.4712C12.779 48.4372 12.962 48.3819 13.1067 48.3053C13.2514 48.2287 13.3577 48.118 13.4258 47.9733C13.4854 47.8286 13.5152 47.6414 13.5152 47.4116C13.5152 47.1307 13.4812 46.8796 13.4131 46.6584C13.3365 46.4371 13.2471 46.2541 13.145 46.1094L10.4129 46.1094L10.4129 44.322L17.1154 44.322L17.1154 46.1094L14.3833 46.1094C14.4429 46.203 14.511 46.3094 14.5876 46.4286C14.6557 46.5477 14.7238 46.6881 14.7919 46.8499C14.8514 47.0116 14.9025 47.1946 14.9451 47.3988C14.9876 47.6031 15.0089 47.8286 15.0089 48.0755C15.0089 48.4244 14.9749 48.7393 14.9068 49.0202C14.8302 49.2925 14.7025 49.5266 14.5238 49.7224C14.3365 49.9096 14.094 50.0543 13.7961 50.1564C13.4897 50.25 13.1067 50.2969 12.6471 50.2969L10.4129 50.2969L10.4129 48.5095Z" fill="white"/>
<path d="M10.8725 42.5471C10.7023 42.1641 10.5618 41.696 10.4512 41.1427C10.3406 40.581 10.2852 40.0023 10.2852 39.4065C10.2852 38.9384 10.3406 38.5469 10.4512 38.232C10.5618 37.9085 10.7236 37.6532 10.9363 37.466C11.1406 37.2787 11.3917 37.1468 11.6896 37.0702C11.9789 36.9851 12.3024 36.9425 12.6598 36.9425C13.0939 36.9425 13.5237 36.9595 13.9493 36.9936C14.3748 37.0276 14.8259 37.0446 15.3025 37.0446C15.626 37.0446 15.9409 37.0234 16.2473 36.9808C16.5537 36.9383 16.8473 36.8702 17.1282 36.7766L17.1282 38.232L16.1324 38.5256L16.1324 38.6788C16.4303 38.9001 16.6856 39.1809 16.8984 39.5214C17.1111 39.8618 17.2175 40.3002 17.2175 40.8364C17.2175 41.1598 17.1707 41.4577 17.0771 41.73C16.9835 41.9939 16.8516 42.2237 16.6813 42.4194C16.5026 42.6067 16.2941 42.7556 16.0558 42.8663C15.8175 42.9684 15.5579 43.0195 15.277 43.0195C14.5195 43.0195 13.9493 42.7684 13.5663 42.2662C13.1748 41.7555 12.979 40.9853 12.979 39.9555C12.979 39.7171 13.0003 39.4788 13.0428 39.2405C13.0769 39.0022 13.1024 38.8362 13.1194 38.7426C12.9407 38.7171 12.7875 38.7043 12.6598 38.7043C12.3364 38.7043 12.0981 38.7852 11.9449 38.9469C11.7917 39.1086 11.7151 39.4107 11.7151 39.8533C11.7151 40.2619 11.7662 40.6619 11.8683 41.0534C11.9619 41.4364 12.0811 41.7768 12.2258 42.0747L10.8725 42.5471ZM15.7877 40.2108C15.7877 39.8108 15.694 39.4916 15.5068 39.2533C15.3196 39.015 15.1238 38.8405 14.9195 38.7299L14.1535 38.7299C14.1365 38.7724 14.1195 38.8405 14.1025 38.9341C14.0854 39.0192 14.0684 39.1171 14.0514 39.2278C14.0344 39.3299 14.0216 39.4363 14.0131 39.5469C14.0046 39.649 14.0003 39.7427 14.0003 39.8278C14.0003 40.2874 14.0854 40.6278 14.2557 40.8491C14.4174 41.0704 14.6216 41.1811 14.8685 41.1811C15.1749 41.1811 15.4047 41.0959 15.5579 40.9257C15.7111 40.747 15.7877 40.5087 15.7877 40.2108Z" fill="white"/>
<path d="M16.7069 30.0345C16.9026 30.3238 17.0516 30.6728 17.1537 31.0813C17.2558 31.4813 17.3069 31.8984 17.3069 32.3325C17.3069 32.9112 17.2218 33.4006 17.0516 33.8006C16.8813 34.1921 16.6388 34.5155 16.3239 34.7709C16.009 35.0177 15.6387 35.1964 15.2132 35.3071C14.7791 35.4177 14.2982 35.4731 13.7705 35.4731C12.6556 35.4731 11.7874 35.2007 11.1661 34.656C10.5363 34.1028 10.2214 33.3027 10.2214 32.2558C10.2214 31.7452 10.264 31.3281 10.3491 31.0047C10.4257 30.6728 10.5278 30.3792 10.6555 30.1238L12.0853 30.5579C11.9917 30.7792 11.9236 31.0005 11.8811 31.2218C11.83 31.4345 11.8045 31.6856 11.8045 31.975C11.8045 32.5112 11.9619 32.924 12.2768 33.2134C12.5832 33.4942 13.0811 33.6347 13.7705 33.6347C14.0429 33.6347 14.2982 33.6006 14.5365 33.5325C14.7663 33.4644 14.9706 33.358 15.1493 33.2134C15.3281 33.0687 15.4685 32.8857 15.5706 32.6644C15.6728 32.4431 15.7238 32.1835 15.7238 31.8856C15.7238 31.5282 15.694 31.2473 15.6345 31.043C15.5664 30.8302 15.477 30.6302 15.3664 30.443L16.7069 30.0345Z" fill="white"/>
<path d="M10.8725 28.7706C10.7023 28.3876 10.5618 27.9194 10.4512 27.3662C10.3406 26.8045 10.2852 26.2257 10.2852 25.63C10.2852 25.1618 10.3406 24.7703 10.4512 24.4554C10.5618 24.132 10.7236 23.8767 10.9363 23.6894C11.1406 23.5022 11.3917 23.3703 11.6896 23.2937C11.9789 23.2085 12.3024 23.166 12.6598 23.166C13.0939 23.166 13.5237 23.183 13.9493 23.2171C14.3748 23.2511 14.8259 23.2681 15.3025 23.2681C15.626 23.2681 15.9409 23.2468 16.2473 23.2043C16.5537 23.1617 16.8473 23.0936 17.1282 23L17.1282 24.4554L16.1324 24.749L16.1324 24.9022C16.4303 25.1235 16.6856 25.4044 16.8984 25.7448C17.1111 26.0853 17.2175 26.5236 17.2175 27.0598C17.2175 27.3832 17.1707 27.6811 17.0771 27.9535C16.9835 28.2173 16.8516 28.4471 16.6813 28.6429C16.5026 28.8301 16.2941 28.9791 16.0558 29.0897C15.8175 29.1919 15.5579 29.2429 15.277 29.2429C14.5195 29.2429 13.9493 28.9918 13.5663 28.4897C13.1748 27.979 12.979 27.2088 12.979 26.1789C12.979 25.9406 13.0003 25.7023 13.0428 25.464C13.0769 25.2257 13.1024 25.0597 13.1194 24.9661C12.9407 24.9405 12.7875 24.9278 12.6598 24.9278C12.3364 24.9278 12.0981 25.0086 11.9449 25.1703C11.7917 25.3321 11.7151 25.6342 11.7151 26.0768C11.7151 26.4853 11.7662 26.8853 11.8683 27.2769C11.9619 27.6599 12.0811 28.0003 12.2258 28.2982L10.8725 28.7706ZM15.7877 26.4342C15.7877 26.0342 15.694 25.7151 15.5068 25.4767C15.3196 25.2384 15.1238 25.064 14.9195 24.9533L14.1535 24.9533C14.1365 24.9959 14.1195 25.064 14.1025 25.1576C14.0854 25.2427 14.0684 25.3406 14.0514 25.4512C14.0344 25.5534 14.0216 25.6597 14.0131 25.7704C14.0046 25.8725 14.0003 25.9661 14.0003 26.0513C14.0003 26.5109 14.0854 26.8513 14.2557 27.0726C14.4174 27.2939 14.6216 27.4045 14.8685 27.4045C15.1749 27.4045 15.4047 27.3194 15.5579 27.1492C15.7111 26.9705 15.7877 26.7321 15.7877 26.4342Z" fill="white"/>
</svg>
