<svg width="252" height="284" viewBox="0 0 252 284" fill="none" xmlns="http://www.w3.org/2000/svg">
<rect width="252" height="284" fill="#62BB46"/>
<path d="M58.352 63.464H54.572L53.996 59H36.356L35.78 63.464H32V54.32H34.916C35.108 54.056 35.408 53.48 35.816 52.592C36.224 51.704 36.632 50.432 37.04 48.776C37.448 47.12 37.796 45.068 38.084 42.62C38.396 40.148 38.528 37.208 38.48 33.8H54.896V54.32H58.352V63.464ZM49.568 54.32V38.48H43.448C43.304 42.608 42.932 45.992 42.332 48.632C41.756 51.272 41.168 53.168 40.568 54.32H49.568Z" fill="white"/>
<path d="M59.8792 49.568C59.8792 46.448 60.7072 44 62.3632 42.224C64.0192 40.448 66.3832 39.56 69.4552 39.56C71.0632 39.56 72.4672 39.812 73.6672 40.316C74.8672 40.82 75.8632 41.528 76.6552 42.44C77.4472 43.328 78.0352 44.384 78.4192 45.608C78.8272 46.808 79.0312 48.128 79.0312 49.568C79.0312 51.104 78.8152 52.496 78.3832 53.744C77.9512 54.968 77.3272 56.012 76.5112 56.876C75.6952 57.74 74.6872 58.4 73.4872 58.856C72.3112 59.312 70.9672 59.54 69.4552 59.54C67.8232 59.54 66.4072 59.288 65.2072 58.784C64.0072 58.28 63.0112 57.584 62.2192 56.696C61.4272 55.784 60.8392 54.728 60.4552 53.528C60.0712 52.304 59.8792 50.984 59.8792 49.568ZM65.0632 49.568C65.0632 50.36 65.1472 51.104 65.3152 51.8C65.4832 52.496 65.7352 53.108 66.0712 53.636C66.4312 54.14 66.8872 54.548 67.4392 54.86C67.9912 55.172 68.6632 55.328 69.4552 55.328C72.3832 55.328 73.8472 53.408 73.8472 49.568C73.8472 48.728 73.7632 47.96 73.5952 47.264C73.4512 46.544 73.1992 45.932 72.8392 45.428C72.5032 44.9 72.0472 44.492 71.4712 44.204C70.9192 43.916 70.2472 43.772 69.4552 43.772C68.0872 43.772 67.0072 44.228 66.2152 45.14C65.4472 46.052 65.0632 47.528 65.0632 49.568Z" fill="white"/>
<path d="M97.3988 57.848C96.5828 58.4 95.5988 58.82 94.4468 59.108C93.3188 59.396 92.1428 59.54 90.9188 59.54C89.2868 59.54 87.9068 59.3 86.7788 58.82C85.6748 58.34 84.7628 57.656 84.0428 56.768C83.3468 55.88 82.8428 54.836 82.5308 53.636C82.2188 52.412 82.0628 51.056 82.0628 49.568C82.0628 46.424 82.8308 43.976 84.3668 42.224C85.9268 40.448 88.1828 39.56 91.1348 39.56C92.5748 39.56 93.7508 39.68 94.6628 39.92C95.5988 40.136 96.4268 40.424 97.1468 40.784L95.9228 44.816C95.2988 44.552 94.6748 44.36 94.0508 44.24C93.4508 44.096 92.7428 44.024 91.9268 44.024C90.4148 44.024 89.2508 44.468 88.4348 45.356C87.6428 46.22 87.2468 47.624 87.2468 49.568C87.2468 50.336 87.3428 51.056 87.5348 51.728C87.7268 52.376 88.0268 52.952 88.4348 53.456C88.8428 53.96 89.3588 54.356 89.9828 54.644C90.6068 54.932 91.3388 55.076 92.1788 55.076C93.1868 55.076 93.9788 54.992 94.5548 54.824C95.1548 54.632 95.7188 54.38 96.2468 54.068L97.3988 57.848Z" fill="white"/>
<path d="M115.55 44.564H109.682V59H104.426V44.564H98.5575V40.1H115.55V44.564Z" fill="white"/>
<path d="M118.26 41.396C119.34 40.916 120.66 40.52 122.22 40.208C123.804 39.896 125.436 39.74 127.116 39.74C128.436 39.74 129.54 39.896 130.428 40.208C131.34 40.52 132.06 40.976 132.588 41.576C133.116 42.152 133.488 42.86 133.704 43.7C133.944 44.516 134.064 45.428 134.064 46.436C134.064 47.66 134.016 48.872 133.92 50.072C133.824 51.272 133.776 52.544 133.776 53.888C133.776 54.8 133.836 55.688 133.956 56.552C134.076 57.416 134.268 58.244 134.532 59.036H130.428L129.6 56.228H129.168C128.544 57.068 127.752 57.788 126.792 58.388C125.832 58.988 124.596 59.288 123.084 59.288C122.172 59.288 121.332 59.156 120.564 58.892C119.82 58.628 119.172 58.256 118.62 57.776C118.092 57.272 117.672 56.684 117.36 56.012C117.072 55.34 116.928 54.608 116.928 53.816C116.928 51.68 117.636 50.072 119.052 48.992C120.492 47.888 122.664 47.336 125.568 47.336C126.24 47.336 126.912 47.396 127.584 47.516C128.256 47.612 128.724 47.684 128.988 47.732C129.06 47.228 129.096 46.796 129.096 46.436C129.096 45.524 128.868 44.852 128.412 44.42C127.956 43.988 127.104 43.772 125.856 43.772C124.704 43.772 123.576 43.916 122.472 44.204C121.392 44.468 120.432 44.804 119.592 45.212L118.26 41.396ZM124.848 55.256C125.976 55.256 126.876 54.992 127.548 54.464C128.22 53.936 128.712 53.384 129.024 52.808V50.648C128.904 50.6 128.712 50.552 128.448 50.504C128.208 50.456 127.932 50.408 127.62 50.36C127.332 50.312 127.032 50.276 126.72 50.252C126.432 50.228 126.168 50.216 125.928 50.216C124.632 50.216 123.672 50.456 123.048 50.936C122.424 51.392 122.112 51.968 122.112 52.664C122.112 53.528 122.352 54.176 122.832 54.608C123.336 55.04 124.008 55.256 124.848 55.256Z" fill="white"/>
<path d="M139.287 40.1C140.271 40.028 141.423 39.956 142.743 39.884C144.063 39.812 145.515 39.776 147.099 39.776C150.075 39.776 152.187 40.172 153.435 40.964C154.683 41.756 155.307 42.932 155.307 44.492C155.307 45.38 155.031 46.232 154.479 47.048C153.927 47.864 153.063 48.476 151.887 48.884V49.172C153.375 49.484 154.455 50.024 155.127 50.792C155.823 51.536 156.171 52.508 156.171 53.708C156.171 55.58 155.379 56.984 153.795 57.92C152.211 58.856 149.691 59.324 146.235 59.324C145.107 59.324 143.907 59.288 142.635 59.216C141.387 59.168 140.271 59.096 139.287 59V40.1ZM144.219 55.148C144.699 55.244 145.107 55.304 145.443 55.328C145.803 55.352 146.223 55.364 146.703 55.364C148.335 55.364 149.463 55.172 150.087 54.788C150.735 54.38 151.059 53.804 151.059 53.06C151.059 52.388 150.783 51.848 150.231 51.44C149.679 51.008 148.671 50.792 147.207 50.792H144.219V55.148ZM147.279 47.804C148.239 47.804 149.019 47.624 149.619 47.264C150.219 46.88 150.519 46.388 150.519 45.788C150.519 45.14 150.255 44.636 149.727 44.276C149.223 43.916 148.299 43.736 146.955 43.736C146.475 43.736 146.079 43.748 145.767 43.772C145.455 43.796 145.167 43.82 144.903 43.844C144.807 43.844 144.687 43.856 144.543 43.88C144.399 43.88 144.291 43.88 144.219 43.88V47.804H147.279Z" fill="white"/>
<path d="M172.593 50.468L172.809 47.264L170.541 50.432L163.089 59H160.065V40.1H165.105V48.992L164.925 51.584H165.357C165.645 51.176 165.933 50.744 166.221 50.288C166.533 49.832 166.833 49.4 167.121 48.992L174.609 40.1H177.633V59H172.593V50.468Z" fill="white"/>
<path d="M200.631 50.612L200.991 46.508H200.415L198.723 49.748V49.712L194.907 55.58H193.143L188.931 49.712V49.748L187.239 46.508H186.735L187.275 50.576V59H182.811V40.1H188.103L192.819 47.156V47.12L194.079 49.532H194.475L195.735 47.048V47.084L200.127 40.1H205.419V59H200.631V50.612Z" fill="white"/>
<path d="M36.5 98.152V94.768H38.84C39.92 94.768 40.772 94.6 41.396 94.264C42.02 93.904 42.332 93.424 42.332 92.824C42.332 92.128 42.056 91.648 41.504 91.384C40.952 91.096 40.088 90.952 38.912 90.952C37.88 90.952 36.932 91.084 36.068 91.348C35.228 91.588 34.532 91.84 33.98 92.104C33.788 91.456 33.62 90.844 33.476 90.268C33.356 89.668 33.2 89.044 33.008 88.396C33.8 87.916 34.868 87.52 36.212 87.208C37.556 86.896 38.984 86.74 40.496 86.74C42.824 86.74 44.552 87.148 45.68 87.964C46.832 88.756 47.408 89.908 47.408 91.42C47.408 91.852 47.336 92.284 47.192 92.716C47.072 93.148 46.88 93.568 46.616 93.976C46.352 94.36 46.016 94.72 45.608 95.056C45.2 95.368 44.72 95.62 44.168 95.812V96.1C45.656 96.412 46.7 96.952 47.3 97.72C47.9 98.464 48.2 99.472 48.2 100.744C48.2 101.536 48.02 102.28 47.66 102.976C47.324 103.648 46.796 104.248 46.076 104.776C45.356 105.304 44.444 105.712 43.34 106C42.26 106.312 40.976 106.468 39.488 106.468C38.048 106.468 36.764 106.312 35.636 106C34.508 105.688 33.584 105.34 32.864 104.956C33.032 104.308 33.212 103.66 33.404 103.012C33.596 102.364 33.788 101.716 33.98 101.068C34.628 101.404 35.408 101.692 36.32 101.932C37.256 102.148 38.264 102.256 39.344 102.256C41.888 102.256 43.16 101.524 43.16 100.06C43.16 99.724 43.076 99.436 42.908 99.196C42.764 98.956 42.512 98.764 42.152 98.62C41.792 98.452 41.3 98.332 40.676 98.26C40.076 98.188 39.308 98.152 38.372 98.152H36.5Z" fill="white"/>
<path d="M51.9198 88.396C52.9998 87.916 54.3198 87.52 55.8798 87.208C57.4638 86.896 59.0958 86.74 60.7758 86.74C62.0958 86.74 63.1998 86.896 64.0878 87.208C64.9998 87.52 65.7198 87.976 66.2478 88.576C66.7758 89.152 67.1478 89.86 67.3638 90.7C67.6038 91.516 67.7238 92.428 67.7238 93.436C67.7238 94.66 67.6758 95.872 67.5798 97.072C67.4838 98.272 67.4358 99.544 67.4358 100.888C67.4358 101.8 67.4958 102.688 67.6158 103.552C67.7358 104.416 67.9278 105.244 68.1918 106.036H64.0878L63.2598 103.228H62.8278C62.2038 104.068 61.4118 104.788 60.4518 105.388C59.4918 105.988 58.2558 106.288 56.7438 106.288C55.8318 106.288 54.9918 106.156 54.2238 105.892C53.4798 105.628 52.8318 105.256 52.2798 104.776C51.7518 104.272 51.3318 103.684 51.0198 103.012C50.7318 102.34 50.5878 101.608 50.5878 100.816C50.5878 98.68 51.2958 97.072 52.7118 95.992C54.1518 94.888 56.3238 94.336 59.2278 94.336C59.8998 94.336 60.5718 94.396 61.2438 94.516C61.9158 94.612 62.3838 94.684 62.6478 94.732C62.7198 94.228 62.7558 93.796 62.7558 93.436C62.7558 92.524 62.5278 91.852 62.0718 91.42C61.6158 90.988 60.7638 90.772 59.5158 90.772C58.3638 90.772 57.2358 90.916 56.1318 91.204C55.0518 91.468 54.0918 91.804 53.2518 92.212L51.9198 88.396ZM58.5078 102.256C59.6358 102.256 60.5358 101.992 61.2078 101.464C61.8798 100.936 62.3718 100.384 62.6838 99.808V97.648C62.5638 97.6 62.3718 97.552 62.1078 97.504C61.8678 97.456 61.5918 97.408 61.2798 97.36C60.9918 97.312 60.6918 97.276 60.3798 97.252C60.0918 97.228 59.8278 97.216 59.5878 97.216C58.2918 97.216 57.3318 97.456 56.7078 97.936C56.0838 98.392 55.7718 98.968 55.7718 99.664C55.7718 100.528 56.0118 101.176 56.4918 101.608C56.9958 102.04 57.6678 102.256 58.5078 102.256Z" fill="white"/>
<path d="M98.4487 87.028C98.4487 88.228 98.2087 89.44 97.7287 90.664C97.2487 91.888 96.6367 93.088 95.8927 94.264C95.1727 95.416 94.3567 96.544 93.4447 97.648C92.5567 98.752 91.6807 99.772 90.8167 100.708L88.7647 102.184V102.364L91.5367 101.788H98.9887V106H82.5367V103.48C83.1607 102.856 83.8567 102.16 84.6247 101.392C85.4167 100.6 86.2087 99.76 87.0007 98.872C87.7927 97.984 88.5607 97.072 89.3047 96.136C90.0727 95.176 90.7447 94.228 91.3207 93.292C91.8967 92.356 92.3647 91.444 92.7247 90.556C93.0847 89.644 93.2647 88.804 93.2647 88.036C93.2647 87.124 92.9887 86.356 92.4367 85.732C91.8847 85.084 90.9367 84.76 89.5927 84.76C88.7527 84.76 87.9007 84.94 87.0367 85.3C86.1727 85.636 85.4287 86.08 84.8047 86.632L82.7167 83.032C83.7487 82.264 84.9007 81.616 86.1727 81.088C87.4447 80.56 88.9687 80.296 90.7447 80.296C91.8487 80.296 92.8687 80.44 93.8047 80.728C94.7647 81.016 95.5807 81.436 96.2527 81.988C96.9487 82.54 97.4887 83.248 97.8727 84.112C98.2567 84.952 98.4487 85.924 98.4487 87.028Z" fill="white"/>
<path d="M122.742 99.052H118.458V106H113.742V99.052H101.898V96.244L114.282 80.62H118.458V95.128H122.742V99.052ZM113.742 89.944L114.03 87.028H113.886L112.59 89.476L108.594 94.12L106.578 95.452L109.098 95.128H113.742V89.944Z" fill="white"/>
<path d="M138.677 87.1V90.808C138.677 91.72 138.713 92.5 138.785 93.148C138.881 93.772 139.037 94.288 139.253 94.696C139.469 95.104 139.781 95.404 140.189 95.596C140.597 95.764 141.125 95.848 141.773 95.848C142.565 95.848 143.273 95.752 143.897 95.56C144.521 95.344 145.037 95.092 145.445 94.804V87.1H150.485V106H145.445V98.296C145.181 98.464 144.881 98.656 144.545 98.872C144.209 99.064 143.813 99.256 143.357 99.448C142.901 99.616 142.385 99.76 141.809 99.88C141.233 100 140.597 100.06 139.901 100.06C138.917 100.06 138.029 99.964 137.237 99.772C136.469 99.556 135.809 99.196 135.257 98.692C134.729 98.164 134.321 97.48 134.033 96.64C133.769 95.776 133.637 94.696 133.637 93.4V87.1H138.677Z" fill="white"/>
<path d="M155.49 88.396C156.57 87.916 157.89 87.52 159.45 87.208C161.034 86.896 162.666 86.74 164.346 86.74C165.666 86.74 166.77 86.896 167.658 87.208C168.57 87.52 169.29 87.976 169.818 88.576C170.346 89.152 170.718 89.86 170.934 90.7C171.174 91.516 171.294 92.428 171.294 93.436C171.294 94.66 171.246 95.872 171.15 97.072C171.054 98.272 171.006 99.544 171.006 100.888C171.006 101.8 171.066 102.688 171.186 103.552C171.306 104.416 171.498 105.244 171.762 106.036H167.658L166.83 103.228H166.398C165.774 104.068 164.982 104.788 164.022 105.388C163.062 105.988 161.826 106.288 160.314 106.288C159.402 106.288 158.562 106.156 157.794 105.892C157.05 105.628 156.402 105.256 155.85 104.776C155.322 104.272 154.902 103.684 154.59 103.012C154.302 102.34 154.158 101.608 154.158 100.816C154.158 98.68 154.866 97.072 156.282 95.992C157.722 94.888 159.894 94.336 162.798 94.336C163.47 94.336 164.142 94.396 164.814 94.516C165.486 94.612 165.954 94.684 166.218 94.732C166.29 94.228 166.326 93.796 166.326 93.436C166.326 92.524 166.098 91.852 165.642 91.42C165.186 90.988 164.334 90.772 163.086 90.772C161.934 90.772 160.806 90.916 159.702 91.204C158.622 91.468 157.662 91.804 156.822 92.212L155.49 88.396ZM162.078 102.256C163.206 102.256 164.106 101.992 164.778 101.464C165.45 100.936 165.942 100.384 166.254 99.808V97.648C166.134 97.6 165.942 97.552 165.678 97.504C165.438 97.456 165.162 97.408 164.85 97.36C164.562 97.312 164.262 97.276 163.95 97.252C163.662 97.228 163.398 97.216 163.158 97.216C161.862 97.216 160.902 97.456 160.278 97.936C159.654 98.392 159.342 98.968 159.342 99.664C159.342 100.528 159.582 101.176 160.062 101.608C160.566 102.04 161.238 102.256 162.078 102.256Z" fill="white"/>
<path d="M190.774 104.848C189.958 105.4 188.974 105.82 187.822 106.108C186.694 106.396 185.518 106.54 184.294 106.54C182.662 106.54 181.282 106.3 180.154 105.82C179.05 105.34 178.138 104.656 177.418 103.768C176.722 102.88 176.218 101.836 175.906 100.636C175.594 99.412 175.438 98.056 175.438 96.568C175.438 93.424 176.206 90.976 177.742 89.224C179.302 87.448 181.558 86.56 184.51 86.56C185.95 86.56 187.126 86.68 188.038 86.92C188.974 87.136 189.802 87.424 190.522 87.784L189.298 91.816C188.674 91.552 188.05 91.36 187.426 91.24C186.826 91.096 186.118 91.024 185.302 91.024C183.79 91.024 182.626 91.468 181.81 92.356C181.018 93.22 180.622 94.624 180.622 96.568C180.622 97.336 180.718 98.056 180.91 98.728C181.102 99.376 181.402 99.952 181.81 100.456C182.218 100.96 182.734 101.356 183.358 101.644C183.982 101.932 184.714 102.076 185.554 102.076C186.562 102.076 187.354 101.992 187.93 101.824C188.53 101.632 189.094 101.38 189.622 101.068L190.774 104.848Z" fill="white"/>
<path d="M194.338 88.396C195.418 87.916 196.738 87.52 198.298 87.208C199.882 86.896 201.514 86.74 203.194 86.74C204.514 86.74 205.618 86.896 206.506 87.208C207.418 87.52 208.138 87.976 208.666 88.576C209.194 89.152 209.566 89.86 209.782 90.7C210.022 91.516 210.142 92.428 210.142 93.436C210.142 94.66 210.094 95.872 209.998 97.072C209.902 98.272 209.854 99.544 209.854 100.888C209.854 101.8 209.914 102.688 210.034 103.552C210.154 104.416 210.346 105.244 210.61 106.036H206.506L205.678 103.228H205.246C204.622 104.068 203.83 104.788 202.87 105.388C201.91 105.988 200.674 106.288 199.162 106.288C198.25 106.288 197.41 106.156 196.642 105.892C195.898 105.628 195.25 105.256 194.698 104.776C194.17 104.272 193.75 103.684 193.438 103.012C193.15 102.34 193.006 101.608 193.006 100.816C193.006 98.68 193.714 97.072 195.13 95.992C196.57 94.888 198.742 94.336 201.646 94.336C202.318 94.336 202.99 94.396 203.662 94.516C204.334 94.612 204.802 94.684 205.066 94.732C205.138 94.228 205.174 93.796 205.174 93.436C205.174 92.524 204.946 91.852 204.49 91.42C204.034 90.988 203.182 90.772 201.934 90.772C200.782 90.772 199.654 90.916 198.55 91.204C197.47 91.468 196.51 91.804 195.67 92.212L194.338 88.396ZM200.926 102.256C202.054 102.256 202.954 101.992 203.626 101.464C204.298 100.936 204.79 100.384 205.102 99.808V97.648C204.982 97.6 204.79 97.552 204.526 97.504C204.286 97.456 204.01 97.408 203.698 97.36C203.41 97.312 203.11 97.276 202.798 97.252C202.51 97.228 202.246 97.216 202.006 97.216C200.71 97.216 199.75 97.456 199.126 97.936C198.502 98.392 198.19 98.968 198.19 99.664C198.19 100.528 198.43 101.176 198.91 101.608C199.414 102.04 200.086 102.256 200.926 102.256Z" fill="white"/>
<path d="M24 132L228 132" stroke="white" stroke-width="2"/>
<path d="M109 233.5H179C182.314 233.5 185 230.814 185 227.5V211.5M109 233.5H73C69.6863 233.5 67 230.814 67 227.5V210.208C67 207.936 68.284 205.858 70.3167 204.842L78 201M109 233.5V211.5M109 181.5V176C109 170.477 113.477 166 119 166H175C180.523 166 185 170.477 185 176V211.5M109 181.5H92.9272C90.8034 181.5 88.8379 182.623 87.759 184.452L78 201M109 181.5V201M78 201H109M109 201V211.5M109 211.5H185" stroke="white" stroke-width="6"/>
<path d="M103.5 236C103.5 244.008 97.0081 250.5 89 250.5C80.9919 250.5 74.5 244.008 74.5 236C74.5 227.992 80.9919 221.5 89 221.5C97.0081 221.5 103.5 227.992 103.5 236Z" fill="#62BB46"/>
<path fill-rule="evenodd" clip-rule="evenodd" d="M89 244.5C93.6944 244.5 97.5 240.694 97.5 236C97.5 231.306 93.6944 227.5 89 227.5C84.3056 227.5 80.5 231.306 80.5 236C80.5 240.694 84.3056 244.5 89 244.5ZM89 250.5C97.0081 250.5 103.5 244.008 103.5 236C103.5 227.992 97.0081 221.5 89 221.5C80.9919 221.5 74.5 227.992 74.5 236C74.5 244.008 80.9919 250.5 89 250.5Z" fill="white"/>
<path d="M178.5 236C178.5 244.008 172.008 250.5 164 250.5C155.992 250.5 149.5 244.008 149.5 236C149.5 227.992 155.992 221.5 164 221.5C172.008 221.5 178.5 227.992 178.5 236Z" fill="#62BB46"/>
<path fill-rule="evenodd" clip-rule="evenodd" d="M164 244.5C168.694 244.5 172.5 240.694 172.5 236C172.5 231.306 168.694 227.5 164 227.5C159.306 227.5 155.5 231.306 155.5 236C155.5 240.694 159.306 244.5 164 244.5ZM164 250.5C172.008 250.5 178.5 244.008 178.5 236C178.5 227.992 172.008 221.5 164 221.5C155.992 221.5 149.5 227.992 149.5 236C149.5 244.008 155.992 250.5 164 250.5Z" fill="white"/>
</svg>
