<svg viewBox="0 0 80 56" xmlns="http://www.w3.org/2000/svg">
  <g fill="#62BB46">
    <polygon points="76.82,9.79 76.82,51.74 65.78,51.74 65.78,15.47 69.73,15.47 58.69,9.94 58.69,4.26 65.78,4.26" />
    <polygon points="47.48,15.47 11.05,15.47 0,10.03 0,4.26 36.43,4.26 47.48,9.79" />
    <polygon points="11.06,15.47 11.06,22.4 36.43,22.4 47.48,27.92 47.48,33.6 11.22,33.6 0,28.08 0,15.47" />
    <polygon points="47.48,46.06 47.48,51.74 11.05,51.74 0,46.22 0,33.6 11.22,33.6 11.22,40.53 36.43,40.53" />
  </g>
</svg>
