<svg width="344" height="138" viewBox="0 0 344 138" fill="none" xmlns="http://www.w3.org/2000/svg">
<path d="M97.55 101.396L97.61 100.626H97.57L97.09 101.416L93.5 106.026H92.89V99.0261H93.89V103.686L93.8 104.446H93.85L94.35 103.656L97.93 99.0261H98.55V106.026H97.55V101.396ZM100.921 103.696V102.996H101.691C101.838 102.996 101.978 102.976 102.111 102.936C102.251 102.896 102.375 102.843 102.481 102.776C102.588 102.703 102.671 102.619 102.731 102.526C102.798 102.426 102.831 102.319 102.831 102.206C102.831 101.926 102.728 101.733 102.521 101.626C102.315 101.519 102.001 101.466 101.581 101.466C101.288 101.466 101.018 101.499 100.771 101.566C100.531 101.626 100.335 101.689 100.181 101.756L99.9314 101.056C100.365 100.809 101.015 100.686 101.881 100.686C102.508 100.686 102.981 100.796 103.301 101.016C103.621 101.236 103.781 101.556 103.781 101.976C103.781 102.089 103.758 102.206 103.711 102.326C103.671 102.446 103.608 102.563 103.521 102.676C103.435 102.783 103.328 102.883 103.201 102.976C103.081 103.063 102.941 103.129 102.781 103.176V103.286C103.235 103.366 103.551 103.516 103.731 103.736C103.911 103.949 104.001 104.229 104.001 104.576C104.001 104.796 103.951 105.003 103.851 105.196C103.751 105.383 103.601 105.546 103.401 105.686C103.201 105.826 102.948 105.936 102.641 106.016C102.341 106.096 101.991 106.136 101.591 106.136C101.198 106.136 100.871 106.109 100.611 106.056C100.358 106.003 100.128 105.926 99.9214 105.826L100.161 105.096C100.341 105.189 100.558 105.256 100.811 105.296C101.065 105.336 101.341 105.356 101.641 105.356C102.561 105.356 103.021 105.066 103.021 104.486C103.021 104.226 102.911 104.029 102.691 103.896C102.471 103.763 102.088 103.696 101.541 103.696H100.921ZM108.858 101.556H106.398V106.026H105.478V100.776H108.858V101.556ZM109.299 103.406C109.299 102.973 109.356 102.586 109.469 102.246C109.583 101.899 109.749 101.606 109.969 101.366C110.189 101.126 110.456 100.943 110.769 100.816C111.089 100.689 111.453 100.626 111.859 100.626C112.286 100.626 112.659 100.696 112.979 100.836C113.299 100.976 113.566 101.173 113.779 101.426C113.993 101.673 114.149 101.966 114.249 102.306C114.356 102.639 114.409 103.006 114.409 103.406C114.409 103.833 114.349 104.216 114.229 104.556C114.116 104.896 113.949 105.186 113.729 105.426C113.516 105.666 113.249 105.849 112.929 105.976C112.616 106.103 112.259 106.166 111.859 106.166C111.419 106.166 111.039 106.096 110.719 105.956C110.399 105.816 110.133 105.623 109.919 105.376C109.713 105.129 109.556 104.839 109.449 104.506C109.349 104.166 109.299 103.799 109.299 103.406ZM110.279 103.406C110.279 103.653 110.306 103.896 110.359 104.136C110.419 104.369 110.513 104.579 110.639 104.766C110.766 104.953 110.929 105.103 111.129 105.216C111.329 105.329 111.576 105.386 111.869 105.386C112.909 105.386 113.429 104.726 113.429 103.406C113.429 103.146 113.399 102.896 113.339 102.656C113.286 102.416 113.196 102.206 113.069 102.026C112.949 101.839 112.789 101.689 112.589 101.576C112.389 101.463 112.149 101.406 111.869 101.406C111.349 101.406 110.953 101.573 110.679 101.906C110.413 102.233 110.279 102.733 110.279 103.406ZM119.412 101.556H117.592V106.026H116.672V101.556H114.852V100.776H119.412V101.556ZM119.856 103.406C119.856 102.973 119.913 102.586 120.026 102.246C120.139 101.899 120.306 101.606 120.526 101.366C120.746 101.126 121.013 100.943 121.326 100.816C121.646 100.689 122.009 100.626 122.416 100.626C122.843 100.626 123.216 100.696 123.536 100.836C123.856 100.976 124.123 101.173 124.336 101.426C124.549 101.673 124.706 101.966 124.806 102.306C124.913 102.639 124.966 103.006 124.966 103.406C124.966 103.833 124.906 104.216 124.786 104.556C124.673 104.896 124.506 105.186 124.286 105.426C124.073 105.666 123.806 105.849 123.486 105.976C123.173 106.103 122.816 106.166 122.416 106.166C121.976 106.166 121.596 106.096 121.276 105.956C120.956 105.816 120.689 105.623 120.476 105.376C120.269 105.129 120.113 104.839 120.006 104.506C119.906 104.166 119.856 103.799 119.856 103.406ZM120.836 103.406C120.836 103.653 120.863 103.896 120.916 104.136C120.976 104.369 121.069 104.579 121.196 104.766C121.323 104.953 121.486 105.103 121.686 105.216C121.886 105.329 122.133 105.386 122.426 105.386C123.466 105.386 123.986 104.726 123.986 103.406C123.986 103.146 123.956 102.896 123.896 102.656C123.843 102.416 123.753 102.206 123.626 102.026C123.506 101.839 123.346 101.689 123.146 101.576C122.946 101.463 122.706 101.406 122.426 101.406C121.906 101.406 121.509 101.573 121.236 101.906C120.969 102.233 120.836 102.733 120.836 103.406ZM126.444 100.776L126.824 100.756C127.038 100.743 127.271 100.729 127.524 100.716C127.778 100.696 128.071 100.686 128.404 100.686C129.178 100.686 129.731 100.796 130.064 101.016C130.404 101.229 130.574 101.549 130.574 101.976C130.574 102.209 130.491 102.446 130.324 102.686C130.164 102.919 129.908 103.089 129.554 103.196V103.306C129.994 103.393 130.308 103.539 130.494 103.746C130.688 103.953 130.784 104.226 130.784 104.566C130.784 105.093 130.568 105.483 130.134 105.736C129.701 105.983 129.048 106.106 128.174 106.106C127.881 106.106 127.604 106.096 127.344 106.076C127.084 106.063 126.831 106.046 126.584 106.026C126.558 106.026 126.534 106.026 126.514 106.026C126.494 106.019 126.471 106.016 126.444 106.016V100.776ZM127.364 105.306C127.511 105.326 127.654 105.343 127.794 105.356C127.934 105.363 128.108 105.366 128.314 105.366C128.841 105.366 129.221 105.299 129.454 105.166C129.688 105.026 129.804 104.799 129.804 104.486C129.804 104.359 129.781 104.243 129.734 104.136C129.688 104.029 129.611 103.939 129.504 103.866C129.398 103.793 129.251 103.736 129.064 103.696C128.884 103.649 128.661 103.626 128.394 103.626H127.364V105.306ZM128.504 102.996C128.651 102.996 128.791 102.976 128.924 102.936C129.058 102.896 129.178 102.839 129.284 102.766C129.391 102.693 129.474 102.609 129.534 102.516C129.601 102.416 129.634 102.309 129.634 102.196C129.634 101.916 129.538 101.723 129.344 101.616C129.158 101.503 128.834 101.446 128.374 101.446C128.221 101.446 128.064 101.453 127.904 101.466C127.751 101.473 127.571 101.479 127.364 101.486V102.996H128.504ZM135.895 103.026L136.035 101.986H135.925L135.435 102.966L132.975 106.026H132.265V100.776H133.185V103.876L133.115 104.796H133.225L133.685 103.906L136.095 100.776H136.815V106.026H135.895V103.026ZM143.433 103.056L143.493 101.986H143.373L142.923 102.806L141.573 104.796H141.263L139.843 102.806L139.443 101.986H139.333L139.423 103.046V106.026H138.573V100.776H139.533L141.103 103.086L141.483 103.816L141.903 103.066L143.373 100.776H144.333V106.026H143.433V103.056ZM96.51 116.026L96.65 114.986H96.54L96.05 115.966L93.59 119.026H92.88V113.776H93.8V116.876L93.73 117.796H93.84L94.3 116.906L96.71 113.776H97.43V119.026H96.51V116.026ZM105.599 114.556H103.019V119.026H102.099V113.776H106.519V119.026H105.599V114.556ZM108.28 113.776H108.9L109.08 114.446H109.17C109.35 114.186 109.584 113.986 109.87 113.846C110.157 113.699 110.48 113.626 110.84 113.626C111.6 113.626 112.167 113.839 112.54 114.266C112.914 114.686 113.1 115.359 113.1 116.286C113.1 116.726 113.037 117.126 112.91 117.486C112.79 117.839 112.614 118.143 112.38 118.396C112.154 118.643 111.874 118.833 111.54 118.966C111.214 119.099 110.847 119.166 110.44 119.166C110.307 119.166 110.184 119.159 110.07 119.146C109.964 119.139 109.864 119.123 109.77 119.096C109.677 119.076 109.584 119.053 109.49 119.026C109.397 118.993 109.3 118.956 109.2 118.916V121.026H108.28V113.776ZM110.63 114.406C110.23 114.406 109.917 114.506 109.69 114.706C109.464 114.906 109.3 115.213 109.2 115.626V118.046C109.354 118.153 109.52 118.236 109.7 118.296C109.88 118.356 110.11 118.386 110.39 118.386C110.93 118.386 111.354 118.209 111.66 117.856C111.967 117.503 112.12 116.976 112.12 116.276C112.12 115.709 112.007 115.256 111.78 114.916C111.554 114.576 111.17 114.406 110.63 114.406ZM118.209 116.026L118.349 114.986H118.239L117.749 115.966L115.289 119.026H114.579V113.776H115.499V116.876L115.429 117.796H115.539L115.999 116.906L118.409 113.776H119.129V119.026H118.209V116.026ZM120.888 113.776L121.268 113.756C121.481 113.743 121.714 113.729 121.968 113.716C122.221 113.696 122.514 113.686 122.848 113.686C123.621 113.686 124.174 113.796 124.508 114.016C124.848 114.229 125.018 114.549 125.018 114.976C125.018 115.209 124.934 115.446 124.768 115.686C124.608 115.919 124.351 116.089 123.998 116.196V116.306C124.438 116.393 124.751 116.539 124.938 116.746C125.131 116.953 125.228 117.226 125.228 117.566C125.228 118.093 125.011 118.483 124.578 118.736C124.144 118.983 123.491 119.106 122.618 119.106C122.324 119.106 122.048 119.096 121.788 119.076C121.528 119.063 121.274 119.046 121.028 119.026C121.001 119.026 120.978 119.026 120.958 119.026C120.938 119.019 120.914 119.016 120.888 119.016V113.776ZM121.808 118.306C121.954 118.326 122.098 118.343 122.238 118.356C122.378 118.363 122.551 118.366 122.758 118.366C123.284 118.366 123.664 118.299 123.898 118.166C124.131 118.026 124.248 117.799 124.248 117.486C124.248 117.359 124.224 117.243 124.178 117.136C124.131 117.029 124.054 116.939 123.948 116.866C123.841 116.793 123.694 116.736 123.508 116.696C123.328 116.649 123.104 116.626 122.838 116.626H121.808V118.306ZM122.948 115.996C123.094 115.996 123.234 115.976 123.368 115.936C123.501 115.896 123.621 115.839 123.728 115.766C123.834 115.693 123.918 115.609 123.978 115.516C124.044 115.416 124.078 115.309 124.078 115.196C124.078 114.916 123.981 114.723 123.788 114.616C123.601 114.503 123.278 114.446 122.818 114.446C122.664 114.446 122.508 114.453 122.348 114.466C122.194 114.473 122.014 114.479 121.808 114.486V115.996H122.948ZM130.978 118.596C130.745 118.769 130.455 118.909 130.108 119.016C129.761 119.116 129.385 119.166 128.978 119.166C128.538 119.166 128.155 119.103 127.828 118.976C127.508 118.843 127.245 118.656 127.038 118.416C126.831 118.176 126.678 117.886 126.578 117.546C126.478 117.206 126.428 116.826 126.428 116.406C126.428 115.506 126.648 114.819 127.088 114.346C127.535 113.866 128.168 113.626 128.988 113.626C129.248 113.626 129.508 113.656 129.768 113.716C130.028 113.769 130.261 113.876 130.468 114.036C130.675 114.189 130.841 114.403 130.968 114.676C131.101 114.949 131.168 115.306 131.168 115.746C131.168 115.853 131.165 115.976 131.158 116.116C131.151 116.256 131.138 116.393 131.118 116.526H127.368C127.381 117.139 127.528 117.603 127.808 117.916C128.088 118.229 128.565 118.386 129.238 118.386C129.518 118.386 129.785 118.339 130.038 118.246C130.291 118.146 130.488 118.029 130.628 117.896L130.978 118.596ZM130.288 115.866C130.301 115.333 130.191 114.956 129.958 114.736C129.731 114.516 129.411 114.406 128.998 114.406C128.531 114.406 128.161 114.516 127.888 114.736C127.615 114.956 127.455 115.333 127.408 115.866H130.288ZM133.285 116.696V115.996H134.055C134.201 115.996 134.341 115.976 134.475 115.936C134.615 115.896 134.738 115.843 134.845 115.776C134.951 115.703 135.035 115.619 135.095 115.526C135.161 115.426 135.195 115.319 135.195 115.206C135.195 114.926 135.091 114.733 134.885 114.626C134.678 114.519 134.365 114.466 133.945 114.466C133.651 114.466 133.381 114.499 133.135 114.566C132.895 114.626 132.698 114.689 132.545 114.756L132.295 114.056C132.728 113.809 133.378 113.686 134.245 113.686C134.871 113.686 135.345 113.796 135.665 114.016C135.985 114.236 136.145 114.556 136.145 114.976C136.145 115.089 136.121 115.206 136.075 115.326C136.035 115.446 135.971 115.563 135.885 115.676C135.798 115.783 135.691 115.883 135.565 115.976C135.445 116.063 135.305 116.129 135.145 116.176V116.286C135.598 116.366 135.915 116.516 136.095 116.736C136.275 116.949 136.365 117.229 136.365 117.576C136.365 117.796 136.315 118.003 136.215 118.196C136.115 118.383 135.965 118.546 135.765 118.686C135.565 118.826 135.311 118.936 135.005 119.016C134.705 119.096 134.355 119.136 133.955 119.136C133.561 119.136 133.235 119.109 132.975 119.056C132.721 119.003 132.491 118.926 132.285 118.826L132.525 118.096C132.705 118.189 132.921 118.256 133.175 118.296C133.428 118.336 133.705 118.356 134.005 118.356C134.925 118.356 135.385 118.066 135.385 117.486C135.385 117.226 135.275 117.029 135.055 116.896C134.835 116.763 134.451 116.696 133.905 116.696H133.285ZM142.111 118.596C141.878 118.769 141.588 118.909 141.241 119.016C140.894 119.116 140.518 119.166 140.111 119.166C139.671 119.166 139.288 119.103 138.961 118.976C138.641 118.843 138.378 118.656 138.171 118.416C137.964 118.176 137.811 117.886 137.711 117.546C137.611 117.206 137.561 116.826 137.561 116.406C137.561 115.506 137.781 114.819 138.221 114.346C138.668 113.866 139.301 113.626 140.121 113.626C140.381 113.626 140.641 113.656 140.901 113.716C141.161 113.769 141.394 113.876 141.601 114.036C141.808 114.189 141.974 114.403 142.101 114.676C142.234 114.949 142.301 115.306 142.301 115.746C142.301 115.853 142.298 115.976 142.291 116.116C142.284 116.256 142.271 116.393 142.251 116.526H138.501C138.514 117.139 138.661 117.603 138.941 117.916C139.221 118.229 139.698 118.386 140.371 118.386C140.651 118.386 140.918 118.339 141.171 118.246C141.424 118.146 141.621 118.029 141.761 117.896L142.111 118.596ZM141.421 115.866C141.434 115.333 141.324 114.956 141.091 114.736C140.864 114.516 140.544 114.406 140.131 114.406C139.664 114.406 139.294 114.516 139.021 114.736C138.748 114.956 138.588 115.333 138.541 115.866H141.421ZM148.678 116.056L148.738 114.986H148.618L148.168 115.806L146.818 117.796H146.508L145.088 115.806L144.688 114.986H144.578L144.668 116.046V119.026H143.818V113.776H144.778L146.348 116.086L146.728 116.816L147.148 116.066L148.618 113.776H149.578V119.026H148.678V116.056ZM93.25 129.846V128.906H93.9C94.2 128.906 94.4367 128.859 94.61 128.766C94.7833 128.666 94.87 128.533 94.87 128.366C94.87 128.173 94.7933 128.039 94.64 127.966C94.4867 127.886 94.2467 127.846 93.92 127.846C93.6333 127.846 93.37 127.883 93.13 127.956C92.8967 128.023 92.7033 128.093 92.55 128.166C92.4967 127.986 92.45 127.816 92.41 127.656C92.3767 127.489 92.3333 127.316 92.28 127.136C92.5 127.003 92.7967 126.893 93.17 126.806C93.5433 126.719 93.94 126.676 94.36 126.676C95.0067 126.676 95.4867 126.789 95.8 127.016C96.12 127.236 96.28 127.556 96.28 127.976C96.28 128.096 96.26 128.216 96.22 128.336C96.1867 128.456 96.1333 128.573 96.06 128.686C95.9867 128.793 95.8933 128.893 95.78 128.986C95.6667 129.073 95.5333 129.143 95.38 129.196V129.276C95.7933 129.363 96.0833 129.513 96.25 129.726C96.4167 129.933 96.5 130.213 96.5 130.566C96.5 130.786 96.45 130.993 96.35 131.186C96.2567 131.373 96.11 131.539 95.91 131.686C95.71 131.833 95.4567 131.946 95.15 132.026C94.85 132.113 94.4933 132.156 94.08 132.156C93.68 132.156 93.3233 132.113 93.01 132.026C92.6967 131.939 92.44 131.843 92.24 131.736C92.2867 131.556 92.3367 131.376 92.39 131.196C92.4433 131.016 92.4967 130.836 92.55 130.656C92.73 130.749 92.9467 130.829 93.2 130.896C93.46 130.956 93.74 130.986 94.04 130.986C94.7467 130.986 95.1 130.783 95.1 130.376C95.1 130.283 95.0767 130.203 95.03 130.136C94.99 130.069 94.92 130.016 94.82 129.976C94.72 129.929 94.5833 129.896 94.41 129.876C94.2433 129.856 94.03 129.846 93.77 129.846H93.25ZM97.5333 127.136C97.8333 127.003 98.1999 126.893 98.6333 126.806C99.0733 126.719 99.5266 126.676 99.9933 126.676C100.36 126.676 100.667 126.719 100.913 126.806C101.167 126.893 101.367 127.019 101.513 127.186C101.66 127.346 101.763 127.543 101.823 127.776C101.89 128.003 101.923 128.256 101.923 128.536C101.923 128.876 101.91 129.213 101.883 129.546C101.857 129.879 101.843 130.233 101.843 130.606C101.843 130.859 101.86 131.106 101.893 131.346C101.927 131.586 101.98 131.816 102.053 132.036H100.913L100.683 131.256H100.563C100.39 131.489 100.17 131.689 99.9033 131.856C99.6366 132.023 99.2933 132.106 98.8733 132.106C98.6199 132.106 98.3866 132.069 98.1733 131.996C97.9666 131.923 97.7866 131.819 97.6333 131.686C97.4866 131.546 97.3699 131.383 97.2833 131.196C97.2033 131.009 97.1633 130.806 97.1633 130.586C97.1633 129.993 97.3599 129.546 97.7533 129.246C98.1533 128.939 98.7566 128.786 99.5633 128.786C99.7499 128.786 99.9366 128.803 100.123 128.836C100.31 128.863 100.44 128.883 100.513 128.896C100.533 128.756 100.543 128.636 100.543 128.536C100.543 128.283 100.48 128.096 100.353 127.976C100.227 127.856 99.9899 127.796 99.6433 127.796C99.3233 127.796 99.0099 127.836 98.7033 127.916C98.4033 127.989 98.1366 128.083 97.9033 128.196L97.5333 127.136ZM99.3633 130.986C99.6766 130.986 99.9266 130.913 100.113 130.766C100.3 130.619 100.437 130.466 100.523 130.306V129.706C100.49 129.693 100.437 129.679 100.363 129.666C100.297 129.653 100.22 129.639 100.133 129.626C100.053 129.613 99.9699 129.603 99.8833 129.596C99.8033 129.589 99.7299 129.586 99.6633 129.586C99.3033 129.586 99.0366 129.653 98.8633 129.786C98.6899 129.913 98.6033 130.073 98.6033 130.266C98.6033 130.506 98.6699 130.686 98.8033 130.806C98.9433 130.926 99.1299 130.986 99.3633 130.986ZM106.524 130.856H108.024V127.006L108.194 126.316L107.674 126.916L106.694 127.556L106.134 126.736L108.584 124.906H109.374V130.856H110.844V132.026H106.524V130.856ZM111.773 128.516C111.773 127.323 111.999 126.419 112.453 125.806C112.913 125.193 113.569 124.886 114.423 124.886C115.336 124.886 116.006 125.189 116.433 125.796C116.866 126.396 117.083 127.303 117.083 128.516C117.083 129.703 116.853 130.609 116.393 131.236C115.933 131.856 115.276 132.166 114.423 132.166C113.969 132.166 113.576 132.083 113.243 131.916C112.909 131.743 112.633 131.499 112.413 131.186C112.199 130.866 112.039 130.483 111.933 130.036C111.826 129.583 111.773 129.076 111.773 128.516ZM113.213 128.516C113.213 129.283 113.306 129.889 113.493 130.336C113.679 130.776 113.989 130.996 114.423 130.996C114.863 130.996 115.176 130.796 115.363 130.396C115.549 129.996 115.643 129.369 115.643 128.516C115.643 128.136 115.619 127.796 115.573 127.496C115.533 127.189 115.466 126.929 115.373 126.716C115.279 126.503 115.153 126.339 114.993 126.226C114.839 126.113 114.649 126.056 114.423 126.056C113.989 126.056 113.679 126.266 113.493 126.686C113.306 127.099 113.213 127.709 113.213 128.516ZM126.455 133.216H125.475L125.295 132.026H121.315L121.125 133.216H120.145V130.786H120.805C120.865 130.706 120.945 130.573 121.045 130.386C121.151 130.199 121.251 129.946 121.345 129.626C121.445 129.306 121.528 128.913 121.595 128.446C121.668 127.973 121.708 127.416 121.715 126.776H125.615V130.786H126.455V133.216ZM124.215 130.856V127.946H122.905C122.891 128.206 122.865 128.476 122.825 128.756C122.785 129.036 122.735 129.306 122.675 129.566C122.615 129.826 122.545 130.069 122.465 130.296C122.385 130.523 122.298 130.709 122.205 130.856H124.215ZM130.768 129.996H128.778V132.026H127.378V126.776H128.778V128.726H130.768V126.776H132.168V132.026H130.768V129.996ZM138.099 131.546C137.872 131.719 137.562 131.869 137.169 131.996C136.782 132.116 136.365 132.176 135.919 132.176C135.019 132.176 134.359 131.929 133.939 131.436C133.519 130.943 133.309 130.266 133.309 129.406C133.309 128.493 133.545 127.803 134.019 127.336C134.492 126.863 135.159 126.626 136.019 126.626C136.299 126.626 136.575 126.663 136.849 126.736C137.122 126.803 137.365 126.919 137.579 127.086C137.792 127.246 137.962 127.466 138.089 127.746C138.222 128.019 138.289 128.359 138.289 128.766C138.289 128.906 138.279 129.059 138.259 129.226C138.245 129.393 138.219 129.566 138.179 129.746H134.679C134.712 130.199 134.842 130.536 135.069 130.756C135.302 130.969 135.679 131.076 136.199 131.076C136.512 131.076 136.792 131.033 137.039 130.946C137.292 130.853 137.485 130.759 137.619 130.666L138.099 131.546ZM135.999 127.726C135.585 127.726 135.279 127.839 135.079 128.066C134.879 128.286 134.762 128.569 134.729 128.916H136.989C137.015 128.549 136.949 128.259 136.789 128.046C136.629 127.833 136.365 127.726 135.999 127.726ZM143.026 129.656L143.086 128.766L142.456 129.646L140.386 132.026H139.546V126.776H140.946V129.246L140.896 129.966H141.016C141.096 129.853 141.176 129.733 141.256 129.606C141.343 129.479 141.426 129.359 141.506 129.246L143.586 126.776H144.426V132.026H143.026V129.656ZM141.346 124.606C141.4 124.886 141.493 125.076 141.626 125.176C141.76 125.276 141.933 125.326 142.146 125.326C142.366 125.326 142.54 125.276 142.666 125.176C142.8 125.069 142.893 124.883 142.946 124.616L143.986 124.886C143.9 125.326 143.683 125.656 143.336 125.876C142.99 126.096 142.576 126.206 142.096 126.206C141.863 126.206 141.64 126.183 141.426 126.136C141.22 126.089 141.03 126.013 140.856 125.906C140.683 125.799 140.533 125.663 140.406 125.496C140.286 125.329 140.203 125.126 140.156 124.886L141.346 124.606ZM146.585 124.786L146.865 125.226L147.055 125.816L147.265 125.236L147.535 124.786L148.075 125.086L147.785 125.556L147.285 126.046L148.025 125.906H148.555V126.536H148.045L147.355 126.396L147.855 126.896L148.105 127.306L147.575 127.616L147.295 127.166L147.045 126.536L146.855 127.136L146.585 127.586L146.015 127.276L146.315 126.826L146.775 126.396L146.145 126.536H145.595V125.906H146.145L146.825 126.046L146.325 125.576L146.035 125.096L146.585 124.786Z" fill="black"/>
<path d="M61.8525 107.333C61.3772 107.333 60.9915 107.717 60.9915 108.192C60.9915 108.667 61.3772 109.052 61.8525 109.052C62.3288 109.052 62.7136 108.667 62.7136 108.192C62.7136 107.717 62.3288 107.333 61.8525 107.333Z" fill="#62BB46"/>
<path d="M46.2075 122.947C45.7312 122.947 45.3464 123.332 45.3464 123.807C45.3464 124.282 45.7312 124.666 46.2075 124.666C46.6828 124.666 47.0685 124.282 47.0685 123.807C47.0685 123.332 46.6828 122.947 46.2075 122.947Z" fill="#62BB46"/>
<path d="M69.0149 99.2869C68.7242 99.2194 68.4188 99.3071 68.209 99.5186L64.6393 103.109H62.9279L61.044 101.161V99.4296L64.5626 95.8655C64.7708 95.6547 64.8555 95.3516 64.7866 95.0632C64.718 94.7752 64.5054 94.5429 64.2242 94.4482C63.3403 94.1508 62.4153 94.0001 61.4745 94.0001C58.6701 94.0001 56.1222 95.3053 54.4842 97.5809C52.9511 99.7112 52.4785 102.322 53.1556 104.82L46.813 111.151L36.2462 100.58V98.5058C36.2462 98.204 36.0875 97.924 35.8282 97.7689L29.7399 94.1226C29.4008 93.9195 28.9673 93.9729 28.6881 94.2519L26.2529 96.6819C25.9738 96.9609 25.9203 97.3936 26.1234 97.732L29.7762 103.808C29.9316 104.067 30.2118 104.225 30.5142 104.226L32.5921 104.226L43.1599 114.797L36.8416 121.103C34.3381 120.427 31.721 120.9 29.5855 122.431C27.3067 124.064 26 126.607 26 129.406C26 130.344 26.151 131.268 26.449 132.15C26.5442 132.432 26.7793 132.645 27.0699 132.712C27.3609 132.78 27.6659 132.692 27.8762 132.481L31.4455 128.89H33.1663L35.1269 130.847V132.564L31.5293 136.127C31.3174 136.336 31.2296 136.641 31.2972 136.931C31.3645 137.221 31.578 137.456 31.8609 137.551C32.7445 137.848 33.6698 137.999 34.6102 137.999C37.4147 137.999 39.9616 136.695 41.5989 134.42C43.133 132.289 43.6063 129.677 42.9295 127.179L48.004 122.114L49.1665 123.374L48.633 123.906C48.2967 124.242 48.2967 124.786 48.633 125.122C48.9694 125.457 49.5143 125.457 49.8509 125.122L50.3339 124.64L61.2404 136.464C61.2485 136.472 61.2569 136.481 61.2653 136.489C63.2834 138.503 66.5531 138.504 68.5722 136.489C70.5856 134.478 70.5856 131.207 68.5722 129.197C68.5635 129.188 68.5544 129.179 68.5453 129.171L56.6799 118.307L57.1575 117.83C57.4938 117.495 57.4938 116.95 57.1575 116.615C56.8211 116.279 56.2763 116.279 55.9396 116.615L55.4098 117.144L54.1448 115.985L59.2439 110.896C59.9687 111.089 60.7168 111.187 61.4745 111.187C66.2225 111.187 70.0848 107.332 70.0848 102.594C70.0848 101.655 69.9338 100.732 69.6358 99.8495C69.5406 99.5672 69.3055 99.3541 69.0149 99.2869ZM33.5588 102.76C33.3974 102.599 33.1784 102.516 32.9497 102.516L31.0022 102.516L27.9461 97.4232L29.4304 95.9417L34.5241 98.9925V100.936C34.5241 101.164 34.6146 101.382 34.7757 101.543L45.5954 112.366L44.3775 113.581L33.5588 102.76ZM55.4609 119.523L67.3667 130.424C68.6967 131.766 68.6926 133.938 67.3543 135.274C66.0129 136.613 63.8414 136.617 62.4947 135.286L51.5525 123.423L55.4609 119.523ZM54.1909 118.36L50.3851 122.158L49.2226 120.898L52.9259 117.201L54.1909 118.36ZM61.4745 109.469C60.7215 109.469 59.9808 109.348 59.2738 109.11C58.964 109.007 58.6216 109.086 58.3902 109.317C54.0735 113.625 44.7721 122.908 41.347 126.327C41.1156 126.558 41.0352 126.9 41.1398 127.209C41.8556 129.331 41.5132 131.593 40.2 133.418C38.8906 135.237 36.853 136.28 34.6102 136.28C34.3583 136.28 34.1077 136.267 33.8595 136.24L36.5944 133.532C36.7572 133.371 36.849 133.151 36.849 132.922V130.491C36.849 130.263 36.7582 130.044 36.5967 129.883L34.1316 127.423C33.9702 127.262 33.7512 127.171 33.5228 127.171H31.087C30.8572 127.171 30.6373 127.263 30.4755 127.425L27.7621 130.155C27.7352 129.907 27.7218 129.657 27.7218 129.405C27.7218 127.167 28.7672 125.133 30.5902 123.826C32.4179 122.516 34.6852 122.174 36.811 122.889C37.1208 122.993 37.4632 122.913 37.6946 122.682C37.742 122.635 54.7257 105.684 54.7378 105.672C54.9692 105.441 55.0492 105.099 54.945 104.79C54.2289 102.669 54.5706 100.407 55.8827 98.5836C57.1931 96.7628 59.2311 95.7188 61.4742 95.7188C61.7339 95.7188 61.9919 95.7333 62.2475 95.7615L59.5695 98.4742C59.4107 98.635 59.3219 98.8515 59.3219 99.0771V101.508C59.3219 101.731 59.4083 101.945 59.5634 102.105L61.9424 104.565C62.1045 104.733 62.3282 104.828 62.562 104.828H64.9978C65.2272 104.828 65.4472 104.737 65.609 104.574L68.3223 101.845C68.3492 102.092 68.3627 102.342 68.3627 102.594C68.3627 106.384 65.2726 109.469 61.4745 109.469Z" fill="#62BB46"/>
<path d="M58.8085 110.015L48.0335 120.769C47.6975 121.104 47.6975 121.649 48.0335 121.984C48.3699 122.32 48.9151 122.32 49.2514 121.984L60.0264 111.23C60.3628 110.895 60.3628 110.351 60.0264 110.015C59.6901 109.679 59.1448 109.679 58.8085 110.015Z" fill="#62BB46"/>
<path d="M69.6894 132.844C70.0258 133.179 70.571 133.179 70.9074 132.842C71.243 132.506 71.242 131.962 70.9053 131.627L63.1441 123.905C62.8074 123.57 62.2618 123.571 61.9265 123.907C61.5905 124.244 61.5915 124.788 61.9282 125.123L69.6894 132.844Z" fill="#62BB46"/>
<path d="M99.08 43.4906H98.39L98.22 42.2106H92.9L92.74 43.4906H92.05V41.3306H92.83C92.89 41.2572 92.98 41.0906 93.1 40.8306C93.2267 40.5639 93.35 40.1872 93.47 39.7006C93.5967 39.2072 93.7033 38.5906 93.79 37.8506C93.8767 37.1106 93.9167 36.2306 93.91 35.2106H98.08V41.3306H99.08V43.4906ZM97.08 41.3306V36.0906H94.83C94.8033 36.7972 94.76 37.4306 94.7 37.9906C94.6467 38.5439 94.5767 39.0339 94.49 39.4606C94.41 39.8872 94.3167 40.2539 94.21 40.5606C94.11 40.8672 94.0033 41.1239 93.89 41.3306H97.08ZM99.7289 39.5906C99.7289 39.1572 99.7856 38.7706 99.8989 38.4306C100.012 38.0839 100.179 37.7906 100.399 37.5506C100.619 37.3106 100.886 37.1272 101.199 37.0006C101.519 36.8739 101.882 36.8106 102.289 36.8106C102.716 36.8106 103.089 36.8806 103.409 37.0206C103.729 37.1606 103.996 37.3572 104.209 37.6106C104.422 37.8572 104.579 38.1506 104.679 38.4906C104.786 38.8239 104.839 39.1906 104.839 39.5906C104.839 40.0172 104.779 40.4006 104.659 40.7406C104.546 41.0806 104.379 41.3706 104.159 41.6106C103.946 41.8506 103.679 42.0339 103.359 42.1606C103.046 42.2872 102.689 42.3506 102.289 42.3506C101.849 42.3506 101.469 42.2806 101.149 42.1406C100.829 42.0006 100.562 41.8072 100.349 41.5606C100.142 41.3139 99.9856 41.0239 99.8789 40.6906C99.7789 40.3506 99.7289 39.9839 99.7289 39.5906ZM100.709 39.5906C100.709 39.8372 100.736 40.0806 100.789 40.3206C100.849 40.5539 100.942 40.7639 101.069 40.9506C101.196 41.1372 101.359 41.2872 101.559 41.4006C101.759 41.5139 102.006 41.5706 102.299 41.5706C103.339 41.5706 103.859 40.9106 103.859 39.5906C103.859 39.3306 103.829 39.0806 103.769 38.8406C103.716 38.6006 103.626 38.3906 103.499 38.2106C103.379 38.0239 103.219 37.8739 103.019 37.7606C102.819 37.6472 102.579 37.5906 102.299 37.5906C101.779 37.5906 101.382 37.7572 101.109 38.0906C100.842 38.4172 100.709 38.9172 100.709 39.5906ZM110.278 41.8506C110.044 42.0172 109.771 42.1406 109.458 42.2206C109.144 42.3072 108.814 42.3506 108.468 42.3506C108.028 42.3506 107.651 42.2839 107.338 42.1506C107.031 42.0172 106.781 41.8306 106.588 41.5906C106.394 41.3506 106.254 41.0606 106.168 40.7206C106.081 40.3806 106.038 40.0039 106.038 39.5906C106.038 38.7039 106.251 38.0206 106.678 37.5406C107.111 37.0539 107.731 36.8106 108.538 36.8106C108.891 36.8106 109.198 36.8439 109.458 36.9106C109.718 36.9706 109.951 37.0472 110.158 37.1406L109.918 37.8906C109.738 37.7972 109.541 37.7239 109.328 37.6706C109.121 37.6172 108.894 37.5906 108.648 37.5906C107.561 37.5906 107.018 38.2572 107.018 39.5906C107.018 39.8439 107.048 40.0906 107.108 40.3306C107.168 40.5639 107.264 40.7739 107.398 40.9606C107.531 41.1406 107.704 41.2872 107.918 41.4006C108.138 41.5139 108.404 41.5706 108.718 41.5706C108.998 41.5706 109.241 41.5339 109.448 41.4606C109.661 41.3806 109.838 41.2872 109.978 41.1806L110.278 41.8506ZM115.134 37.7406H113.314V42.2106H112.394V37.7406H110.574V36.9606H115.134V37.7406ZM115.955 37.2906C116.555 37.0039 117.298 36.8606 118.185 36.8606C118.585 36.8606 118.905 36.9139 119.145 37.0206C119.391 37.1206 119.581 37.2506 119.715 37.4106C119.848 37.5706 119.935 37.7506 119.975 37.9506C120.021 38.1439 120.045 38.3372 120.045 38.5306C120.045 38.8972 120.031 39.2672 120.005 39.6406C119.978 40.0072 119.965 40.4072 119.965 40.8406C119.965 41.0939 119.975 41.3406 119.995 41.5806C120.021 41.8139 120.061 42.0306 120.115 42.2306H119.445L119.195 41.4306H119.095C119.021 41.5306 118.931 41.6339 118.825 41.7406C118.718 41.8406 118.591 41.9306 118.445 42.0106C118.298 42.0906 118.128 42.1572 117.935 42.2106C117.748 42.2639 117.531 42.2906 117.285 42.2906C117.038 42.2906 116.811 42.2572 116.605 42.1906C116.398 42.1172 116.218 42.0172 116.065 41.8906C115.918 41.7639 115.801 41.6106 115.715 41.4306C115.628 41.2439 115.585 41.0372 115.585 40.8106C115.585 40.5106 115.648 40.2506 115.775 40.0306C115.908 39.8106 116.078 39.6306 116.285 39.4906C116.491 39.3506 116.725 39.2472 116.985 39.1806C117.251 39.1139 117.515 39.0806 117.775 39.0806C117.981 39.0806 118.155 39.0839 118.295 39.0906C118.441 39.0972 118.561 39.1072 118.655 39.1206C118.755 39.1272 118.838 39.1372 118.905 39.1506C118.971 39.1572 119.031 39.1639 119.085 39.1706C119.098 39.0706 119.108 38.9839 119.115 38.9106C119.121 38.8372 119.125 38.7439 119.125 38.6306C119.125 38.4439 119.105 38.2872 119.065 38.1606C119.025 38.0339 118.958 37.9339 118.865 37.8606C118.778 37.7806 118.658 37.7239 118.505 37.6906C118.351 37.6572 118.165 37.6406 117.945 37.6406C117.818 37.6406 117.678 37.6506 117.525 37.6706C117.371 37.6906 117.218 37.7206 117.065 37.7606C116.911 37.7939 116.758 37.8372 116.605 37.8906C116.458 37.9439 116.325 38.0006 116.205 38.0606L115.955 37.2906ZM119.085 39.8306C119.031 39.8239 118.975 39.8139 118.915 39.8006C118.855 39.7872 118.778 39.7772 118.685 39.7706C118.598 39.7639 118.491 39.7572 118.365 39.7506C118.245 39.7439 118.095 39.7406 117.915 39.7406C117.501 39.7406 117.171 39.8139 116.925 39.9606C116.685 40.1072 116.565 40.3572 116.565 40.7106C116.565 40.9772 116.658 41.1772 116.845 41.3106C117.038 41.4439 117.285 41.5106 117.585 41.5106C117.805 41.5106 117.998 41.4839 118.165 41.4306C118.338 41.3706 118.485 41.3006 118.605 41.2206C118.731 41.1339 118.831 41.0406 118.905 40.9406C118.985 40.8339 119.045 40.7306 119.085 40.6306V39.8306ZM121.835 36.9606L122.215 36.9406C122.428 36.9272 122.662 36.9139 122.915 36.9006C123.168 36.8806 123.462 36.8706 123.795 36.8706C124.568 36.8706 125.122 36.9806 125.455 37.2006C125.795 37.4139 125.965 37.7339 125.965 38.1606C125.965 38.3939 125.882 38.6306 125.715 38.8706C125.555 39.1039 125.298 39.2739 124.945 39.3806V39.4906C125.385 39.5772 125.698 39.7239 125.885 39.9306C126.078 40.1372 126.175 40.4106 126.175 40.7506C126.175 41.2772 125.958 41.6672 125.525 41.9206C125.092 42.1672 124.438 42.2906 123.565 42.2906C123.272 42.2906 122.995 42.2806 122.735 42.2606C122.475 42.2472 122.222 42.2306 121.975 42.2106C121.948 42.2106 121.925 42.2106 121.905 42.2106C121.885 42.2039 121.862 42.2006 121.835 42.2006V36.9606ZM122.755 41.4906C122.902 41.5106 123.045 41.5272 123.185 41.5406C123.325 41.5472 123.498 41.5506 123.705 41.5506C124.232 41.5506 124.612 41.4839 124.845 41.3506C125.078 41.2106 125.195 40.9839 125.195 40.6706C125.195 40.5439 125.172 40.4272 125.125 40.3206C125.078 40.2139 125.002 40.1239 124.895 40.0506C124.788 39.9772 124.642 39.9206 124.455 39.8806C124.275 39.8339 124.052 39.8106 123.785 39.8106H122.755V41.4906ZM123.895 39.1806C124.042 39.1806 124.182 39.1606 124.315 39.1206C124.448 39.0806 124.568 39.0239 124.675 38.9506C124.782 38.8772 124.865 38.7939 124.925 38.7006C124.992 38.6006 125.025 38.4939 125.025 38.3806C125.025 38.1006 124.928 37.9072 124.735 37.8006C124.548 37.6872 124.225 37.6306 123.765 37.6306C123.612 37.6306 123.455 37.6372 123.295 37.6506C123.142 37.6572 122.962 37.6639 122.755 37.6706V39.1806H123.895ZM129.145 39.8506H128.575V42.2106H127.655V36.9606H128.575V39.3506L129.125 39.1706L130.915 36.9606H131.925L130.215 39.0006H130.225L129.685 39.3906L130.335 39.8406L132.185 42.2106H131.025L129.145 39.8506ZM133.064 37.2906C133.664 37.0039 134.407 36.8606 135.294 36.8606C135.694 36.8606 136.014 36.9139 136.254 37.0206C136.501 37.1206 136.691 37.2506 136.824 37.4106C136.957 37.5706 137.044 37.7506 137.084 37.9506C137.131 38.1439 137.154 38.3372 137.154 38.5306C137.154 38.8972 137.141 39.2672 137.114 39.6406C137.087 40.0072 137.074 40.4072 137.074 40.8406C137.074 41.0939 137.084 41.3406 137.104 41.5806C137.131 41.8139 137.171 42.0306 137.224 42.2306H136.554L136.304 41.4306H136.204C136.131 41.5306 136.041 41.6339 135.934 41.7406C135.827 41.8406 135.701 41.9306 135.554 42.0106C135.407 42.0906 135.237 42.1572 135.044 42.2106C134.857 42.2639 134.641 42.2906 134.394 42.2906C134.147 42.2906 133.921 42.2572 133.714 42.1906C133.507 42.1172 133.327 42.0172 133.174 41.8906C133.027 41.7639 132.911 41.6106 132.824 41.4306C132.737 41.2439 132.694 41.0372 132.694 40.8106C132.694 40.5106 132.757 40.2506 132.884 40.0306C133.017 39.8106 133.187 39.6306 133.394 39.4906C133.601 39.3506 133.834 39.2472 134.094 39.1806C134.361 39.1139 134.624 39.0806 134.884 39.0806C135.091 39.0806 135.264 39.0839 135.404 39.0906C135.551 39.0972 135.671 39.1072 135.764 39.1206C135.864 39.1272 135.947 39.1372 136.014 39.1506C136.081 39.1572 136.141 39.1639 136.194 39.1706C136.207 39.0706 136.217 38.9839 136.224 38.9106C136.231 38.8372 136.234 38.7439 136.234 38.6306C136.234 38.4439 136.214 38.2872 136.174 38.1606C136.134 38.0339 136.067 37.9339 135.974 37.8606C135.887 37.7806 135.767 37.7239 135.614 37.6906C135.461 37.6572 135.274 37.6406 135.054 37.6406C134.927 37.6406 134.787 37.6506 134.634 37.6706C134.481 37.6906 134.327 37.7206 134.174 37.7606C134.021 37.7939 133.867 37.8372 133.714 37.8906C133.567 37.9439 133.434 38.0006 133.314 38.0606L133.064 37.2906ZM136.194 39.8306C136.141 39.8239 136.084 39.8139 136.024 39.8006C135.964 39.7872 135.887 39.7772 135.794 39.7706C135.707 39.7639 135.601 39.7572 135.474 39.7506C135.354 39.7439 135.204 39.7406 135.024 39.7406C134.611 39.7406 134.281 39.8139 134.034 39.9606C133.794 40.1072 133.674 40.3572 133.674 40.7106C133.674 40.9772 133.767 41.1772 133.954 41.3106C134.147 41.4439 134.394 41.5106 134.694 41.5106C134.914 41.5106 135.107 41.4839 135.274 41.4306C135.447 41.3706 135.594 41.3006 135.714 41.2206C135.841 41.1339 135.941 41.0406 136.014 40.9406C136.094 40.8339 136.154 40.7306 136.194 40.6306V39.8306ZM96.05 51.2006H94.12V55.2106H92.72V49.9606H97.45V55.2106H96.05V51.2006ZM98.5919 52.5906C98.5919 51.7239 98.8219 51.0439 99.2819 50.5506C99.7419 50.0572 100.399 49.8106 101.252 49.8106C101.699 49.8106 102.089 49.8806 102.422 50.0206C102.755 50.1606 103.032 50.3572 103.252 50.6106C103.472 50.8572 103.635 51.1506 103.742 51.4906C103.855 51.8239 103.912 52.1906 103.912 52.5906C103.912 53.0172 103.852 53.4039 103.732 53.7506C103.612 54.0906 103.439 54.3806 103.212 54.6206C102.985 54.8606 102.705 55.0439 102.372 55.1706C102.045 55.2972 101.672 55.3606 101.252 55.3606C100.799 55.3606 100.405 55.2906 100.072 55.1506C99.7385 55.0106 99.4619 54.8172 99.2419 54.5706C99.0219 54.3172 98.8585 54.0239 98.7519 53.6906C98.6452 53.3506 98.5919 52.9839 98.5919 52.5906ZM100.032 52.5906C100.032 52.8106 100.055 53.0172 100.102 53.2106C100.149 53.4039 100.219 53.5739 100.312 53.7206C100.412 53.8606 100.539 53.9739 100.692 54.0606C100.845 54.1472 101.032 54.1906 101.252 54.1906C102.065 54.1906 102.472 53.6572 102.472 52.5906C102.472 52.3572 102.449 52.1439 102.402 51.9506C102.362 51.7506 102.292 51.5806 102.192 51.4406C102.099 51.2939 101.972 51.1806 101.812 51.1006C101.659 51.0206 101.472 50.9806 101.252 50.9806C100.872 50.9806 100.572 51.1072 100.352 51.3606C100.139 51.6139 100.032 52.0239 100.032 52.5906ZM107.818 49.9606C108.091 49.9406 108.411 49.9206 108.778 49.9006C109.144 49.8806 109.548 49.8706 109.988 49.8706C110.814 49.8706 111.401 49.9806 111.748 50.2006C112.094 50.4206 112.268 50.7472 112.268 51.1806C112.268 51.4272 112.191 51.6639 112.038 51.8906C111.884 52.1172 111.644 52.2872 111.318 52.4006V52.4806C111.731 52.5672 112.031 52.7172 112.218 52.9306C112.411 53.1372 112.508 53.4072 112.508 53.7406C112.508 54.2606 112.288 54.6506 111.848 54.9106C111.408 55.1706 110.708 55.3006 109.748 55.3006C109.434 55.3006 109.101 55.2906 108.748 55.2706C108.401 55.2572 108.091 55.2372 107.818 55.2106V49.9606ZM109.188 54.1406C109.321 54.1672 109.434 54.1839 109.528 54.1906C109.628 54.1972 109.744 54.2006 109.878 54.2006C110.331 54.2006 110.644 54.1472 110.818 54.0406C110.998 53.9272 111.088 53.7672 111.088 53.5606C111.088 53.3739 111.011 53.2239 110.858 53.1106C110.704 52.9906 110.424 52.9306 110.018 52.9306H109.188V54.1406ZM110.038 52.1006C110.304 52.1006 110.521 52.0506 110.688 51.9506C110.854 51.8439 110.938 51.7072 110.938 51.5406C110.938 51.3606 110.864 51.2206 110.718 51.1206C110.578 51.0206 110.321 50.9706 109.948 50.9706C109.814 50.9706 109.704 50.9739 109.618 50.9806C109.531 50.9872 109.451 50.9939 109.378 51.0006C109.351 51.0006 109.318 51.0039 109.278 51.0106C109.238 51.0106 109.208 51.0106 109.188 51.0106V52.1006H110.038ZM117.549 54.8906C117.322 55.0439 117.049 55.1606 116.729 55.2406C116.416 55.3206 116.089 55.3606 115.749 55.3606C115.296 55.3606 114.912 55.2939 114.599 55.1606C114.292 55.0272 114.039 54.8372 113.839 54.5906C113.646 54.3439 113.506 54.0539 113.419 53.7206C113.332 53.3806 113.289 53.0039 113.289 52.5906C113.289 51.7172 113.502 51.0372 113.929 50.5506C114.362 50.0572 114.989 49.8106 115.809 49.8106C116.209 49.8106 116.536 49.8439 116.789 49.9106C117.049 49.9706 117.279 50.0506 117.479 50.1506L117.139 51.2706C116.966 51.1972 116.792 51.1439 116.619 51.1106C116.452 51.0706 116.256 51.0506 116.029 51.0506C115.609 51.0506 115.286 51.1739 115.059 51.4206C114.839 51.6606 114.729 52.0506 114.729 52.5906C114.729 52.8039 114.756 53.0039 114.809 53.1906C114.862 53.3706 114.946 53.5306 115.059 53.6706C115.172 53.8106 115.316 53.9206 115.489 54.0006C115.662 54.0806 115.866 54.1206 116.099 54.1206C116.379 54.1206 116.599 54.0972 116.759 54.0506C116.926 53.9972 117.082 53.9272 117.229 53.8406L117.549 54.8906ZM122.884 54.7306C122.657 54.9039 122.347 55.0539 121.954 55.1806C121.567 55.3006 121.15 55.3606 120.704 55.3606C119.804 55.3606 119.144 55.1139 118.724 54.6206C118.304 54.1272 118.094 53.4506 118.094 52.5906C118.094 51.6772 118.33 50.9872 118.804 50.5206C119.277 50.0472 119.944 49.8106 120.804 49.8106C121.084 49.8106 121.36 49.8472 121.634 49.9206C121.907 49.9872 122.15 50.1039 122.364 50.2706C122.577 50.4306 122.747 50.6506 122.874 50.9306C123.007 51.2039 123.074 51.5439 123.074 51.9506C123.074 52.0906 123.064 52.2439 123.044 52.4106C123.03 52.5772 123.004 52.7506 122.964 52.9306H119.464C119.497 53.3839 119.627 53.7206 119.854 53.9406C120.087 54.1539 120.464 54.2606 120.984 54.2606C121.297 54.2606 121.577 54.2172 121.824 54.1306C122.077 54.0372 122.27 53.9439 122.404 53.8506L122.884 54.7306ZM120.784 50.9106C120.37 50.9106 120.064 51.0239 119.864 51.2506C119.664 51.4706 119.547 51.7539 119.514 52.1006H121.774C121.8 51.7339 121.734 51.4439 121.574 51.2306C121.414 51.0172 121.15 50.9106 120.784 50.9106ZM127.811 52.8406L127.871 51.9506L127.241 52.8306L125.171 55.2106H124.331V49.9606H125.731V52.4306L125.681 53.1506H125.801C125.881 53.0372 125.961 52.9172 126.041 52.7906C126.128 52.6639 126.211 52.5439 126.291 52.4306L128.371 49.9606H129.211V55.2106H127.811V52.8406ZM126.131 47.7906C126.185 48.0706 126.278 48.2606 126.411 48.3606C126.545 48.4606 126.718 48.5106 126.931 48.5106C127.151 48.5106 127.325 48.4606 127.451 48.3606C127.585 48.2539 127.678 48.0672 127.731 47.8006L128.771 48.0706C128.685 48.5106 128.468 48.8406 128.121 49.0606C127.775 49.2806 127.361 49.3906 126.881 49.3906C126.648 49.3906 126.425 49.3672 126.211 49.3206C126.005 49.2739 125.815 49.1972 125.641 49.0906C125.468 48.9839 125.318 48.8472 125.191 48.6806C125.071 48.5139 124.988 48.3106 124.941 48.0706L126.131 47.7906ZM133.343 48.2806C133.643 48.2272 133.977 48.1872 134.343 48.1606C134.71 48.1272 135.077 48.1106 135.443 48.1106C135.817 48.1106 136.193 48.1406 136.573 48.2006C136.953 48.2539 137.293 48.3672 137.593 48.5406C137.9 48.7072 138.15 48.9439 138.343 49.2506C138.537 49.5506 138.633 49.9506 138.633 50.4506C138.633 50.8906 138.55 51.2672 138.383 51.5806C138.217 51.8872 137.993 52.1372 137.713 52.3306C137.44 52.5239 137.127 52.6672 136.773 52.7606C136.42 52.8472 136.057 52.8906 135.683 52.8906C135.65 52.8906 135.593 52.8906 135.513 52.8906C135.433 52.8906 135.347 52.8906 135.253 52.8906C135.167 52.8839 135.083 52.8772 135.003 52.8706C134.923 52.8639 134.863 52.8572 134.823 52.8506V55.2106H133.343V48.2806ZM135.543 49.4106C135.403 49.4106 135.267 49.4139 135.133 49.4206C135.007 49.4272 134.903 49.4406 134.823 49.4606V51.5406C134.85 51.5472 134.893 51.5539 134.953 51.5606C135.013 51.5672 135.077 51.5739 135.143 51.5806C135.21 51.5806 135.27 51.5839 135.323 51.5906C135.383 51.5906 135.43 51.5906 135.463 51.5906C135.657 51.5906 135.85 51.5772 136.043 51.5506C136.237 51.5239 136.407 51.4672 136.553 51.3806C136.707 51.2939 136.83 51.1772 136.923 51.0306C137.017 50.8772 137.063 50.6739 137.063 50.4206C137.063 50.2072 137.02 50.0372 136.933 49.9106C136.847 49.7772 136.73 49.6739 136.583 49.6006C136.443 49.5272 136.28 49.4772 136.093 49.4506C135.913 49.4239 135.73 49.4106 135.543 49.4106ZM138.924 52.5906C138.924 51.7239 139.154 51.0439 139.614 50.5506C140.074 50.0572 140.731 49.8106 141.584 49.8106C142.031 49.8106 142.421 49.8806 142.754 50.0206C143.087 50.1606 143.364 50.3572 143.584 50.6106C143.804 50.8572 143.967 51.1506 144.074 51.4906C144.187 51.8239 144.244 52.1906 144.244 52.5906C144.244 53.0172 144.184 53.4039 144.064 53.7506C143.944 54.0906 143.771 54.3806 143.544 54.6206C143.317 54.8606 143.037 55.0439 142.704 55.1706C142.377 55.2972 142.004 55.3606 141.584 55.3606C141.131 55.3606 140.737 55.2906 140.404 55.1506C140.071 55.0106 139.794 54.8172 139.574 54.5706C139.354 54.3172 139.191 54.0239 139.084 53.6906C138.977 53.3506 138.924 52.9839 138.924 52.5906ZM140.364 52.5906C140.364 52.8106 140.387 53.0172 140.434 53.2106C140.481 53.4039 140.551 53.5739 140.644 53.7206C140.744 53.8606 140.871 53.9739 141.024 54.0606C141.177 54.1472 141.364 54.1906 141.584 54.1906C142.397 54.1906 142.804 53.6572 142.804 52.5906C142.804 52.3572 142.781 52.1439 142.734 51.9506C142.694 51.7506 142.624 51.5806 142.524 51.4406C142.431 51.2939 142.304 51.1806 142.144 51.1006C141.991 51.0206 141.804 50.9806 141.584 50.9806C141.204 50.9806 140.904 51.1072 140.684 51.3606C140.471 51.6139 140.364 52.0239 140.364 52.5906ZM149.346 54.8906C149.119 55.0439 148.846 55.1606 148.526 55.2406C148.213 55.3206 147.886 55.3606 147.546 55.3606C147.093 55.3606 146.709 55.2939 146.396 55.1606C146.089 55.0272 145.836 54.8372 145.636 54.5906C145.443 54.3439 145.303 54.0539 145.216 53.7206C145.129 53.3806 145.086 53.0039 145.086 52.5906C145.086 51.7172 145.299 51.0372 145.726 50.5506C146.159 50.0572 146.786 49.8106 147.606 49.8106C148.006 49.8106 148.333 49.8439 148.586 49.9106C148.846 49.9706 149.076 50.0506 149.276 50.1506L148.936 51.2706C148.763 51.1972 148.589 51.1439 148.416 51.1106C148.249 51.0706 148.053 51.0506 147.826 51.0506C147.406 51.0506 147.083 51.1739 146.856 51.4206C146.636 51.6606 146.526 52.0506 146.526 52.5906C146.526 52.8039 146.553 53.0039 146.606 53.1906C146.659 53.3706 146.743 53.5306 146.856 53.6706C146.969 53.8106 147.113 53.9206 147.286 54.0006C147.459 54.0806 147.663 54.1206 147.896 54.1206C148.176 54.1206 148.396 54.0972 148.556 54.0506C148.723 53.9972 148.879 53.9272 149.026 53.8406L149.346 54.8906ZM154.151 54.8906C153.924 55.0439 153.651 55.1606 153.331 55.2406C153.017 55.3206 152.691 55.3606 152.351 55.3606C151.897 55.3606 151.514 55.2939 151.201 55.1606C150.894 55.0272 150.641 54.8372 150.441 54.5906C150.247 54.3439 150.107 54.0539 150.021 53.7206C149.934 53.3806 149.891 53.0039 149.891 52.5906C149.891 51.7172 150.104 51.0372 150.531 50.5506C150.964 50.0572 151.591 49.8106 152.411 49.8106C152.811 49.8106 153.137 49.8439 153.391 49.9106C153.651 49.9706 153.881 50.0506 154.081 50.1506L153.741 51.2706C153.567 51.1972 153.394 51.1439 153.221 51.1106C153.054 51.0706 152.857 51.0506 152.631 51.0506C152.211 51.0506 151.887 51.1739 151.661 51.4206C151.441 51.6606 151.331 52.0506 151.331 52.5906C151.331 52.8039 151.357 53.0039 151.411 53.1906C151.464 53.3706 151.547 53.5306 151.661 53.6706C151.774 53.8106 151.917 53.9206 152.091 54.0006C152.264 54.0806 152.467 54.1206 152.701 54.1206C152.981 54.1206 153.201 54.0972 153.361 54.0506C153.527 53.9972 153.684 53.9272 153.831 53.8406L154.151 54.8906ZM158.671 52.8406L158.731 51.9506L158.101 52.8306L156.031 55.2106H155.191V49.9606H156.591V52.4306L156.541 53.1506H156.661C156.741 53.0372 156.821 52.9172 156.901 52.7906C156.987 52.6639 157.071 52.5439 157.151 52.4306L159.231 49.9606H160.071V55.2106H158.671V52.8406ZM164.989 52.8406L165.049 51.9506L164.419 52.8306L162.349 55.2106H161.509V49.9606H162.909V52.4306L162.859 53.1506H162.979C163.059 53.0372 163.139 52.9172 163.219 52.7906C163.306 52.6639 163.389 52.5439 163.469 52.4306L165.549 49.9606H166.389V55.2106H164.989V52.8406Z" fill="black"/>
<path d="M78.7739 43.4235L71.3728 32.3278C70.8196 31.4903 69.888 30.9902 68.8811 30.9902H61.7302L62.4714 24.3274C62.565 23.4835 62.2919 22.6352 61.7241 22C61.1553 21.3645 60.3406 21 59.4909 21H26.5521C25.0175 21 23.7365 22.1478 23.5716 23.6654L23.3219 25.8835C23.2605 26.4318 23.6546 26.9264 24.2029 26.9879C24.7561 27.0522 25.2458 26.6547 25.3083 26.1069L25.558 23.8849C25.6127 23.3791 26.04 22.9981 26.5522 22.9981H59.4909C59.7777 22.9981 60.0421 23.1172 60.2353 23.3327C60.4275 23.5479 60.5172 23.823 60.485 24.1068L56.9289 56.0776C56.8742 56.5752 56.4421 56.9649 55.9445 56.9649H55.9396H37.8913C37.4134 54.1345 34.9517 51.9697 31.9874 51.9697C29.0231 51.9697 26.5614 54.1345 26.0835 56.9649H22.996C22.7092 56.9649 22.4448 56.8464 22.2516 56.6308C22.0585 56.4151 21.9697 56.14 22.0009 55.8561L23.5296 42.0896C23.5901 41.5414 23.195 41.0472 22.6466 40.9867C22.112 40.9262 21.6037 41.3208 21.5432 41.8692L20.0146 55.6367C19.9219 56.4812 20.1951 57.3294 20.7639 57.964C21.3326 58.5991 22.1463 58.963 22.9961 58.963H26.0835C26.5614 61.7934 29.0231 63.9582 31.9874 63.9582C34.9517 63.9582 37.4134 61.7934 37.8913 58.963H55.9396H55.9445H61.0494C61.5273 61.7934 63.989 63.9582 66.9533 63.9582C69.9176 63.9582 72.3793 61.7934 72.8572 58.963H75.9445C77.5973 58.963 78.9416 57.6187 78.9416 55.9659V43.9776C78.9416 43.7805 78.8831 43.5874 78.7739 43.4235ZM31.9872 61.9601C29.7833 61.9601 27.9912 60.1675 27.9912 57.964C27.9912 55.7606 29.7833 53.9679 31.9872 53.9679C34.1912 53.9679 35.9833 55.7607 35.9833 57.964C35.9833 60.1673 34.1912 61.9601 31.9872 61.9601ZM66.9533 61.9601C64.7494 61.9601 62.9572 60.1675 62.9572 57.964C62.9572 55.7606 64.7494 53.9679 66.9533 53.9679C69.1572 53.9679 70.9494 55.7607 70.9494 57.964C70.9494 60.1673 69.1572 61.9601 66.9533 61.9601ZM76.9435 55.9659C76.9435 56.5166 76.4957 56.9649 75.9445 56.9649H72.8572C72.3793 54.1345 69.9176 51.9697 66.9533 51.9697C63.989 51.9697 61.5273 54.1345 61.0494 56.9649H58.7545C58.8297 56.7514 58.8897 56.5303 58.9152 56.2962L61.508 32.9882H62.9572V44.9766C62.9572 45.4737 63.3231 45.8951 63.8148 45.9654L76.9437 47.8409L76.9435 55.9659ZM76.9435 45.8229L64.9552 44.1102V32.9882H68.881C69.2147 32.9882 69.524 33.1531 69.7084 33.4326L76.9435 44.28V45.8229Z" fill="#62BB46"/>
<path d="M19.999 29.9911H36.9825C37.5348 29.9911 37.9815 29.5438 37.9815 28.9922C37.9815 28.4404 37.5346 27.9932 36.9825 27.9932H19.999C19.4469 27.9932 19 28.4404 19 28.9922C19 29.5439 19.4469 29.9911 19.999 29.9911Z" fill="#62BB46"/>
<path d="M19.999 34.9864H27.9913C28.5435 34.9864 28.9902 34.539 28.9902 33.9874C28.9902 33.4357 28.5434 32.9884 27.9913 32.9884H19.999C19.4468 32.9884 19 33.4357 19 33.9874C19 34.539 19.4469 34.9864 19.999 34.9864Z" fill="#62BB46"/>
<path d="M33.9854 39.9815C34.5377 39.9815 34.9844 39.5342 34.9844 38.9825C34.9844 38.4309 34.5377 37.9834 33.9854 37.9834H19.999C19.4469 37.9834 19 38.4307 19 38.9824C19 39.534 19.4469 39.9814 19.999 39.9814H33.9854V39.9815Z" fill="#62BB46"/>
<path d="M240.865 41.8606C240.645 42.014 240.355 42.124 239.995 42.1906C239.635 42.264 239.265 42.3006 238.885 42.3006C238.439 42.3006 238.009 42.234 237.595 42.1006C237.189 41.9673 236.825 41.754 236.505 41.4606C236.192 41.1673 235.942 40.7906 235.755 40.3306C235.569 39.8706 235.475 39.314 235.475 38.6606C235.475 37.9806 235.582 37.4106 235.795 36.9506C236.009 36.484 236.282 36.1106 236.615 35.8306C236.949 35.544 237.319 35.3373 237.725 35.2106C238.132 35.084 238.532 35.0206 238.925 35.0206C239.359 35.0206 239.722 35.0473 240.015 35.1006C240.315 35.154 240.562 35.2173 240.755 35.2906L240.465 36.5306C240.299 36.4573 240.102 36.404 239.875 36.3706C239.655 36.3373 239.375 36.3206 239.035 36.3206C238.735 36.3206 238.462 36.3706 238.215 36.4706C237.975 36.564 237.769 36.7073 237.595 36.9006C237.422 37.094 237.285 37.3373 237.185 37.6306C237.092 37.924 237.045 38.2673 237.045 38.6606C237.045 39.0073 237.089 39.324 237.175 39.6106C237.262 39.8973 237.392 40.144 237.565 40.3506C237.739 40.5573 237.959 40.7173 238.225 40.8306C238.492 40.944 238.802 41.0006 239.155 41.0006C239.482 41.0006 239.755 40.9706 239.975 40.9106C240.202 40.8506 240.402 40.774 240.575 40.6806L240.865 41.8606ZM245.969 41.6806C245.742 41.854 245.432 42.004 245.039 42.1306C244.652 42.2506 244.235 42.3106 243.789 42.3106C242.889 42.3106 242.229 42.064 241.809 41.5706C241.389 41.0773 241.179 40.4006 241.179 39.5406C241.179 38.6273 241.415 37.9373 241.889 37.4706C242.362 36.9973 243.029 36.7606 243.889 36.7606C244.169 36.7606 244.445 36.7973 244.719 36.8706C244.992 36.9373 245.235 37.054 245.449 37.2206C245.662 37.3806 245.832 37.6006 245.959 37.8806C246.092 38.154 246.159 38.494 246.159 38.9006C246.159 39.0406 246.149 39.194 246.129 39.3606C246.115 39.5273 246.089 39.7006 246.049 39.8806H242.549C242.582 40.334 242.712 40.6706 242.939 40.8906C243.172 41.104 243.549 41.2106 244.069 41.2106C244.382 41.2106 244.662 41.1673 244.909 41.0806C245.162 40.9873 245.355 40.894 245.489 40.8006L245.969 41.6806ZM243.869 37.8606C243.455 37.8606 243.149 37.974 242.949 38.2006C242.749 38.4206 242.632 38.704 242.599 39.0506H244.859C244.885 38.684 244.819 38.394 244.659 38.1806C244.499 37.9673 244.235 37.8606 243.869 37.8606ZM247.416 36.9106H248.416L248.586 37.5606H248.706C248.913 37.294 249.153 37.094 249.426 36.9606C249.7 36.8273 250.02 36.7606 250.386 36.7606C251.093 36.7606 251.623 36.974 251.976 37.4006C252.33 37.8206 252.506 38.4906 252.506 39.4106C252.506 39.8506 252.45 40.2506 252.336 40.6106C252.223 40.964 252.056 41.2706 251.836 41.5306C251.616 41.784 251.343 41.9806 251.016 42.1206C250.696 42.254 250.326 42.3206 249.906 42.3206C249.68 42.3206 249.483 42.2973 249.316 42.2506C249.15 42.2106 248.983 42.154 248.816 42.0806V44.1506H247.416V36.9106ZM249.956 37.9306C249.636 37.9306 249.39 38.004 249.216 38.1506C249.043 38.2906 248.91 38.5106 248.816 38.8106V40.8506C248.93 40.944 249.056 41.0173 249.196 41.0706C249.336 41.124 249.513 41.1506 249.726 41.1506C250.18 41.1506 250.516 41.0106 250.736 40.7306C250.956 40.444 251.066 39.9906 251.066 39.3706C251.066 38.924 250.98 38.574 250.806 38.3206C250.64 38.0606 250.356 37.9306 249.956 37.9306ZM257.639 38.1506H256.009V42.1606H254.549V38.1506H252.919V36.9106H257.639V38.1506ZM261.922 39.7906L261.982 38.9006L261.352 39.7806L259.282 42.1606H258.442V36.9106H259.842V39.3806L259.792 40.1006H259.912C259.992 39.9873 260.072 39.8673 260.152 39.7406C260.238 39.614 260.322 39.494 260.402 39.3806L262.482 36.9106H263.322V42.1606H261.922V39.7906ZM267.39 42.2006C267.217 42.254 267.06 42.284 266.92 42.2906C266.78 42.304 266.653 42.3106 266.54 42.3106C265.847 42.3106 265.317 42.084 264.95 41.6306C264.583 41.1706 264.4 40.474 264.4 39.5406C264.4 38.654 264.603 37.9773 265.01 37.5106C265.417 37.044 266.003 36.8106 266.77 36.8106C266.863 36.8106 266.96 36.814 267.06 36.8206C267.16 36.8273 267.27 36.8406 267.39 36.8606V35.1606H268.74V36.8706C268.913 36.844 269.057 36.8273 269.17 36.8206C269.29 36.814 269.397 36.8106 269.49 36.8106C270.237 36.8106 270.797 37.014 271.17 37.4206C271.543 37.8273 271.73 38.4973 271.73 39.4306C271.73 39.864 271.68 40.2606 271.58 40.6206C271.48 40.974 271.333 41.2773 271.14 41.5306C270.947 41.7773 270.707 41.9706 270.42 42.1106C270.133 42.244 269.803 42.3106 269.43 42.3106C269.363 42.3106 269.257 42.3006 269.11 42.2806C268.97 42.2673 268.847 42.244 268.74 42.2106V44.1606H267.39V42.2006ZM268.68 41.1706C268.767 41.1906 268.85 41.204 268.93 41.2106C269.017 41.2106 269.113 41.2106 269.22 41.2106C269.6 41.2106 269.88 41.074 270.06 40.8006C270.24 40.5206 270.33 40.064 270.33 39.4306C270.33 38.8906 270.243 38.5006 270.07 38.2606C269.897 38.0206 269.593 37.9006 269.16 37.9006C269.073 37.9006 268.993 37.9073 268.92 37.9206C268.853 37.9273 268.773 37.944 268.68 37.9706V41.1706ZM267.45 37.9606C267.337 37.934 267.247 37.9173 267.18 37.9106C267.113 37.904 267.033 37.9006 266.94 37.9006C266.567 37.9006 266.283 38.0273 266.09 38.2806C265.897 38.5273 265.8 38.9473 265.8 39.5406C265.8 40.0606 265.89 40.4706 266.07 40.7706C266.25 41.064 266.53 41.2106 266.91 41.2106C267.077 41.2106 267.257 41.1873 267.45 41.1406V37.9606ZM276.287 39.7906L276.347 38.9006L275.717 39.7806L273.647 42.1606H272.807V36.9106H274.207V39.3806L274.157 40.1006H274.277C274.357 39.9873 274.437 39.8673 274.517 39.7406C274.604 39.614 274.687 39.494 274.767 39.3806L276.847 36.9106H277.687V42.1606H276.287V39.7906ZM284.655 43.3506H283.665L283.495 42.1606H279.125V36.9106H280.525V40.9206H282.415V36.9106H283.815V40.9206H284.655V43.3506ZM289.051 39.7906L289.111 38.9006L288.481 39.7806L286.411 42.1606H285.571V36.9106H286.971V39.3806L286.921 40.1006H287.041C287.121 39.9873 287.201 39.8673 287.281 39.7406C287.367 39.614 287.451 39.494 287.531 39.3806L289.611 36.9106H290.451V42.1606H289.051V39.7906ZM291.889 36.9106H292.889L293.059 37.5606H293.179C293.386 37.294 293.626 37.094 293.899 36.9606C294.172 36.8273 294.492 36.7606 294.859 36.7606C295.566 36.7606 296.096 36.974 296.449 37.4006C296.802 37.8206 296.979 38.4906 296.979 39.4106C296.979 39.8506 296.922 40.2506 296.809 40.6106C296.696 40.964 296.529 41.2706 296.309 41.5306C296.089 41.784 295.816 41.9806 295.489 42.1206C295.169 42.254 294.799 42.3206 294.379 42.3206C294.152 42.3206 293.956 42.2973 293.789 42.2506C293.622 42.2106 293.456 42.154 293.289 42.0806V44.1506H291.889V36.9106ZM294.429 37.9306C294.109 37.9306 293.862 38.004 293.689 38.1506C293.516 38.2906 293.382 38.5106 293.289 38.8106V40.8506C293.402 40.944 293.529 41.0173 293.669 41.0706C293.809 41.124 293.986 41.1506 294.199 41.1506C294.652 41.1506 294.989 41.0106 295.209 40.7306C295.429 40.444 295.539 39.9906 295.539 39.3706C295.539 38.924 295.452 38.574 295.279 38.3206C295.112 38.0606 294.829 37.9306 294.429 37.9306ZM297.819 39.5406C297.819 38.674 298.049 37.994 298.509 37.5006C298.969 37.0073 299.626 36.7606 300.479 36.7606C300.926 36.7606 301.316 36.8306 301.649 36.9706C301.983 37.1106 302.259 37.3073 302.479 37.5606C302.699 37.8073 302.863 38.1006 302.969 38.4406C303.083 38.774 303.139 39.1406 303.139 39.5406C303.139 39.9673 303.079 40.354 302.959 40.7006C302.839 41.0406 302.666 41.3306 302.439 41.5706C302.213 41.8106 301.933 41.994 301.599 42.1206C301.273 42.2473 300.899 42.3106 300.479 42.3106C300.026 42.3106 299.633 42.2406 299.299 42.1006C298.966 41.9606 298.689 41.7673 298.469 41.5206C298.249 41.2673 298.086 40.974 297.979 40.6406C297.873 40.3006 297.819 39.934 297.819 39.5406ZM299.259 39.5406C299.259 39.7606 299.283 39.9673 299.329 40.1606C299.376 40.354 299.446 40.524 299.539 40.6706C299.639 40.8106 299.766 40.924 299.919 41.0106C300.073 41.0973 300.259 41.1406 300.479 41.1406C301.293 41.1406 301.699 40.6073 301.699 39.5406C301.699 39.3073 301.676 39.094 301.629 38.9006C301.589 38.7006 301.519 38.5306 301.419 38.3906C301.326 38.244 301.199 38.1306 301.039 38.0506C300.886 37.9706 300.699 37.9306 300.479 37.9306C300.099 37.9306 299.799 38.0573 299.579 38.3106C299.366 38.564 299.259 38.974 299.259 39.5406ZM304.282 36.9106C304.555 36.8906 304.875 36.8706 305.242 36.8506C305.608 36.8306 306.012 36.8206 306.452 36.8206C307.278 36.8206 307.865 36.9306 308.212 37.1506C308.558 37.3706 308.732 37.6973 308.732 38.1306C308.732 38.3773 308.655 38.614 308.502 38.8406C308.348 39.0673 308.108 39.2373 307.782 39.3506V39.4306C308.195 39.5173 308.495 39.6673 308.682 39.8806C308.875 40.0873 308.972 40.3573 308.972 40.6906C308.972 41.2106 308.752 41.6006 308.312 41.8606C307.872 42.1206 307.172 42.2506 306.212 42.2506C305.898 42.2506 305.565 42.2406 305.212 42.2206C304.865 42.2073 304.555 42.1873 304.282 42.1606V36.9106ZM305.652 41.0906C305.785 41.1173 305.898 41.134 305.992 41.1406C306.092 41.1473 306.208 41.1506 306.342 41.1506C306.795 41.1506 307.108 41.0973 307.282 40.9906C307.462 40.8773 307.552 40.7173 307.552 40.5106C307.552 40.324 307.475 40.174 307.322 40.0606C307.168 39.9406 306.888 39.8806 306.482 39.8806H305.652V41.0906ZM306.502 39.0506C306.768 39.0506 306.985 39.0006 307.152 38.9006C307.318 38.794 307.402 38.6573 307.402 38.4906C307.402 38.3106 307.328 38.1706 307.182 38.0706C307.042 37.9706 306.785 37.9206 306.412 37.9206C306.278 37.9206 306.168 37.924 306.082 37.9306C305.995 37.9373 305.915 37.944 305.842 37.9506C305.815 37.9506 305.782 37.954 305.742 37.9606C305.702 37.9606 305.672 37.9606 305.652 37.9606V39.0506H306.502ZM310.003 37.2706C310.303 37.1373 310.67 37.0273 311.103 36.9406C311.543 36.854 311.996 36.8106 312.463 36.8106C312.83 36.8106 313.136 36.854 313.383 36.9406C313.636 37.0273 313.836 37.154 313.983 37.3206C314.13 37.4806 314.233 37.6773 314.293 37.9106C314.36 38.1373 314.393 38.3906 314.393 38.6706C314.393 39.0106 314.38 39.3473 314.353 39.6806C314.326 40.014 314.313 40.3673 314.313 40.7406C314.313 40.994 314.33 41.2406 314.363 41.4806C314.396 41.7206 314.45 41.9506 314.523 42.1706H313.383L313.153 41.3906H313.033C312.86 41.624 312.64 41.824 312.373 41.9906C312.106 42.1573 311.763 42.2406 311.343 42.2406C311.09 42.2406 310.856 42.204 310.643 42.1306C310.436 42.0573 310.256 41.954 310.103 41.8206C309.956 41.6806 309.84 41.5173 309.753 41.3306C309.673 41.144 309.633 40.9406 309.633 40.7206C309.633 40.1273 309.83 39.6806 310.223 39.3806C310.623 39.074 311.226 38.9206 312.033 38.9206C312.22 38.9206 312.406 38.9373 312.593 38.9706C312.78 38.9973 312.91 39.0173 312.983 39.0306C313.003 38.8906 313.013 38.7706 313.013 38.6706C313.013 38.4173 312.95 38.2306 312.823 38.1106C312.696 37.9906 312.46 37.9306 312.113 37.9306C311.793 37.9306 311.48 37.9706 311.173 38.0506C310.873 38.124 310.606 38.2173 310.373 38.3306L310.003 37.2706ZM311.833 41.1206C312.146 41.1206 312.396 41.0473 312.583 40.9006C312.77 40.754 312.906 40.6006 312.993 40.4406V39.8406C312.96 39.8273 312.906 39.814 312.833 39.8006C312.766 39.7873 312.69 39.774 312.603 39.7606C312.523 39.7473 312.44 39.7373 312.353 39.7306C312.273 39.724 312.2 39.7206 312.133 39.7206C311.773 39.7206 311.506 39.7873 311.333 39.9206C311.16 40.0473 311.073 40.2073 311.073 40.4006C311.073 40.6406 311.14 40.8206 311.273 40.9406C311.413 41.0606 311.6 41.1206 311.833 41.1206ZM319.234 40.1306H317.244V42.1606H315.844V36.9106H317.244V38.8606H319.234V36.9106H320.634V42.1606H319.234V40.1306ZM325.464 40.1306H323.474V42.1606H322.074V36.9106H323.474V38.8606H325.464V36.9106H326.864V42.1606H325.464V40.1306ZM328.005 39.5406C328.005 38.674 328.235 37.994 328.695 37.5006C329.155 37.0073 329.812 36.7606 330.665 36.7606C331.112 36.7606 331.502 36.8306 331.835 36.9706C332.168 37.1106 332.445 37.3073 332.665 37.5606C332.885 37.8073 333.048 38.1006 333.155 38.4406C333.268 38.774 333.325 39.1406 333.325 39.5406C333.325 39.9673 333.265 40.354 333.145 40.7006C333.025 41.0406 332.852 41.3306 332.625 41.5706C332.398 41.8106 332.118 41.994 331.785 42.1206C331.458 42.2473 331.085 42.3106 330.665 42.3106C330.212 42.3106 329.818 42.2406 329.485 42.1006C329.152 41.9606 328.875 41.7673 328.655 41.5206C328.435 41.2673 328.272 40.974 328.165 40.6406C328.058 40.3006 328.005 39.934 328.005 39.5406ZM329.445 39.5406C329.445 39.7606 329.468 39.9673 329.515 40.1606C329.562 40.354 329.632 40.524 329.725 40.6706C329.825 40.8106 329.952 40.924 330.105 41.0106C330.258 41.0973 330.445 41.1406 330.665 41.1406C331.478 41.1406 331.885 40.6073 331.885 39.5406C331.885 39.3073 331.862 39.094 331.815 38.9006C331.775 38.7006 331.705 38.5306 331.605 38.3906C331.512 38.244 331.385 38.1306 331.225 38.0506C331.072 37.9706 330.885 37.9306 330.665 37.9306C330.285 37.9306 329.985 38.0573 329.765 38.3106C329.552 38.564 329.445 38.974 329.445 39.5406ZM338.957 41.6806C338.73 41.854 338.42 42.004 338.027 42.1306C337.64 42.2506 337.224 42.3106 336.777 42.3106C335.877 42.3106 335.217 42.064 334.797 41.5706C334.377 41.0773 334.167 40.4006 334.167 39.5406C334.167 38.6273 334.404 37.9373 334.877 37.4706C335.35 36.9973 336.017 36.7606 336.877 36.7606C337.157 36.7606 337.434 36.7973 337.707 36.8706C337.98 36.9373 338.224 37.054 338.437 37.2206C338.65 37.3806 338.82 37.6006 338.947 37.8806C339.08 38.154 339.147 38.494 339.147 38.9006C339.147 39.0406 339.137 39.194 339.117 39.3606C339.104 39.5273 339.077 39.7006 339.037 39.8806H335.537C335.57 40.334 335.7 40.6706 335.927 40.8906C336.16 41.104 336.537 41.2106 337.057 41.2106C337.37 41.2106 337.65 41.1673 337.897 41.0806C338.15 40.9873 338.344 40.894 338.477 40.8006L338.957 41.6806ZM336.857 37.8606C336.444 37.8606 336.137 37.974 335.937 38.2006C335.737 38.4206 335.62 38.704 335.587 39.0506H337.847C337.874 38.684 337.807 38.394 337.647 38.1806C337.487 37.9673 337.224 37.8606 336.857 37.8606ZM237.445 52.8006H236.875V55.1606H235.955V49.9106H236.875V52.3006L237.425 52.1206L239.215 49.9106H240.225L238.515 51.9506H238.525L237.985 52.3406L238.635 52.7906L240.485 55.1606H239.325L237.445 52.8006ZM241.364 50.2406C241.964 49.954 242.707 49.8106 243.594 49.8106C243.994 49.8106 244.314 49.864 244.554 49.9706C244.801 50.0706 244.991 50.2006 245.124 50.3606C245.257 50.5206 245.344 50.7006 245.384 50.9006C245.431 51.094 245.454 51.2873 245.454 51.4806C245.454 51.8473 245.441 52.2173 245.414 52.5906C245.387 52.9573 245.374 53.3573 245.374 53.7906C245.374 54.044 245.384 54.2906 245.404 54.5306C245.431 54.764 245.471 54.9806 245.524 55.1806H244.854L244.604 54.3806H244.504C244.431 54.4806 244.341 54.584 244.234 54.6906C244.127 54.7906 244.001 54.8806 243.854 54.9606C243.707 55.0406 243.537 55.1073 243.344 55.1606C243.157 55.214 242.941 55.2406 242.694 55.2406C242.447 55.2406 242.221 55.2073 242.014 55.1406C241.807 55.0673 241.627 54.9673 241.474 54.8406C241.327 54.714 241.211 54.5606 241.124 54.3806C241.037 54.194 240.994 53.9873 240.994 53.7606C240.994 53.4606 241.057 53.2006 241.184 52.9806C241.317 52.7606 241.487 52.5806 241.694 52.4406C241.901 52.3006 242.134 52.1973 242.394 52.1306C242.661 52.064 242.924 52.0306 243.184 52.0306C243.391 52.0306 243.564 52.034 243.704 52.0406C243.851 52.0473 243.971 52.0573 244.064 52.0706C244.164 52.0773 244.247 52.0873 244.314 52.1006C244.381 52.1073 244.441 52.114 244.494 52.1206C244.507 52.0206 244.517 51.934 244.524 51.8606C244.531 51.7873 244.534 51.694 244.534 51.5806C244.534 51.394 244.514 51.2373 244.474 51.1106C244.434 50.984 244.367 50.884 244.274 50.8106C244.187 50.7306 244.067 50.674 243.914 50.6406C243.761 50.6073 243.574 50.5906 243.354 50.5906C243.227 50.5906 243.087 50.6006 242.934 50.6206C242.781 50.6406 242.627 50.6706 242.474 50.7106C242.321 50.744 242.167 50.7873 242.014 50.8406C241.867 50.894 241.734 50.9506 241.614 51.0106L241.364 50.2406ZM244.494 52.7806C244.441 52.774 244.384 52.764 244.324 52.7506C244.264 52.7373 244.187 52.7273 244.094 52.7206C244.007 52.714 243.901 52.7073 243.774 52.7006C243.654 52.694 243.504 52.6906 243.324 52.6906C242.911 52.6906 242.581 52.764 242.334 52.9106C242.094 53.0573 241.974 53.3073 241.974 53.6606C241.974 53.9273 242.067 54.1273 242.254 54.2606C242.447 54.394 242.694 54.4606 242.994 54.4606C243.214 54.4606 243.407 54.434 243.574 54.3806C243.747 54.3206 243.894 54.2506 244.014 54.1706C244.141 54.084 244.241 53.9906 244.314 53.8906C244.394 53.784 244.454 53.6806 244.494 53.5806V52.7806ZM247.884 49.9106V51.2006C247.884 51.414 247.894 51.604 247.914 51.7706C247.941 51.9373 247.991 52.0806 248.064 52.2006C248.144 52.3206 248.251 52.414 248.384 52.4806C248.524 52.5406 248.704 52.5706 248.924 52.5706C249.264 52.5706 249.548 52.534 249.774 52.4606C250.008 52.3806 250.184 52.294 250.304 52.2006V49.9106H251.224V55.1606H250.304V52.9306C250.178 53.0106 249.984 53.1006 249.724 53.2006C249.464 53.3006 249.118 53.3506 248.684 53.3506C248.404 53.3506 248.154 53.3206 247.934 53.2606C247.721 53.2006 247.541 53.0973 247.394 52.9506C247.254 52.804 247.148 52.6106 247.074 52.3706C247.001 52.124 246.964 51.8173 246.964 51.4506V49.9106H247.884ZM257.256 54.7306C257.023 54.904 256.733 55.044 256.386 55.1506C256.04 55.2506 255.663 55.3006 255.256 55.3006C254.816 55.3006 254.433 55.2373 254.106 55.1106C253.786 54.9773 253.523 54.7906 253.316 54.5506C253.11 54.3106 252.956 54.0206 252.856 53.6806C252.756 53.3406 252.706 52.9606 252.706 52.5406C252.706 51.6406 252.926 50.954 253.366 50.4806C253.813 50.0006 254.446 49.7606 255.266 49.7606C255.526 49.7606 255.786 49.7906 256.046 49.8506C256.306 49.904 256.54 50.0106 256.746 50.1706C256.953 50.324 257.12 50.5373 257.246 50.8106C257.38 51.084 257.446 51.4406 257.446 51.8806C257.446 51.9873 257.443 52.1106 257.436 52.2506C257.43 52.3906 257.416 52.5273 257.396 52.6606H253.646C253.66 53.274 253.806 53.7373 254.086 54.0506C254.366 54.364 254.843 54.5206 255.516 54.5206C255.796 54.5206 256.063 54.474 256.316 54.3806C256.57 54.2806 256.766 54.164 256.906 54.0306L257.256 54.7306ZM256.566 52.0006C256.58 51.4673 256.47 51.0906 256.236 50.8706C256.01 50.6506 255.69 50.5406 255.276 50.5406C254.81 50.5406 254.44 50.6506 254.166 50.8706C253.893 51.0906 253.733 51.4673 253.686 52.0006H256.566ZM262.816 54.8006C262.582 54.9673 262.309 55.0906 261.996 55.1706C261.682 55.2573 261.352 55.3006 261.006 55.3006C260.566 55.3006 260.189 55.234 259.876 55.1006C259.569 54.9673 259.319 54.7806 259.126 54.5406C258.932 54.3006 258.792 54.0106 258.706 53.6706C258.619 53.3306 258.576 52.954 258.576 52.5406C258.576 51.654 258.789 50.9706 259.216 50.4906C259.649 50.004 260.269 49.7606 261.076 49.7606C261.429 49.7606 261.736 49.794 261.996 49.8606C262.256 49.9206 262.489 49.9973 262.696 50.0906L262.456 50.8406C262.276 50.7473 262.079 50.674 261.866 50.6206C261.659 50.5673 261.432 50.5406 261.186 50.5406C260.099 50.5406 259.556 51.2073 259.556 52.5406C259.556 52.794 259.586 53.0406 259.646 53.2806C259.706 53.514 259.802 53.724 259.936 53.9106C260.069 54.0906 260.242 54.2373 260.456 54.3506C260.676 54.464 260.942 54.5206 261.256 54.5206C261.536 54.5206 261.779 54.484 261.986 54.4106C262.199 54.3306 262.376 54.2373 262.516 54.1306L262.816 54.8006ZM267.672 50.6906H265.852V55.1606H264.932V50.6906H263.112V49.9106H267.672V50.6906ZM268.553 49.9106L268.933 49.8906C269.146 49.8773 269.38 49.864 269.633 49.8506C269.886 49.8306 270.18 49.8206 270.513 49.8206C271.286 49.8206 271.84 49.9306 272.173 50.1506C272.513 50.364 272.683 50.684 272.683 51.1106C272.683 51.344 272.6 51.5806 272.433 51.8206C272.273 52.054 272.016 52.224 271.663 52.3306V52.4406C272.103 52.5273 272.416 52.674 272.603 52.8806C272.796 53.0873 272.893 53.3606 272.893 53.7006C272.893 54.2273 272.676 54.6173 272.243 54.8706C271.81 55.1173 271.156 55.2406 270.283 55.2406C269.99 55.2406 269.713 55.2306 269.453 55.2106C269.193 55.1973 268.94 55.1806 268.693 55.1606C268.666 55.1606 268.643 55.1606 268.623 55.1606C268.603 55.154 268.58 55.1506 268.553 55.1506V49.9106ZM269.473 54.4406C269.62 54.4606 269.763 54.4773 269.903 54.4906C270.043 54.4973 270.216 54.5006 270.423 54.5006C270.95 54.5006 271.33 54.434 271.563 54.3006C271.796 54.1606 271.913 53.934 271.913 53.6206C271.913 53.494 271.89 53.3773 271.843 53.2706C271.796 53.164 271.72 53.074 271.613 53.0006C271.506 52.9273 271.36 52.8706 271.173 52.8306C270.993 52.784 270.77 52.7606 270.503 52.7606H269.473V54.4406ZM270.613 52.1306C270.76 52.1306 270.9 52.1106 271.033 52.0706C271.166 52.0306 271.286 51.974 271.393 51.9006C271.5 51.8273 271.583 51.744 271.643 51.6506C271.71 51.5506 271.743 51.444 271.743 51.3306C271.743 51.0506 271.646 50.8573 271.453 50.7506C271.266 50.6373 270.943 50.5806 270.483 50.5806C270.33 50.5806 270.173 50.5873 270.013 50.6006C269.86 50.6073 269.68 50.614 269.473 50.6206V52.1306H270.613ZM274.093 52.5406C274.093 52.1073 274.15 51.7206 274.263 51.3806C274.376 51.034 274.543 50.7406 274.763 50.5006C274.983 50.2606 275.25 50.0773 275.563 49.9506C275.883 49.824 276.246 49.7606 276.653 49.7606C277.08 49.7606 277.453 49.8306 277.773 49.9706C278.093 50.1106 278.36 50.3073 278.573 50.5606C278.786 50.8073 278.943 51.1006 279.043 51.4406C279.15 51.774 279.203 52.1406 279.203 52.5406C279.203 52.9673 279.143 53.3506 279.023 53.6906C278.91 54.0306 278.743 54.3206 278.523 54.5606C278.31 54.8006 278.043 54.984 277.723 55.1106C277.41 55.2373 277.053 55.3006 276.653 55.3006C276.213 55.3006 275.833 55.2306 275.513 55.0906C275.193 54.9506 274.926 54.7573 274.713 54.5106C274.506 54.264 274.35 53.974 274.243 53.6406C274.143 53.3006 274.093 52.934 274.093 52.5406ZM275.073 52.5406C275.073 52.7873 275.1 53.0306 275.153 53.2706C275.213 53.504 275.306 53.714 275.433 53.9006C275.56 54.0873 275.723 54.2373 275.923 54.3506C276.123 54.464 276.37 54.5206 276.663 54.5206C277.703 54.5206 278.223 53.8606 278.223 52.5406C278.223 52.2806 278.193 52.0306 278.133 51.7906C278.08 51.5506 277.99 51.3406 277.863 51.1606C277.743 50.974 277.583 50.824 277.383 50.7106C277.183 50.5973 276.943 50.5406 276.663 50.5406C276.143 50.5406 275.746 50.7073 275.473 51.0406C275.206 51.3673 275.073 51.8673 275.073 52.5406Z" fill="black"/>
<path d="M222.389 27H197.389C195.389 27 193.778 28.6111 193.778 30.6111V52C193.778 52.4722 194.139 52.8333 194.611 52.8333C195.083 52.8333 195.444 52.4722 195.444 52V30.6111C195.444 29.5278 196.306 28.6667 197.389 28.6667H219.333C218.972 29.2222 218.778 29.8889 218.778 30.6111V58.3889C218.778 59.4722 217.917 60.3333 216.833 60.3333C215.75 60.3333 214.889 59.4722 214.889 58.3889V55.6111C214.889 55.1389 214.528 54.7778 214.056 54.7778H191.833C191.361 54.7778 191 55.1389 191 55.6111V58.3889C191 60.3889 192.611 62 194.611 62H216.833C218.833 62 220.444 60.3889 220.444 58.3889V30.6111C220.444 29.5278 221.306 28.6667 222.389 28.6667C223.472 28.6667 224.333 29.5278 224.333 30.6111V32.5556H222.389C221.917 32.5556 221.556 32.9167 221.556 33.3889C221.556 33.8611 221.917 34.2222 222.389 34.2222H225.167C225.639 34.2222 226 33.8611 226 33.3889V30.6111C226 28.6111 224.389 27 222.389 27ZM194.611 60.3333C193.528 60.3333 192.667 59.4722 192.667 58.3889V56.4444H213.222V58.3889C213.222 59.1111 213.444 59.7778 213.778 60.3333H194.611Z" fill="#62BB46"/>
<path d="M206.556 45.4723C206.584 45.4723 206.584 45.4723 206.556 45.4723C206.834 45.4723 207.056 45.3611 207.223 45.1667L211.667 39.6111C211.945 39.25 211.889 38.7223 211.528 38.4445C211.167 38.1667 210.639 38.2223 210.361 38.5834L206.584 43.3056L204.834 41C204.556 40.6389 204.028 40.5556 203.667 40.8334C203.306 41.1111 203.223 41.6389 203.5 42L205.889 45.1389C206.056 45.3334 206.306 45.4723 206.556 45.4723Z" fill="#62BB46"/>
<path d="M239.04 99.88H235.89V106H234.89V99H239.04V99.88ZM238.58 101.08C239.18 100.793 239.923 100.65 240.81 100.65C241.21 100.65 241.53 100.703 241.77 100.81C242.016 100.91 242.206 101.04 242.34 101.2C242.473 101.36 242.56 101.54 242.6 101.74C242.646 101.933 242.67 102.127 242.67 102.32C242.67 102.687 242.656 103.057 242.63 103.43C242.603 103.797 242.59 104.197 242.59 104.63C242.59 104.883 242.6 105.13 242.62 105.37C242.646 105.603 242.686 105.82 242.74 106.02H242.07L241.82 105.22H241.72C241.646 105.32 241.556 105.423 241.45 105.53C241.343 105.63 241.216 105.72 241.07 105.8C240.923 105.88 240.753 105.947 240.56 106C240.373 106.053 240.156 106.08 239.91 106.08C239.663 106.08 239.436 106.047 239.23 105.98C239.023 105.907 238.843 105.807 238.69 105.68C238.543 105.553 238.426 105.4 238.34 105.22C238.253 105.033 238.21 104.827 238.21 104.6C238.21 104.3 238.273 104.04 238.4 103.82C238.533 103.6 238.703 103.42 238.91 103.28C239.116 103.14 239.35 103.037 239.61 102.97C239.876 102.903 240.14 102.87 240.4 102.87C240.606 102.87 240.78 102.873 240.92 102.88C241.066 102.887 241.186 102.897 241.28 102.91C241.38 102.917 241.463 102.927 241.53 102.94C241.596 102.947 241.656 102.953 241.71 102.96C241.723 102.86 241.733 102.773 241.74 102.7C241.746 102.627 241.75 102.533 241.75 102.42C241.75 102.233 241.73 102.077 241.69 101.95C241.65 101.823 241.583 101.723 241.49 101.65C241.403 101.57 241.283 101.513 241.13 101.48C240.976 101.447 240.79 101.43 240.57 101.43C240.443 101.43 240.303 101.44 240.15 101.46C239.996 101.48 239.843 101.51 239.69 101.55C239.536 101.583 239.383 101.627 239.23 101.68C239.083 101.733 238.95 101.79 238.83 101.85L238.58 101.08ZM241.71 103.62C241.656 103.613 241.6 103.603 241.54 103.59C241.48 103.577 241.403 103.567 241.31 103.56C241.223 103.553 241.116 103.547 240.99 103.54C240.87 103.533 240.72 103.53 240.54 103.53C240.126 103.53 239.796 103.603 239.55 103.75C239.31 103.897 239.19 104.147 239.19 104.5C239.19 104.767 239.283 104.967 239.47 105.1C239.663 105.233 239.91 105.3 240.21 105.3C240.43 105.3 240.623 105.273 240.79 105.22C240.963 105.16 241.11 105.09 241.23 105.01C241.356 104.923 241.456 104.83 241.53 104.73C241.61 104.623 241.67 104.52 241.71 104.42V103.62ZM244.46 100.75H245.08L245.26 101.42H245.35C245.53 101.16 245.763 100.96 246.05 100.82C246.337 100.673 246.66 100.6 247.02 100.6C247.78 100.6 248.347 100.813 248.72 101.24C249.093 101.66 249.28 102.333 249.28 103.26C249.28 103.7 249.217 104.1 249.09 104.46C248.97 104.813 248.793 105.117 248.56 105.37C248.333 105.617 248.053 105.807 247.72 105.94C247.393 106.073 247.027 106.14 246.62 106.14C246.487 106.14 246.363 106.133 246.25 106.12C246.143 106.113 246.043 106.097 245.95 106.07C245.857 106.05 245.763 106.027 245.67 106C245.577 105.967 245.48 105.93 245.38 105.89V108H244.46V100.75ZM246.81 101.38C246.41 101.38 246.097 101.48 245.87 101.68C245.643 101.88 245.48 102.187 245.38 102.6V105.02C245.533 105.127 245.7 105.21 245.88 105.27C246.06 105.33 246.29 105.36 246.57 105.36C247.11 105.36 247.533 105.183 247.84 104.83C248.147 104.477 248.3 103.95 248.3 103.25C248.3 102.683 248.187 102.23 247.96 101.89C247.733 101.55 247.35 101.38 246.81 101.38ZM250.699 101.08C251.299 100.793 252.042 100.65 252.929 100.65C253.329 100.65 253.649 100.703 253.889 100.81C254.136 100.91 254.326 101.04 254.459 101.2C254.592 101.36 254.679 101.54 254.719 101.74C254.766 101.933 254.789 102.127 254.789 102.32C254.789 102.687 254.776 103.057 254.749 103.43C254.722 103.797 254.709 104.197 254.709 104.63C254.709 104.883 254.719 105.13 254.739 105.37C254.766 105.603 254.806 105.82 254.859 106.02H254.189L253.939 105.22H253.839C253.766 105.32 253.676 105.423 253.569 105.53C253.462 105.63 253.336 105.72 253.189 105.8C253.042 105.88 252.872 105.947 252.679 106C252.492 106.053 252.276 106.08 252.029 106.08C251.782 106.08 251.556 106.047 251.349 105.98C251.142 105.907 250.962 105.807 250.809 105.68C250.662 105.553 250.546 105.4 250.459 105.22C250.372 105.033 250.329 104.827 250.329 104.6C250.329 104.3 250.392 104.04 250.519 103.82C250.652 103.6 250.822 103.42 251.029 103.28C251.236 103.14 251.469 103.037 251.729 102.97C251.996 102.903 252.259 102.87 252.519 102.87C252.726 102.87 252.899 102.873 253.039 102.88C253.186 102.887 253.306 102.897 253.399 102.91C253.499 102.917 253.582 102.927 253.649 102.94C253.716 102.947 253.776 102.953 253.829 102.96C253.842 102.86 253.852 102.773 253.859 102.7C253.866 102.627 253.869 102.533 253.869 102.42C253.869 102.233 253.849 102.077 253.809 101.95C253.769 101.823 253.702 101.723 253.609 101.65C253.522 101.57 253.402 101.513 253.249 101.48C253.096 101.447 252.909 101.43 252.689 101.43C252.562 101.43 252.422 101.44 252.269 101.46C252.116 101.48 251.962 101.51 251.809 101.55C251.656 101.583 251.502 101.627 251.349 101.68C251.202 101.733 251.069 101.79 250.949 101.85L250.699 101.08ZM253.829 103.62C253.776 103.613 253.719 103.603 253.659 103.59C253.599 103.577 253.522 103.567 253.429 103.56C253.342 103.553 253.236 103.547 253.109 103.54C252.989 103.533 252.839 103.53 252.659 103.53C252.246 103.53 251.916 103.603 251.669 103.75C251.429 103.897 251.309 104.147 251.309 104.5C251.309 104.767 251.402 104.967 251.589 105.1C251.782 105.233 252.029 105.3 252.329 105.3C252.549 105.3 252.742 105.273 252.909 105.22C253.082 105.16 253.229 105.09 253.349 105.01C253.476 104.923 253.576 104.83 253.649 104.73C253.729 104.623 253.789 104.52 253.829 104.42V103.62ZM260.139 103.71H257.499V106H256.579V100.75H257.499V102.89H260.139V100.75H261.059V106H260.139V103.71ZM266.499 101.53H264.679V106H263.759V101.53H261.939V100.75H266.499V101.53ZM271.01 103L271.15 101.96H271.04L270.55 102.94L268.09 106H267.38V100.75H268.3V103.85L268.23 104.77H268.34L268.8 103.88L271.21 100.75H271.93V106H271.01V103ZM276.789 103.93L275.839 104.06L274.349 106H273.209L274.529 104.28V104.29L275.089 103.91C274.622 103.857 274.252 103.693 273.979 103.42C273.712 103.14 273.579 102.8 273.579 102.4C273.579 102.087 273.639 101.817 273.759 101.59C273.879 101.363 274.049 101.177 274.269 101.03C274.495 100.883 274.765 100.777 275.079 100.71C275.399 100.643 275.755 100.61 276.149 100.61C276.402 100.61 276.665 100.627 276.939 100.66C277.219 100.693 277.475 100.737 277.709 100.79V106H276.789V103.93ZM276.789 103.36V101.47C276.682 101.437 276.559 101.417 276.419 101.41C276.285 101.397 276.169 101.39 276.069 101.39C275.569 101.39 275.192 101.47 274.939 101.63C274.685 101.79 274.559 102.043 274.559 102.39C274.559 102.723 274.705 102.973 274.999 103.14C275.299 103.307 275.689 103.383 276.169 103.37L276.789 103.36ZM238.44 116.71H235.8V119H234.88V113.75H235.8V115.89H238.44V113.75H239.36V119H238.44V116.71ZM241.06 114.08C241.66 113.793 242.404 113.65 243.29 113.65C243.69 113.65 244.01 113.703 244.25 113.81C244.497 113.91 244.687 114.04 244.82 114.2C244.954 114.36 245.04 114.54 245.08 114.74C245.127 114.933 245.15 115.127 245.15 115.32C245.15 115.687 245.137 116.057 245.11 116.43C245.084 116.797 245.07 117.197 245.07 117.63C245.07 117.883 245.08 118.13 245.1 118.37C245.127 118.603 245.167 118.82 245.22 119.02H244.55L244.3 118.22H244.2C244.127 118.32 244.037 118.423 243.93 118.53C243.824 118.63 243.697 118.72 243.55 118.8C243.404 118.88 243.234 118.947 243.04 119C242.854 119.053 242.637 119.08 242.39 119.08C242.144 119.08 241.917 119.047 241.71 118.98C241.504 118.907 241.324 118.807 241.17 118.68C241.024 118.553 240.907 118.4 240.82 118.22C240.734 118.033 240.69 117.827 240.69 117.6C240.69 117.3 240.754 117.04 240.88 116.82C241.014 116.6 241.184 116.42 241.39 116.28C241.597 116.14 241.83 116.037 242.09 115.97C242.357 115.903 242.62 115.87 242.88 115.87C243.087 115.87 243.26 115.873 243.4 115.88C243.547 115.887 243.667 115.897 243.76 115.91C243.86 115.917 243.944 115.927 244.01 115.94C244.077 115.947 244.137 115.953 244.19 115.96C244.204 115.86 244.214 115.773 244.22 115.7C244.227 115.627 244.23 115.533 244.23 115.42C244.23 115.233 244.21 115.077 244.17 114.95C244.13 114.823 244.064 114.723 243.97 114.65C243.884 114.57 243.764 114.513 243.61 114.48C243.457 114.447 243.27 114.43 243.05 114.43C242.924 114.43 242.784 114.44 242.63 114.46C242.477 114.48 242.324 114.51 242.17 114.55C242.017 114.583 241.864 114.627 241.71 114.68C241.564 114.733 241.43 114.79 241.31 114.85L241.06 114.08ZM244.19 116.62C244.137 116.613 244.08 116.603 244.02 116.59C243.96 116.577 243.884 116.567 243.79 116.56C243.704 116.553 243.597 116.547 243.47 116.54C243.35 116.533 243.2 116.53 243.02 116.53C242.607 116.53 242.277 116.603 242.03 116.75C241.79 116.897 241.67 117.147 241.67 117.5C241.67 117.767 241.764 117.967 241.95 118.1C242.144 118.233 242.39 118.3 242.69 118.3C242.91 118.3 243.104 118.273 243.27 118.22C243.444 118.16 243.59 118.09 243.71 118.01C243.837 117.923 243.937 117.83 244.01 117.73C244.09 117.623 244.15 117.52 244.19 117.42V116.62ZM253.351 114.53H250.771V119H249.851V113.75H254.271V119H253.351V114.53ZM256.032 113.75H256.652L256.832 114.42H256.922C257.102 114.16 257.336 113.96 257.622 113.82C257.909 113.673 258.232 113.6 258.592 113.6C259.352 113.6 259.919 113.813 260.292 114.24C260.666 114.66 260.852 115.333 260.852 116.26C260.852 116.7 260.789 117.1 260.662 117.46C260.542 117.813 260.366 118.117 260.132 118.37C259.906 118.617 259.626 118.807 259.292 118.94C258.966 119.073 258.599 119.14 258.192 119.14C258.059 119.14 257.936 119.133 257.822 119.12C257.716 119.113 257.616 119.097 257.522 119.07C257.429 119.05 257.336 119.027 257.242 119C257.149 118.967 257.052 118.93 256.952 118.89V121H256.032V113.75ZM258.382 114.38C257.982 114.38 257.669 114.48 257.442 114.68C257.216 114.88 257.052 115.187 256.952 115.6V118.02C257.106 118.127 257.272 118.21 257.452 118.27C257.632 118.33 257.862 118.36 258.142 118.36C258.682 118.36 259.106 118.183 259.412 117.83C259.719 117.477 259.872 116.95 259.872 116.25C259.872 115.683 259.759 115.23 259.532 114.89C259.306 114.55 258.922 114.38 258.382 114.38ZM262.051 116.38C262.051 115.947 262.108 115.56 262.221 115.22C262.335 114.873 262.501 114.58 262.721 114.34C262.941 114.1 263.208 113.917 263.521 113.79C263.841 113.663 264.205 113.6 264.611 113.6C265.038 113.6 265.411 113.67 265.731 113.81C266.051 113.95 266.318 114.147 266.531 114.4C266.745 114.647 266.901 114.94 267.001 115.28C267.108 115.613 267.161 115.98 267.161 116.38C267.161 116.807 267.101 117.19 266.981 117.53C266.868 117.87 266.701 118.16 266.481 118.4C266.268 118.64 266.001 118.823 265.681 118.95C265.368 119.077 265.011 119.14 264.611 119.14C264.171 119.14 263.791 119.07 263.471 118.93C263.151 118.79 262.885 118.597 262.671 118.35C262.465 118.103 262.308 117.813 262.201 117.48C262.101 117.14 262.051 116.773 262.051 116.38ZM263.031 116.38C263.031 116.627 263.058 116.87 263.111 117.11C263.171 117.343 263.265 117.553 263.391 117.74C263.518 117.927 263.681 118.077 263.881 118.19C264.081 118.303 264.328 118.36 264.621 118.36C265.661 118.36 266.181 117.7 266.181 116.38C266.181 116.12 266.151 115.87 266.091 115.63C266.038 115.39 265.948 115.18 265.821 115C265.701 114.813 265.541 114.663 265.341 114.55C265.141 114.437 264.901 114.38 264.621 114.38C264.101 114.38 263.705 114.547 263.431 114.88C263.165 115.207 263.031 115.707 263.031 116.38ZM273.711 120.32H273.081L272.921 119H268.501L268.321 120.32H267.711V118.22H268.381C268.448 118.14 268.531 118 268.631 117.8C268.738 117.6 268.841 117.323 268.941 116.97C269.041 116.61 269.128 116.167 269.201 115.64C269.281 115.113 269.324 114.483 269.331 113.75H272.861V118.22H273.711V120.32ZM271.941 118.22V114.53H270.161C270.141 114.83 270.111 115.15 270.071 115.49C270.031 115.83 269.974 116.167 269.901 116.5C269.834 116.827 269.754 117.14 269.661 117.44C269.568 117.74 269.458 118 269.331 118.22H271.941ZM276.461 117.07L276.771 118.08H276.901L277.151 117.06L278.241 113.75H279.181L277.461 118.5C277.335 118.827 277.205 119.143 277.071 119.45C276.945 119.757 276.801 120.027 276.641 120.26C276.488 120.5 276.315 120.69 276.121 120.83C275.935 120.977 275.718 121.05 275.471 121.05C275.205 121.05 274.978 121.02 274.791 120.96L274.941 120.18C275.041 120.213 275.141 120.23 275.241 120.23C275.375 120.23 275.495 120.213 275.601 120.18C275.715 120.147 275.818 120.087 275.911 120C276.005 119.913 276.088 119.79 276.161 119.63C276.241 119.477 276.315 119.277 276.381 119.03L274.031 113.75H275.121L276.461 117.07ZM281.634 116.64H281.064V119H280.144V113.75H281.064V116.14L281.614 115.96L283.404 113.75H284.414L282.704 115.79H282.714L282.174 116.18L282.824 116.63L284.674 119H283.514L281.634 116.64ZM290.832 120.32H290.212L290.042 119H285.612V113.75H286.532V118.22H289.062V113.75H289.982V118.22H290.832V120.32ZM295.541 116L295.681 114.96H295.571L295.081 115.94L292.621 119H291.911V113.75H292.831V116.85L292.761 117.77H292.871L293.331 116.88L295.741 113.75H296.461V119H295.541V116ZM302.77 119.14C302.357 119.14 302.003 119.08 301.71 118.96C301.417 118.84 301.173 118.673 300.98 118.46C300.787 118.247 300.64 117.99 300.54 117.69C300.447 117.383 300.387 117.047 300.36 116.68H299.14V119H298.22V113.75H299.14V115.9H300.37C300.437 115.173 300.663 114.61 301.05 114.21C301.443 113.803 302.023 113.6 302.79 113.6C303.21 113.6 303.567 113.67 303.86 113.81C304.16 113.943 304.403 114.133 304.59 114.38C304.783 114.627 304.923 114.92 305.01 115.26C305.103 115.6 305.15 115.973 305.15 116.38C305.15 117.247 304.953 117.923 304.56 118.41C304.167 118.897 303.57 119.14 302.77 119.14ZM301.28 116.38C301.28 116.653 301.303 116.91 301.35 117.15C301.397 117.39 301.477 117.6 301.59 117.78C301.703 117.96 301.857 118.103 302.05 118.21C302.243 118.31 302.487 118.36 302.78 118.36C303.28 118.36 303.637 118.2 303.85 117.88C304.063 117.56 304.17 117.06 304.17 116.38C304.17 116.113 304.147 115.86 304.1 115.62C304.06 115.373 303.987 115.16 303.88 114.98C303.773 114.793 303.63 114.647 303.45 114.54C303.27 114.433 303.043 114.38 302.77 114.38C302.243 114.38 301.863 114.543 301.63 114.87C301.397 115.19 301.28 115.693 301.28 116.38ZM236.27 130.9C236.75 130.9 237.117 130.807 237.37 130.62C237.63 130.427 237.76 130.15 237.76 129.79C237.76 129.403 237.61 129.12 237.31 128.94C237.01 128.76 236.583 128.67 236.03 128.67L235.16 128.71V125H238.9V126.3H236.38V127.54L236.83 127.5C237.183 127.513 237.503 127.577 237.79 127.69C238.077 127.797 238.32 127.947 238.52 128.14C238.727 128.333 238.883 128.567 238.99 128.84C239.103 129.113 239.16 129.417 239.16 129.75C239.16 130.143 239.087 130.49 238.94 130.79C238.793 131.09 238.59 131.34 238.33 131.54C238.077 131.74 237.773 131.89 237.42 131.99C237.073 132.09 236.697 132.14 236.29 132.14C235.963 132.14 235.65 132.113 235.35 132.06C235.057 132.007 234.81 131.937 234.61 131.85L234.99 130.69C235.157 130.75 235.337 130.8 235.53 130.84C235.73 130.88 235.977 130.9 236.27 130.9ZM246.239 127.99H245.009C244.989 128.55 244.946 129.077 244.879 129.57C244.819 130.063 244.719 130.497 244.579 130.87C244.439 131.237 244.252 131.527 244.019 131.74C243.792 131.953 243.499 132.06 243.139 132.06C242.719 132.06 242.422 132.013 242.249 131.92L242.449 130.68C242.562 130.713 242.666 130.73 242.759 130.73C242.919 130.73 243.059 130.673 243.179 130.56C243.299 130.447 243.399 130.243 243.479 129.95C243.559 129.65 243.622 129.243 243.669 128.73C243.722 128.217 243.762 127.557 243.789 126.75H247.639V132H246.239V127.99ZM253.565 131.52C253.339 131.693 253.029 131.843 252.635 131.97C252.249 132.09 251.832 132.15 251.385 132.15C250.485 132.15 249.825 131.903 249.405 131.41C248.985 130.917 248.775 130.24 248.775 129.38C248.775 128.467 249.012 127.777 249.485 127.31C249.959 126.837 250.625 126.6 251.485 126.6C251.765 126.6 252.042 126.637 252.315 126.71C252.589 126.777 252.832 126.893 253.045 127.06C253.259 127.22 253.429 127.44 253.555 127.72C253.689 127.993 253.755 128.333 253.755 128.74C253.755 128.88 253.745 129.033 253.725 129.2C253.712 129.367 253.685 129.54 253.645 129.72H250.145C250.179 130.173 250.309 130.51 250.535 130.73C250.769 130.943 251.145 131.05 251.665 131.05C251.979 131.05 252.259 131.007 252.505 130.92C252.759 130.827 252.952 130.733 253.085 130.64L253.565 131.52ZM251.465 127.7C251.052 127.7 250.745 127.813 250.545 128.04C250.345 128.26 250.229 128.543 250.195 128.89H252.455C252.482 128.523 252.415 128.233 252.255 128.02C252.095 127.807 251.832 127.7 251.465 127.7ZM259.093 127.99H257.463V132H256.003V127.99H254.373V126.75H259.093V127.99Z" fill="black"/>
<g clip-path="url(#clip0_230_641)">
<path d="M224.318 102.097C218.327 100.543 212.301 98.1244 206.891 95.1016C206.648 94.966 206.352 94.966 206.109 95.1016C200.544 98.211 194.843 100.499 188.682 102.097C188.329 102.188 188.082 102.507 188.082 102.872V111.712C188.082 120.804 192.51 126.818 196.224 130.262C200.209 133.957 204.829 136 206.5 136C208.171 136 212.791 133.957 216.776 130.262C220.49 126.818 224.918 120.803 224.918 111.712V102.872C224.918 102.507 224.671 102.188 224.318 102.097ZM215.687 129.088C213.48 131.134 211.336 132.426 209.926 133.149C208.138 134.066 206.898 134.398 206.5 134.398C206.103 134.398 204.862 134.066 203.075 133.149C201.664 132.426 199.52 131.134 197.313 129.088C193.833 125.86 189.684 120.226 189.684 111.712V103.489C195.606 101.903 201.119 99.6832 206.5 96.7164C211.745 99.604 217.537 101.936 223.316 103.489V111.712C223.316 120.226 219.168 125.86 215.687 129.088Z" fill="#62BB46"/>
<path d="M221.538 104.238C216.466 102.764 211.534 100.761 206.877 98.2858C206.642 98.1608 206.36 98.1608 206.124 98.2862C201.461 100.772 196.528 102.775 191.463 104.24C191.121 104.339 190.885 104.653 190.885 105.009V111.712C190.885 114.841 191.478 117.811 192.647 120.538C193.811 123.252 195.546 125.729 197.805 127.9C199.42 129.453 201.286 130.821 203.199 131.857C203.542 132.043 205.306 132.978 206.355 133.172C206.403 133.181 206.451 133.185 206.5 133.185C206.549 133.185 206.597 133.181 206.645 133.172C207.694 132.978 209.458 132.043 209.801 131.857C211.714 130.821 213.579 129.453 215.195 127.9C217.454 125.729 219.189 123.252 220.353 120.538C221.523 117.811 222.115 114.841 222.115 111.712V105.007C222.115 104.651 221.88 104.338 221.538 104.238ZM220.514 111.712C220.514 117.588 218.351 122.646 214.085 126.745C212.572 128.2 210.827 129.48 209.038 130.448C208.224 130.889 207.125 131.403 206.5 131.564C205.875 131.403 204.776 130.889 203.962 130.448C202.173 129.48 200.428 128.2 198.915 126.745C194.649 122.646 192.486 117.588 192.486 111.712V105.609C197.319 104.17 202.029 102.251 206.502 99.8988C210.967 102.241 215.676 104.159 220.514 105.606V111.712Z" fill="#62BB46"/>
<path d="M199.856 123.692L199.836 123.671C199.536 123.347 199.029 123.327 198.705 123.627C198.38 123.928 198.36 124.434 198.661 124.759C198.661 124.76 198.668 124.766 198.671 124.769C198.828 124.941 199.044 125.029 199.261 125.029C199.452 125.029 199.643 124.961 199.796 124.823C200.125 124.527 200.152 124.021 199.856 123.692Z" fill="#62BB46"/>
<path d="M204.175 127.327C203.21 126.719 202.282 126.017 201.414 125.242C201.085 124.947 200.578 124.975 200.284 125.305C199.989 125.635 200.017 126.141 200.347 126.436C201.28 127.27 202.281 128.026 203.32 128.682C203.453 128.766 203.601 128.805 203.747 128.805C204.012 128.805 204.272 128.673 204.425 128.432C204.661 128.058 204.549 127.563 204.175 127.327Z" fill="#62BB46"/>
<path d="M213.512 109.045C213.04 108.573 212.41 108.313 211.739 108.313C211.068 108.313 210.439 108.573 209.967 109.045L204.879 114.133L203.033 112.286C202.561 111.814 201.931 111.554 201.26 111.554C200.59 111.554 199.96 111.814 199.488 112.286C198.511 113.264 198.511 114.854 199.488 115.831L203.107 119.45C203.579 119.922 204.208 120.182 204.879 120.182C205.55 120.182 206.179 119.922 206.652 119.45L213.512 112.59C213.984 112.118 214.244 111.488 214.244 110.817C214.244 110.146 213.984 109.517 213.512 109.045ZM212.379 111.457L205.519 118.317C205.349 118.487 205.122 118.58 204.879 118.58C204.636 118.58 204.409 118.487 204.239 118.317L200.62 114.699C200.451 114.529 200.357 114.302 200.357 114.059C200.357 113.816 200.451 113.589 200.621 113.419C200.79 113.249 201.017 113.156 201.26 113.156C201.504 113.156 201.731 113.249 201.9 113.419L204.313 115.831C204.626 116.144 205.133 116.144 205.445 115.831L211.099 110.177C211.269 110.008 211.496 109.914 211.739 109.914C211.982 109.914 212.21 110.008 212.379 110.177C212.549 110.347 212.642 110.574 212.642 110.817C212.642 111.06 212.549 111.288 212.379 111.457Z" fill="#62BB46"/>
</g>
<defs>
<clipPath id="clip0_230_641">
<rect width="41" height="41" fill="white" transform="translate(186 95)"/>
</clipPath>
</defs>
</svg>
