<svg width="62" height="63" viewBox="0 0 62 63" fill="none" xmlns="http://www.w3.org/2000/svg">
<g clip-path="url(#clip0_55_117)">
<path d="M57.4423 11.3932C48.4757 9.06833 39.4563 5.44817 31.3594 0.924118C30.9962 0.721095 30.5536 0.721095 30.1903 0.924118C21.8607 5.57773 13.3289 9.00217 4.10738 11.3932C3.57885 11.5303 3.20972 12.0073 3.20972 12.5533V25.7838C3.20972 39.3907 9.8364 48.3916 15.3955 53.5463C21.3588 59.076 28.2743 62.1341 30.7749 62.1341C33.2753 62.1341 40.1909 59.076 46.1543 53.5463C51.7134 48.3914 58.34 39.3906 58.34 25.7838V12.5533C58.34 12.0074 57.9708 11.5303 57.4423 11.3932ZM44.5245 51.7888C41.2218 54.8513 38.0124 56.7847 35.9016 57.8673C33.2267 59.2392 31.3701 59.7373 30.7751 59.7373C30.1799 59.7373 28.3233 59.2393 25.6484 57.8673C23.5376 56.7846 20.3281 54.8513 17.0254 51.7888C11.8162 46.9584 5.60669 38.5258 5.60669 25.7838V13.4768C14.4711 11.1038 22.7211 7.78115 30.7751 3.34087C38.6248 7.66262 47.2933 11.1532 55.943 13.4764V25.7838C55.943 38.5258 49.7337 46.9584 44.5245 51.7888Z" fill="#62BB46"/>
<path d="M53.2816 14.5987C45.6908 12.3919 38.3083 9.3945 31.3388 5.68974C30.9869 5.50265 30.5647 5.50265 30.2126 5.69034C23.233 9.41032 15.8504 12.4083 8.26985 14.601C7.75725 14.7492 7.4043 15.2186 7.4043 15.7522V25.7837C7.4043 30.467 8.29178 34.9114 10.0419 38.9936C11.7833 43.0552 14.3806 46.7622 17.7612 50.0114C20.179 52.3352 22.9709 54.3831 25.8349 55.9336C26.348 56.2114 28.9872 57.6117 30.5572 57.9016C30.6291 57.9149 30.7019 57.9216 30.7747 57.9216C30.8476 57.9216 30.9204 57.9149 30.9922 57.9016C32.5619 57.6118 35.2013 56.2114 35.7145 55.9336C38.5783 54.3832 41.37 52.3355 43.7881 50.0115C47.1688 46.7623 49.7659 43.0554 51.5073 38.9937C53.258 34.9114 54.1455 30.467 54.1455 25.7837V15.7496C54.1455 15.2166 53.7933 14.7476 53.2816 14.5987ZM51.7484 25.7837C51.7484 34.5775 48.5114 42.1475 42.1274 48.2832C39.8626 50.4599 37.2506 52.3764 34.5737 53.8256C33.3552 54.4851 31.7102 55.254 30.7749 55.4955C29.8393 55.254 28.1945 54.4852 26.9762 53.8256C24.299 52.3764 21.6869 50.4599 19.4223 48.2832C13.0383 42.1475 9.80139 34.5776 9.80139 25.7837V16.6495C17.0347 14.4957 24.0839 11.6238 30.777 8.10373C37.4596 11.6093 44.5079 14.4802 51.7484 16.6456V25.7837Z" fill="#62BB46"/>
<path d="M20.8306 43.714L20.8015 43.6826C20.3522 43.1967 19.5938 43.1672 19.1079 43.6167C18.6221 44.0661 18.5925 44.8244 19.042 45.3102C19.0431 45.3116 19.0524 45.3216 19.0567 45.3262C19.2927 45.5834 19.6158 45.7143 19.9402 45.7143C20.2258 45.7143 20.5124 45.6127 20.7415 45.4066C21.2334 44.9636 21.2733 44.2058 20.8306 43.714Z" fill="#62BB46"/>
<path d="M27.295 49.1542C25.8515 48.2433 24.4614 47.1932 23.1634 46.0328C22.6701 45.5917 21.9123 45.634 21.4711 46.1276C21.03 46.621 21.0724 47.3787 21.5658 47.8199C22.9628 49.0687 24.4599 50.1997 26.0157 51.1814C26.2143 51.3068 26.4354 51.3665 26.6541 51.3665C27.0518 51.3665 27.4408 51.1686 27.6688 50.8074C28.0222 50.2474 27.8547 49.5074 27.295 49.1542Z" fill="#62BB46"/>
<path d="M41.269 21.7918C40.5625 21.0851 39.6202 20.6961 38.6162 20.6961C37.6121 20.6961 36.67 21.0853 35.9635 21.7918L28.3489 29.4065L25.5857 26.6434C24.8792 25.9367 23.9372 25.5476 22.9331 25.5476C21.9291 25.5476 20.987 25.9367 20.2802 26.6434C18.8176 28.106 18.8176 30.4861 20.2802 31.9487L25.6963 37.3646C26.4028 38.0712 27.3449 38.4603 28.3489 38.4603C29.353 38.4603 30.2951 38.0712 31.0016 37.3646L41.269 27.0972C41.9756 26.3907 42.3646 25.4486 42.3646 24.4445C42.3646 23.4404 41.9756 22.4984 41.269 21.7918ZM39.5739 25.4023L29.3067 35.6697C29.0528 35.9235 28.7126 36.0634 28.3489 36.0634C27.9852 36.0634 27.6449 35.9236 27.3911 35.6697L21.9753 30.2539C21.7215 30.0001 21.5818 29.66 21.5818 29.2962C21.5816 28.9324 21.7215 28.5922 21.9755 28.3384C22.2293 28.0845 22.5694 27.9448 22.9332 27.9448C23.2969 27.9448 23.6369 28.0845 23.8909 28.3384L27.5016 31.9489C27.9696 32.417 28.7285 32.417 29.1965 31.9489L37.6585 23.4868C37.9124 23.2329 38.2524 23.0932 38.6162 23.0932C38.98 23.0932 39.3201 23.2331 39.5739 23.4869C39.8278 23.7407 39.9675 24.0809 39.9675 24.4446C39.9675 24.8085 39.8278 25.1486 39.5739 25.4023Z" fill="#62BB46"/>
</g>
<defs>
<clipPath id="clip0_55_117">
<rect width="61.3622" height="61.3622" fill="white" transform="translate(0.0936279 0.771973)"/>
</clipPath>
</defs>
</svg>
