<svg width="1144" height="85" viewBox="0 0 1144 85" fill="none" xmlns="http://www.w3.org/2000/svg">
<path d="M358.667 41.8738L358.76 40.6843H358.698L357.957 41.9047L352.411 49.0261H351.468V38.2126H353.013V45.4113L352.874 46.5854H352.951L353.724 45.365L359.254 38.2126H360.212V49.0261H358.667V41.8738ZM363.875 45.4268V44.3454H365.065C365.291 44.3454 365.508 44.3145 365.714 44.2527C365.93 44.191 366.12 44.1086 366.285 44.0056C366.45 43.8923 366.579 43.7636 366.671 43.6194C366.774 43.4649 366.826 43.3001 366.826 43.1251C366.826 42.6925 366.666 42.3939 366.347 42.2291C366.028 42.0643 365.544 41.9819 364.895 41.9819C364.442 41.9819 364.025 42.0334 363.644 42.1364C363.273 42.2291 362.969 42.3269 362.732 42.4299L362.346 41.3486C363.015 40.9675 364.019 40.777 365.358 40.777C366.326 40.777 367.058 40.9469 367.552 41.2868C368.046 41.6266 368.293 42.1209 368.293 42.7698C368.293 42.9448 368.257 43.1251 368.185 43.3104C368.123 43.4958 368.026 43.676 367.892 43.8511C367.758 44.0159 367.593 44.1704 367.397 44.3145C367.212 44.4484 366.996 44.5514 366.749 44.6235V44.7934C367.449 44.917 367.938 45.1487 368.216 45.4886C368.494 45.8181 368.633 46.2507 368.633 46.7862C368.633 47.126 368.556 47.4453 368.401 47.744C368.247 48.0323 368.015 48.2846 367.706 48.5009C367.397 48.7172 367.006 48.8871 366.532 49.0107C366.069 49.1343 365.528 49.196 364.91 49.196C364.303 49.196 363.798 49.1549 363.396 49.0725C363.005 48.9901 362.65 48.8716 362.33 48.7172L362.701 47.5895C362.979 47.7337 363.314 47.8366 363.705 47.8984C364.097 47.9602 364.524 47.9911 364.988 47.9911C366.409 47.9911 367.119 47.5431 367.119 46.6472C367.119 46.2455 366.949 45.9417 366.61 45.7357C366.27 45.5298 365.678 45.4268 364.833 45.4268H363.875ZM376.135 42.1209H372.335V49.0261H370.914V40.916H376.135V42.1209ZM376.817 44.9788C376.817 44.3094 376.905 43.7121 377.08 43.1868C377.255 42.6513 377.512 42.1982 377.852 41.8274C378.192 41.4567 378.604 41.1735 379.088 40.9778C379.582 40.7821 380.144 40.6843 380.772 40.6843C381.431 40.6843 382.008 40.7924 382.502 41.0087C382.996 41.225 383.408 41.5288 383.738 41.9201C384.067 42.3012 384.309 42.7543 384.464 43.2795C384.629 43.7945 384.711 44.3609 384.711 44.9788C384.711 45.6379 384.618 46.2301 384.433 46.7553C384.258 47.2805 384 47.7285 383.661 48.0993C383.331 48.47 382.919 48.7532 382.425 48.9489C381.941 49.1446 381.39 49.2424 380.772 49.2424C380.092 49.2424 379.505 49.1343 379.011 48.918C378.516 48.7017 378.104 48.4031 377.775 48.022C377.456 47.641 377.214 47.193 377.049 46.6781C376.894 46.1528 376.817 45.5864 376.817 44.9788ZM378.331 44.9788C378.331 45.3598 378.372 45.7357 378.455 46.1065C378.547 46.4669 378.692 46.7913 378.887 47.0797C379.083 47.3681 379.335 47.5998 379.644 47.7748C379.953 47.9499 380.334 48.0375 380.787 48.0375C382.394 48.0375 383.197 47.0179 383.197 44.9788C383.197 44.5771 383.151 44.191 383.058 43.8202C382.976 43.4495 382.837 43.1251 382.641 42.847C382.456 42.5586 382.208 42.3269 381.9 42.1518C381.591 41.9768 381.22 41.8892 380.787 41.8892C379.984 41.8892 379.371 42.1467 378.949 42.6616C378.537 43.1662 378.331 43.9386 378.331 44.9788ZM392.439 42.1209H389.627V49.0261H388.206V42.1209H385.394V40.916H392.439V42.1209ZM393.125 44.9788C393.125 44.3094 393.212 43.7121 393.388 43.1868C393.563 42.6513 393.82 42.1982 394.16 41.8274C394.5 41.4567 394.912 41.1735 395.396 40.9778C395.89 40.7821 396.451 40.6843 397.08 40.6843C397.739 40.6843 398.315 40.7924 398.81 41.0087C399.304 41.225 399.716 41.5288 400.046 41.9201C400.375 42.3012 400.617 42.7543 400.772 43.2795C400.936 43.7945 401.019 44.3609 401.019 44.9788C401.019 45.6379 400.926 46.2301 400.741 46.7553C400.566 47.2805 400.308 47.7285 399.968 48.0993C399.639 48.47 399.227 48.7532 398.732 48.9489C398.248 49.1446 397.697 49.2424 397.08 49.2424C396.4 49.2424 395.813 49.1343 395.318 48.918C394.824 48.7017 394.412 48.4031 394.083 48.022C393.763 47.641 393.521 47.193 393.357 46.6781C393.202 46.1528 393.125 45.5864 393.125 44.9788ZM394.639 44.9788C394.639 45.3598 394.68 45.7357 394.762 46.1065C394.855 46.4669 394.999 46.7913 395.195 47.0797C395.391 47.3681 395.643 47.5998 395.952 47.7748C396.261 47.9499 396.642 48.0375 397.095 48.0375C398.702 48.0375 399.505 47.0179 399.505 44.9788C399.505 44.5771 399.459 44.191 399.366 43.8202C399.283 43.4495 399.144 43.1251 398.949 42.847C398.763 42.5586 398.516 42.3269 398.207 42.1518C397.898 41.9768 397.528 41.8892 397.095 41.8892C396.292 41.8892 395.679 42.1467 395.257 42.6616C394.845 43.1662 394.639 43.9386 394.639 44.9788ZM403.303 40.916L403.89 40.8851C404.219 40.8645 404.58 40.8439 404.971 40.8233C405.363 40.7924 405.816 40.777 406.331 40.777C407.525 40.777 408.38 40.9469 408.895 41.2868C409.42 41.6163 409.683 42.1106 409.683 42.7698C409.683 43.1302 409.554 43.4958 409.297 43.8665C409.049 44.227 408.653 44.4896 408.107 44.6544V44.8243C408.787 44.9582 409.271 45.1848 409.559 45.504C409.858 45.8233 410.007 46.2455 410.007 46.7707C410.007 47.5843 409.672 48.1868 409.003 48.5781C408.334 48.9592 407.324 49.1497 405.975 49.1497C405.522 49.1497 405.095 49.1343 404.693 49.1034C404.292 49.0828 403.9 49.057 403.519 49.0261C403.478 49.0261 403.442 49.0261 403.411 49.0261C403.38 49.0158 403.344 49.0107 403.303 49.0107V40.916ZM404.724 47.9139C404.951 47.9448 405.172 47.9705 405.388 47.9911C405.605 48.0014 405.872 48.0066 406.192 48.0066C407.005 48.0066 407.592 47.9036 407.953 47.6976C408.313 47.4813 408.493 47.1312 408.493 46.6472C408.493 46.4515 408.457 46.2713 408.385 46.1065C408.313 45.9417 408.195 45.8027 408.03 45.6894C407.865 45.5761 407.639 45.4886 407.35 45.4268C407.072 45.3547 406.727 45.3186 406.315 45.3186H404.724V47.9139ZM406.485 44.3454C406.712 44.3454 406.928 44.3145 407.134 44.2527C407.34 44.191 407.525 44.1034 407.69 43.9901C407.855 43.8768 407.984 43.7481 408.076 43.6039C408.179 43.4495 408.231 43.2847 408.231 43.1096C408.231 42.6771 408.081 42.3784 407.783 42.2136C407.494 42.0386 406.995 41.951 406.284 41.951C406.047 41.951 405.805 41.9613 405.558 41.9819C405.321 41.9922 405.043 42.0025 404.724 42.0128V44.3454H406.485ZM417.902 44.3918L418.118 42.7852H417.948L417.191 44.2991L413.391 49.0261H412.294V40.916H413.715V45.7048L413.607 47.126H413.777L414.488 45.7512L418.21 40.916H419.323V49.0261H417.902V44.3918ZM429.547 44.4381L429.64 42.7852H429.454L428.759 44.0519L426.674 47.126H426.195L424.001 44.0519L423.383 42.7852H423.213L423.352 44.4227V49.0261H422.039V40.916H423.522L425.948 44.4845L426.535 45.6122L427.183 44.4536L429.454 40.916H430.937V49.0261H429.547V44.4381ZM443.759 44.3918L443.975 42.7852H443.805L443.048 44.2991L439.248 49.0261H438.151V40.916H439.572V45.7048L439.464 47.126H439.634L440.345 45.7512L444.068 40.916H445.18V49.0261H443.759V44.3918ZM457.799 42.1209H453.813V49.0261H452.392V40.916H459.22V49.0261H457.799V42.1209ZM461.941 40.916H462.899L463.177 41.951H463.316C463.594 41.5494 463.955 41.2404 464.397 41.0241C464.84 40.7976 465.34 40.6843 465.896 40.6843C467.07 40.6843 467.945 41.0138 468.522 41.673C469.099 42.3218 469.387 43.3619 469.387 44.7934C469.387 45.4731 469.289 46.091 469.094 46.6472C468.908 47.193 468.635 47.6616 468.275 48.0529C467.925 48.434 467.492 48.7275 466.977 48.9334C466.473 49.1394 465.906 49.2424 465.278 49.2424C465.072 49.2424 464.881 49.2321 464.706 49.2115C464.542 49.2012 464.387 49.1755 464.243 49.1343C464.099 49.1034 463.955 49.0673 463.81 49.0261C463.666 48.9746 463.517 48.918 463.362 48.8562V52.1157H461.941V40.916ZM465.571 41.8892C464.954 41.8892 464.47 42.0437 464.119 42.3527C463.769 42.6616 463.517 43.1353 463.362 43.7739V47.5122C463.599 47.677 463.857 47.8057 464.135 47.8984C464.413 47.9911 464.768 48.0375 465.201 48.0375C466.035 48.0375 466.689 47.7646 467.163 47.2187C467.636 46.6729 467.873 45.8593 467.873 44.778C467.873 43.9026 467.698 43.2023 467.348 42.6771C466.998 42.1518 466.406 41.8892 465.571 41.8892ZM477.279 44.3918L477.495 42.7852H477.325L476.569 44.2991L472.768 49.0261H471.672V40.916H473.093V45.7048L472.985 47.126H473.155L473.865 45.7512L477.588 40.916H478.7V49.0261H477.279V44.3918ZM481.417 40.916L482.004 40.8851C482.334 40.8645 482.694 40.8439 483.085 40.8233C483.477 40.7924 483.93 40.777 484.445 40.777C485.639 40.777 486.494 40.9469 487.009 41.2868C487.534 41.6163 487.797 42.1106 487.797 42.7698C487.797 43.1302 487.668 43.4958 487.411 43.8665C487.164 44.227 486.767 44.4896 486.221 44.6544V44.8243C486.901 44.9582 487.385 45.1848 487.673 45.504C487.972 45.8233 488.121 46.2455 488.121 46.7707C488.121 47.5843 487.787 48.1868 487.117 48.5781C486.448 48.9592 485.439 49.1497 484.089 49.1497C483.636 49.1497 483.209 49.1343 482.807 49.1034C482.406 49.0828 482.014 49.057 481.633 49.0261C481.592 49.0261 481.556 49.0261 481.525 49.0261C481.494 49.0158 481.458 49.0107 481.417 49.0107V40.916ZM482.838 47.9139C483.065 47.9448 483.286 47.9705 483.502 47.9911C483.719 48.0014 483.986 48.0066 484.306 48.0066C485.119 48.0066 485.706 47.9036 486.067 47.6976C486.427 47.4813 486.607 47.1312 486.607 46.6472C486.607 46.4515 486.571 46.2713 486.499 46.1065C486.427 45.9417 486.309 45.8027 486.144 45.6894C485.979 45.5761 485.753 45.4886 485.464 45.4268C485.186 45.3547 484.841 45.3186 484.429 45.3186H482.838V47.9139ZM484.599 44.3454C484.826 44.3454 485.042 44.3145 485.248 44.2527C485.454 44.191 485.639 44.1034 485.804 43.9901C485.969 43.8768 486.098 43.7481 486.19 43.6039C486.293 43.4495 486.345 43.2847 486.345 43.1096C486.345 42.6771 486.196 42.3784 485.897 42.2136C485.608 42.0386 485.109 41.951 484.398 41.951C484.162 41.951 483.92 41.9613 483.672 41.9819C483.435 41.9922 483.157 42.0025 482.838 42.0128V44.3454H484.599ZM497.004 48.3619C496.644 48.6296 496.196 48.8459 495.66 49.0107C495.125 49.1652 494.543 49.2424 493.915 49.2424C493.235 49.2424 492.643 49.1446 492.138 48.9489C491.644 48.7429 491.237 48.4546 490.918 48.0838C490.599 47.7131 490.362 47.2651 490.207 46.7398C490.053 46.2146 489.976 45.6276 489.976 44.9788C489.976 43.5885 490.315 42.5277 490.995 41.7965C491.685 41.055 492.663 40.6843 493.93 40.6843C494.332 40.6843 494.733 40.7306 495.135 40.8233C495.537 40.9057 495.897 41.0705 496.216 41.3177C496.536 41.5545 496.793 41.8841 496.989 42.3063C497.195 42.7286 497.298 43.2795 497.298 43.9592C497.298 44.124 497.293 44.3145 497.282 44.5308C497.272 44.7471 497.251 44.9582 497.221 45.1642H491.428C491.448 46.1116 491.675 46.8274 492.107 47.3114C492.54 47.7954 493.276 48.0375 494.316 48.0375C494.749 48.0375 495.161 47.9654 495.552 47.8212C495.944 47.6667 496.247 47.4865 496.464 47.2805L497.004 48.3619ZM495.938 44.1446C495.959 43.3207 495.789 42.7389 495.429 42.399C495.078 42.0592 494.584 41.8892 493.946 41.8892C493.225 41.8892 492.653 42.0592 492.231 42.399C491.809 42.7389 491.562 43.3207 491.489 44.1446H495.938ZM500.567 45.4268V44.3454H501.757C501.984 44.3454 502.2 44.3145 502.406 44.2527C502.622 44.191 502.813 44.1086 502.977 44.0056C503.142 43.8923 503.271 43.7636 503.364 43.6194C503.467 43.4649 503.518 43.3001 503.518 43.1251C503.518 42.6925 503.358 42.3939 503.039 42.2291C502.72 42.0643 502.236 41.9819 501.587 41.9819C501.134 41.9819 500.717 42.0334 500.336 42.1364C499.965 42.2291 499.661 42.3269 499.424 42.4299L499.038 41.3486C499.708 40.9675 500.712 40.777 502.05 40.777C503.019 40.777 503.75 40.9469 504.244 41.2868C504.738 41.6266 504.986 42.1209 504.986 42.7698C504.986 42.9448 504.95 43.1251 504.877 43.3104C504.816 43.4958 504.718 43.676 504.584 43.8511C504.45 44.0159 504.285 44.1704 504.09 44.3145C503.904 44.4484 503.688 44.5514 503.441 44.6235V44.7934C504.141 44.917 504.63 45.1487 504.908 45.4886C505.186 45.8181 505.325 46.2507 505.325 46.7862C505.325 47.126 505.248 47.4453 505.094 47.744C504.939 48.0323 504.707 48.2846 504.399 48.5009C504.09 48.7172 503.698 48.8871 503.224 49.0107C502.761 49.1343 502.22 49.196 501.602 49.196C500.995 49.196 500.49 49.1549 500.089 49.0725C499.697 48.9901 499.342 48.8716 499.023 48.7172L499.393 47.5895C499.671 47.7337 500.006 47.8366 500.398 47.8984C500.789 47.9602 501.216 47.9911 501.68 47.9911C503.101 47.9911 503.812 47.5431 503.812 46.6472C503.812 46.2455 503.642 45.9417 503.302 45.7357C502.962 45.5298 502.37 45.4268 501.525 45.4268H500.567ZM514.202 48.3619C513.842 48.6296 513.394 48.8459 512.858 49.0107C512.323 49.1652 511.741 49.2424 511.113 49.2424C510.433 49.2424 509.841 49.1446 509.336 48.9489C508.842 48.7429 508.435 48.4546 508.116 48.0838C507.796 47.7131 507.56 47.2651 507.405 46.7398C507.251 46.2146 507.173 45.6276 507.173 44.9788C507.173 43.5885 507.513 42.5277 508.193 41.7965C508.883 41.055 509.861 40.6843 511.128 40.6843C511.53 40.6843 511.931 40.7306 512.333 40.8233C512.735 40.9057 513.095 41.0705 513.414 41.3177C513.734 41.5545 513.991 41.8841 514.187 42.3063C514.393 42.7286 514.496 43.2795 514.496 43.9592C514.496 44.124 514.49 44.3145 514.48 44.5308C514.47 44.7471 514.449 44.9582 514.418 45.1642H508.625C508.646 46.1116 508.873 46.8274 509.305 47.3114C509.738 47.7954 510.474 48.0375 511.514 48.0375C511.947 48.0375 512.359 47.9654 512.75 47.8212C513.141 47.6667 513.445 47.4865 513.661 47.2805L514.202 48.3619ZM513.136 44.1446C513.157 43.3207 512.987 42.7389 512.626 42.399C512.276 42.0592 511.782 41.8892 511.143 41.8892C510.423 41.8892 509.851 42.0592 509.429 42.399C509.006 42.7389 508.759 43.3207 508.687 44.1446H513.136ZM524.346 44.4381L524.439 42.7852H524.253L523.558 44.0519L521.473 47.126H520.994L518.8 44.0519L518.182 42.7852H518.012L518.151 44.4227V49.0261H516.838V40.916H518.321L520.747 44.4845L521.334 45.6122L521.982 44.4536L524.253 40.916H525.736V49.0261H524.346V44.4381ZM352.025 65.6585V64.2064H353.029C353.492 64.2064 353.858 64.1343 354.126 63.9901C354.393 63.8357 354.527 63.6297 354.527 63.3722C354.527 63.0736 354.409 62.8676 354.172 62.7543C353.935 62.6307 353.564 62.5689 353.06 62.5689C352.617 62.5689 352.21 62.6256 351.839 62.7389C351.479 62.8418 351.18 62.95 350.943 63.0633C350.861 62.7852 350.789 62.5226 350.727 62.2754C350.675 62.018 350.609 61.7502 350.526 61.4721C350.866 61.2662 351.324 61.0962 351.901 60.9624C352.478 60.8285 353.091 60.7615 353.739 60.7615C354.738 60.7615 355.48 60.9366 355.964 61.2868C356.458 61.6266 356.705 62.1209 356.705 62.7698C356.705 62.9551 356.674 63.1405 356.613 63.3259C356.561 63.5112 356.479 63.6915 356.365 63.8665C356.252 64.0313 356.108 64.1858 355.933 64.33C355.758 64.4639 355.552 64.572 355.315 64.6544V64.778C355.954 64.9119 356.401 65.1436 356.659 65.4731C356.916 65.7924 357.045 66.2249 357.045 66.7707C357.045 67.1106 356.968 67.4298 356.813 67.7285C356.669 68.0169 356.443 68.2743 356.134 68.5009C355.825 68.7275 355.433 68.9025 354.96 69.0261C354.496 69.16 353.945 69.2269 353.307 69.2269C352.689 69.2269 352.138 69.16 351.654 69.0261C351.17 68.8922 350.773 68.7429 350.464 68.5781C350.536 68.3001 350.614 68.022 350.696 67.744C350.778 67.4659 350.861 67.1878 350.943 66.9098C351.221 67.0539 351.556 67.1775 351.947 67.2805C352.349 67.3732 352.782 67.4195 353.245 67.4195C354.337 67.4195 354.882 67.1054 354.882 66.4772C354.882 66.3331 354.846 66.2095 354.774 66.1065C354.713 66.0035 354.604 65.9211 354.45 65.8593C354.295 65.7872 354.084 65.7357 353.817 65.7048C353.559 65.6739 353.23 65.6585 352.828 65.6585H352.025ZM358.641 61.4721C359.105 61.2662 359.671 61.0962 360.341 60.9624C361.02 60.8285 361.721 60.7615 362.442 60.7615C363.008 60.7615 363.482 60.8285 363.863 60.9624C364.254 61.0962 364.563 61.2919 364.79 61.5494C365.016 61.7965 365.176 62.1003 365.268 62.4608C365.371 62.8109 365.423 63.2023 365.423 63.6348C365.423 64.1601 365.402 64.6801 365.361 65.1951C365.32 65.71 365.299 66.2558 365.299 66.8325C365.299 67.2239 365.325 67.6049 365.377 67.9757C365.428 68.3464 365.51 68.7017 365.624 69.0416H363.863L363.507 67.8366H363.322C363.054 68.1971 362.714 68.506 362.302 68.7635C361.891 69.021 361.36 69.1497 360.711 69.1497C360.32 69.1497 359.96 69.0931 359.63 68.9798C359.311 68.8665 359.033 68.7069 358.796 68.5009C358.569 68.2846 358.389 68.0323 358.255 67.744C358.132 67.4556 358.07 67.1415 358.07 66.8016C358.07 65.8851 358.374 65.1951 358.981 64.7316C359.599 64.2579 360.531 64.021 361.777 64.021C362.066 64.021 362.354 64.0468 362.642 64.0983C362.931 64.1395 363.132 64.1704 363.245 64.191C363.276 63.9747 363.291 63.7893 363.291 63.6348C363.291 63.2435 363.193 62.9551 362.998 62.7698C362.802 62.5844 362.436 62.4917 361.901 62.4917C361.407 62.4917 360.922 62.5535 360.449 62.6771C359.985 62.7903 359.573 62.9345 359.213 63.1096L358.641 61.4721ZM361.468 67.4195C361.952 67.4195 362.339 67.3063 362.627 67.0797C362.915 66.8531 363.126 66.6163 363.26 66.3691V65.4422C363.209 65.4216 363.126 65.401 363.013 65.3804C362.91 65.3598 362.792 65.3392 362.658 65.3186C362.534 65.298 362.405 65.2826 362.272 65.2723C362.148 65.262 362.035 65.2569 361.932 65.2569C361.376 65.2569 360.964 65.3598 360.696 65.5658C360.428 65.7615 360.294 66.0086 360.294 66.3073C360.294 66.6781 360.397 66.9561 360.603 67.1415C360.819 67.3269 361.108 67.4195 361.468 67.4195ZM372.531 67.2187H374.848V61.2713L375.111 60.2054L374.307 61.1323L372.793 62.1209L371.928 60.8542L375.713 58.0273H376.933V67.2187H379.204V69.0261H372.531V67.2187ZM380.638 63.6039C380.638 61.7605 380.988 60.365 381.689 59.4176C382.399 58.4701 383.414 57.9964 384.732 57.9964C386.143 57.9964 387.178 58.465 387.837 59.4021C388.506 60.329 388.841 61.7296 388.841 63.6039C388.841 65.4371 388.486 66.8377 387.775 67.8057C387.064 68.7635 386.05 69.2424 384.732 69.2424C384.031 69.2424 383.424 69.1137 382.909 68.8562C382.394 68.5884 381.967 68.2125 381.627 67.7285C381.297 67.2342 381.05 66.642 380.885 65.952C380.72 65.2517 380.638 64.469 380.638 63.6039ZM382.863 63.6039C382.863 64.7883 383.007 65.7254 383.295 66.4154C383.583 67.0951 384.062 67.435 384.732 67.435C385.411 67.435 385.896 67.126 386.184 66.5081C386.472 65.8902 386.616 64.9221 386.616 63.6039C386.616 63.0169 386.58 62.4917 386.508 62.0283C386.446 61.5545 386.343 61.1529 386.199 60.8233C386.055 60.4938 385.859 60.2415 385.612 60.0664C385.375 59.8913 385.082 59.8038 384.732 59.8038C384.062 59.8038 383.583 60.1282 383.295 60.777C383.007 61.4155 382.863 62.3578 382.863 63.6039ZM403.318 70.8644H401.805L401.526 69.0261H395.378L395.085 70.8644H393.571V67.1106H394.59C394.683 66.987 394.807 66.781 394.961 66.4927C395.126 66.2043 395.28 65.813 395.425 65.3186C395.579 64.8243 395.708 64.2167 395.811 63.4958C395.924 62.7646 395.986 61.9047 395.996 60.916H402.021V67.1106H403.318V70.8644ZM399.858 67.2187V62.7234H397.834C397.814 63.1251 397.773 63.5421 397.711 63.9747C397.649 64.4072 397.572 64.8243 397.479 65.226C397.386 65.6276 397.278 66.0035 397.155 66.3536C397.031 66.7038 396.897 66.9922 396.753 67.2187H399.858ZM409.982 65.8902H406.908V69.0261H404.745V60.916H406.908V63.9283H409.982V60.916H412.145V69.0261H409.982V65.8902ZM421.306 68.2846C420.956 68.5524 420.477 68.7841 419.869 68.9798C419.272 69.1652 418.628 69.2578 417.938 69.2578C416.548 69.2578 415.529 68.8768 414.88 68.1147C414.231 67.3526 413.907 66.3073 413.907 64.9788C413.907 63.5679 414.272 62.502 415.003 61.7811C415.735 61.0499 416.764 60.6843 418.093 60.6843C418.525 60.6843 418.953 60.7409 419.375 60.8542C419.797 60.9572 420.173 61.1374 420.503 61.3949C420.832 61.6421 421.095 61.9819 421.291 62.4145C421.497 62.8367 421.6 63.3619 421.6 63.9901C421.6 64.2064 421.584 64.4433 421.553 64.7007C421.533 64.9582 421.491 65.226 421.43 65.504H416.023C416.074 66.2043 416.275 66.7244 416.625 67.0642C416.986 67.3938 417.568 67.5586 418.371 67.5586C418.855 67.5586 419.288 67.4916 419.669 67.3578C420.06 67.2136 420.359 67.0694 420.565 66.9252L421.306 68.2846ZM418.062 62.3836C417.424 62.3836 416.95 62.5586 416.641 62.9088C416.332 63.2486 416.152 63.6863 416.1 64.2218H419.591C419.633 63.6554 419.53 63.2074 419.282 62.8779C419.035 62.5483 418.628 62.3836 418.062 62.3836ZM428.918 65.365L429.011 63.9901L428.037 65.3495L424.84 69.0261H423.542V60.916H425.705V64.7316L425.628 65.8439H425.813C425.937 65.6688 426.06 65.4834 426.184 65.2877C426.318 65.0921 426.446 64.9067 426.57 64.7316L429.783 60.916H431.081V69.0261H428.918V65.365ZM426.323 57.5638C426.405 57.9964 426.549 58.2899 426.755 58.4444C426.961 58.5988 427.229 58.6761 427.559 58.6761C427.898 58.6761 428.166 58.5988 428.362 58.4444C428.568 58.2796 428.712 57.9912 428.794 57.5793L430.401 57.9964C430.267 58.6761 429.932 59.1859 429.397 59.5257C428.861 59.8656 428.223 60.0355 427.481 60.0355C427.121 60.0355 426.776 59.9994 426.446 59.9273C426.127 59.8553 425.834 59.7368 425.566 59.572C425.298 59.4073 425.066 59.1962 424.871 58.9387C424.685 58.6812 424.557 58.3671 424.484 57.9964L426.323 57.5638ZM434.415 57.8419L434.847 58.5216L435.141 59.433L435.465 58.537L435.882 57.8419L436.717 58.3053L436.269 59.0314L435.496 59.7883L436.639 59.572H437.458V60.5453H436.67L435.604 60.329L436.377 61.1014L436.763 61.7347L435.944 62.2136L435.512 61.5185L435.125 60.5453L434.832 61.4721L434.415 62.1673L433.534 61.6884L433.998 60.9932L434.708 60.329L433.735 60.5453H432.886V59.572H433.735L434.786 59.7883L434.013 59.0623L433.565 58.3208L434.415 57.8419Z" fill="black"/>
<path d="M314.902 29.8141C314.267 29.8141 313.751 30.3272 313.751 30.9619C313.751 31.5961 314.267 32.1101 314.902 32.1101C315.538 32.1101 316.052 31.5961 316.052 30.9619C316.052 30.3272 315.538 29.8141 314.902 29.8141Z" fill="#62BB46"/>
<path d="M293.999 50.6758C293.362 50.6758 292.848 51.1903 292.848 51.824C292.848 52.4591 293.362 52.9722 293.999 52.9722C294.634 52.9722 295.149 52.4591 295.149 51.824C295.149 51.1903 294.634 50.6758 293.999 50.6758Z" fill="#62BB46"/>
<path d="M332.471 19.0638C332.083 18.9736 331.675 19.0907 331.395 19.3732L326.625 24.171H324.339L321.822 21.5683V19.2544L326.523 14.4925C326.801 14.2108 326.914 13.8058 326.822 13.4206C326.73 13.0357 326.446 12.7254 326.071 12.5989C324.89 12.2015 323.654 12.0001 322.397 12.0001C318.65 12.0001 315.246 13.7439 313.057 16.7844C311.009 19.6307 310.377 23.1188 311.282 26.4571L302.808 34.9147L288.69 20.7919V18.0201C288.69 17.6168 288.478 17.2428 288.131 17.0356L279.997 12.1638C279.544 11.8925 278.965 11.9638 278.592 12.3365L275.338 15.5833C274.965 15.956 274.893 16.5341 275.165 16.9862L280.045 25.1048C280.253 25.4506 280.627 25.6618 281.031 25.6623L283.808 25.6632L297.927 39.786L289.485 48.2113C286.14 47.3089 282.644 47.94 279.791 49.9857C276.746 52.1686 275 55.5652 275 59.3049C275 60.5589 275.202 61.7928 275.6 62.971C275.727 63.3482 276.041 63.633 276.43 63.7227C276.818 63.8129 277.226 63.6958 277.507 63.4133L282.276 58.616H284.575L287.194 61.2304V63.5249L282.388 68.2846C282.104 68.5649 281.987 68.9717 282.077 69.3597C282.167 69.7472 282.453 70.0607 282.831 70.1876C284.011 70.585 285.247 70.7864 286.504 70.7864C290.251 70.7864 293.654 69.0435 295.841 66.0048C297.891 63.1572 298.523 59.6677 297.619 56.3294L304.399 49.5627L305.952 51.2464L305.24 51.9573C304.79 52.4058 304.79 53.1329 305.24 53.5814C305.689 54.0295 306.417 54.0295 306.867 53.5814L307.512 52.9373L322.084 68.7349C322.095 68.7465 322.106 68.7578 322.117 68.769C324.814 71.4601 329.182 71.461 331.88 68.7685C334.57 66.0824 334.57 61.7116 331.88 59.0255C331.868 59.0138 331.856 59.0026 331.844 58.9914L315.991 44.4757L316.629 43.8388C317.078 43.3907 317.078 42.6637 316.629 42.2152C316.18 41.7666 315.452 41.7666 315.002 42.2152L314.294 42.922L312.604 41.3737L319.417 34.5743C320.385 34.8326 321.384 34.9636 322.397 34.9636C328.74 34.9636 333.901 29.8128 333.901 23.4821C333.901 22.2276 333.699 20.9942 333.301 19.8155C333.174 19.4383 332.86 19.1535 332.471 19.0638ZM285.099 23.7041C284.883 23.4883 284.591 23.3785 284.285 23.3785L281.683 23.3776L277.6 16.5736L279.583 14.5943L286.389 18.6704V21.2673C286.389 21.5714 286.51 21.8629 286.725 22.0782L301.181 36.5388L299.554 38.1624L285.099 23.7041ZM314.362 46.1011L330.269 60.6657C332.046 62.4579 332.041 65.3598 330.253 67.1454C328.461 68.934 325.559 68.9394 323.76 67.161L309.14 51.3119L314.362 46.1011ZM312.665 44.547L307.58 49.621L306.027 47.9373L310.975 42.9987L312.665 44.547ZM322.397 32.6672C321.391 32.6672 320.401 32.5062 319.457 32.1886C319.043 32.05 318.585 32.1568 318.276 32.4649C312.508 38.2211 300.081 50.6239 295.505 55.1916C295.196 55.5001 295.088 55.9567 295.228 56.3703C296.184 59.2044 295.727 62.2274 293.972 64.6651C292.223 67.0956 289.501 68.49 286.504 68.49C286.167 68.49 285.833 68.4716 285.501 68.4362L289.155 64.8176C289.372 64.6023 289.495 64.3089 289.495 64.0026V60.7545C289.495 60.4499 289.374 60.158 289.158 59.9427L285.864 56.6555C285.649 56.4402 285.356 56.3191 285.051 56.3191H281.797C281.49 56.3191 281.196 56.4416 280.98 56.6586L277.354 60.3055C277.318 59.9745 277.3 59.6404 277.3 59.3044C277.3 56.3133 278.697 53.5966 281.133 51.8506C283.575 50.0996 286.604 49.6425 289.444 50.5974C289.858 50.7369 290.316 50.6297 290.625 50.3211C290.688 50.2584 313.38 27.6106 313.396 27.5945C313.705 27.2859 313.812 26.8298 313.673 26.4162C312.716 23.5821 313.173 20.56 314.926 18.1241C316.677 15.6914 319.399 14.2965 322.396 14.2965C322.743 14.2965 323.088 14.3158 323.43 14.3535L319.852 17.9779C319.639 18.1927 319.521 18.482 319.521 18.7834V22.0316C319.521 22.3294 319.636 22.6151 319.843 22.829L323.022 26.1162C323.239 26.3404 323.537 26.4669 323.85 26.4669H327.104C327.411 26.4669 327.705 26.3449 327.921 26.1274L331.546 22.481C331.582 22.812 331.6 23.1461 331.6 23.4821C331.6 28.5467 327.471 32.6672 322.397 32.6672Z" fill="#62BB46"/>
<path d="M310.835 33.3974L296.439 47.7655C295.99 48.2136 295.99 48.9406 296.439 49.3891C296.888 49.8376 297.616 49.8376 298.066 49.3891L312.462 35.021C312.912 34.5729 312.912 33.8459 312.462 33.3974C312.013 32.9488 311.284 32.9488 310.835 33.3974Z" fill="#62BB46"/>
<path d="M325.373 63.8986C325.822 64.3458 326.55 64.3458 327 63.8959C327.448 63.447 327.447 62.7199 326.997 62.2723L316.627 51.956C316.178 51.5084 315.449 51.5098 315.001 51.9587C314.552 52.4081 314.553 53.1347 315.003 53.5823L325.373 63.8986Z" fill="#62BB46"/>
<path d="M672.973 38.344H668.107V47.7981H666.562V36.9846H672.973V38.344ZM672.262 40.1978C673.189 39.7549 674.337 39.5335 675.707 39.5335C676.325 39.5335 676.819 39.6159 677.19 39.7807C677.571 39.9351 677.865 40.136 678.071 40.3831C678.277 40.6303 678.41 40.9084 678.472 41.2173C678.544 41.516 678.58 41.8146 678.58 42.1133C678.58 42.6797 678.56 43.2513 678.519 43.828C678.477 44.3944 678.457 45.0123 678.457 45.6817C678.457 46.0731 678.472 46.4541 678.503 46.8249C678.544 47.1853 678.606 47.52 678.689 47.829H677.654L677.267 46.5932H677.113C677 46.7476 676.861 46.9073 676.696 47.072C676.531 47.2265 676.335 47.3656 676.109 47.4891C675.882 47.6127 675.62 47.7157 675.321 47.7981C675.033 47.8805 674.698 47.9217 674.317 47.9217C673.936 47.9217 673.586 47.8702 673.266 47.7672C672.947 47.6539 672.669 47.4994 672.432 47.3038C672.206 47.1081 672.025 46.8712 671.891 46.5932C671.758 46.3048 671.691 45.9856 671.691 45.6354C671.691 45.172 671.789 44.7703 671.984 44.4305C672.19 44.0906 672.453 43.8126 672.772 43.5963C673.091 43.38 673.452 43.2204 673.853 43.1174C674.265 43.0144 674.672 42.9629 675.074 42.9629C675.393 42.9629 675.661 42.9681 675.877 42.9784C676.104 42.9887 676.289 43.0041 676.433 43.0247C676.588 43.035 676.716 43.0505 676.819 43.0711C676.922 43.0814 677.015 43.0917 677.097 43.102C677.118 42.9475 677.133 42.8136 677.144 42.7003C677.154 42.587 677.159 42.4428 677.159 42.2678C677.159 41.9794 677.128 41.7374 677.067 41.5417C677.005 41.3461 676.902 41.1916 676.758 41.0783C676.624 40.9547 676.438 40.8672 676.201 40.8157C675.965 40.7642 675.676 40.7384 675.336 40.7384C675.141 40.7384 674.924 40.7539 674.688 40.7848C674.451 40.8157 674.214 40.862 673.977 40.9238C673.74 40.9753 673.503 41.0422 673.266 41.1246C673.04 41.207 672.834 41.2946 672.648 41.3872L672.262 40.1978ZM677.097 44.1215C677.015 44.1112 676.927 44.0958 676.835 44.0752C676.742 44.0546 676.624 44.0391 676.48 44.0288C676.346 44.0185 676.181 44.0082 675.985 43.9979C675.8 43.9876 675.568 43.9825 675.29 43.9825C674.652 43.9825 674.142 44.0958 673.761 44.3223C673.39 44.5489 673.205 44.9351 673.205 45.4809C673.205 45.8929 673.349 46.2018 673.637 46.4078C673.936 46.6138 674.317 46.7167 674.78 46.7167C675.12 46.7167 675.419 46.6756 675.676 46.5932C675.944 46.5005 676.171 46.3923 676.356 46.2688C676.552 46.1349 676.706 45.9907 676.819 45.8362C676.943 45.6714 677.036 45.5118 677.097 45.3573V44.1215ZM681.346 39.688H682.304L682.582 40.723H682.721C682.999 40.3213 683.359 40.0124 683.802 39.7961C684.245 39.5696 684.745 39.4563 685.301 39.4563C686.475 39.4563 687.35 39.7858 687.927 40.4449C688.504 41.0937 688.792 42.1339 688.792 43.5654C688.792 44.2451 688.694 44.863 688.498 45.4191C688.313 45.965 688.04 46.4335 687.68 46.8249C687.33 47.2059 686.897 47.4994 686.382 47.7054C685.877 47.9114 685.311 48.0144 684.683 48.0144C684.477 48.0144 684.286 48.0041 684.111 47.9835C683.946 47.9732 683.792 47.9474 683.648 47.9062C683.504 47.8753 683.359 47.8393 683.215 47.7981C683.071 47.7466 682.922 47.69 682.767 47.6282V50.8877H681.346V39.688ZM684.976 40.6612C684.358 40.6612 683.874 40.8157 683.524 41.1246C683.174 41.4336 682.922 41.9073 682.767 42.5458V46.2842C683.004 46.449 683.262 46.5777 683.54 46.6704C683.818 46.7631 684.173 46.8094 684.606 46.8094C685.44 46.8094 686.094 46.5365 686.567 45.9907C687.041 45.4449 687.278 44.6313 687.278 43.5499C687.278 42.6746 687.103 41.9743 686.753 41.449C686.403 40.9238 685.81 40.6612 684.976 40.6612ZM690.984 40.1978C691.911 39.7549 693.059 39.5335 694.429 39.5335C695.046 39.5335 695.541 39.6159 695.912 39.7807C696.293 39.9351 696.586 40.136 696.792 40.3831C696.998 40.6303 697.132 40.9084 697.194 41.2173C697.266 41.516 697.302 41.8146 697.302 42.1133C697.302 42.6797 697.281 43.2513 697.24 43.828C697.199 44.3944 697.178 45.0123 697.178 45.6817C697.178 46.0731 697.194 46.4541 697.225 46.8249C697.266 47.1853 697.328 47.52 697.41 47.829H696.375L695.989 46.5932H695.834C695.721 46.7476 695.582 46.9073 695.417 47.072C695.252 47.2265 695.057 47.3656 694.83 47.4891C694.604 47.6127 694.341 47.7157 694.042 47.7981C693.754 47.8805 693.419 47.9217 693.038 47.9217C692.657 47.9217 692.307 47.8702 691.988 47.7672C691.669 47.6539 691.39 47.4994 691.154 47.3038C690.927 47.1081 690.747 46.8712 690.613 46.5932C690.479 46.3048 690.412 45.9856 690.412 45.6354C690.412 45.172 690.51 44.7703 690.706 44.4305C690.912 44.0906 691.174 43.8126 691.493 43.5963C691.813 43.38 692.173 43.2204 692.575 43.1174C692.987 43.0144 693.394 42.9629 693.795 42.9629C694.114 42.9629 694.382 42.9681 694.598 42.9784C694.825 42.9887 695.01 43.0041 695.155 43.0247C695.309 43.035 695.438 43.0505 695.541 43.0711C695.644 43.0814 695.736 43.0917 695.819 43.102C695.839 42.9475 695.855 42.8136 695.865 42.7003C695.876 42.587 695.881 42.4428 695.881 42.2678C695.881 41.9794 695.85 41.7374 695.788 41.5417C695.726 41.3461 695.623 41.1916 695.479 41.0783C695.345 40.9547 695.16 40.8672 694.923 40.8157C694.686 40.7642 694.398 40.7384 694.058 40.7384C693.862 40.7384 693.646 40.7539 693.409 40.7848C693.172 40.8157 692.935 40.862 692.698 40.9238C692.462 40.9753 692.225 41.0422 691.988 41.1246C691.761 41.207 691.555 41.2946 691.37 41.3872L690.984 40.1978ZM695.819 44.1215C695.736 44.1112 695.649 44.0958 695.556 44.0752C695.464 44.0546 695.345 44.0391 695.201 44.0288C695.067 44.0185 694.902 44.0082 694.707 43.9979C694.521 43.9876 694.29 43.9825 694.011 43.9825C693.373 43.9825 692.863 44.0958 692.482 44.3223C692.111 44.5489 691.926 44.9351 691.926 45.4809C691.926 45.8929 692.07 46.2018 692.359 46.4078C692.657 46.6138 693.038 46.7167 693.502 46.7167C693.842 46.7167 694.14 46.6756 694.398 46.5932C694.665 46.5005 694.892 46.3923 695.077 46.2688C695.273 46.1349 695.428 45.9907 695.541 45.8362C695.664 45.6714 695.757 45.5118 695.819 45.3573V44.1215ZM705.567 44.2605H701.489V47.7981H700.067V39.688H701.489V42.9938H705.567V39.688H706.988V47.7981H705.567V44.2605ZM715.392 40.8929H712.581V47.7981H711.159V40.8929H708.348V39.688H715.392V40.8929ZM722.36 43.1637L722.576 41.5572H722.406L721.649 43.0711L717.849 47.7981H716.752V39.688H718.174V44.4768L718.065 45.898H718.235L718.946 44.5232L722.669 39.688H723.781V47.7981H722.36V43.1637ZM731.287 44.6004L729.819 44.8012L727.517 47.7981H725.756L727.795 45.1411V45.1565L728.66 44.5695C727.94 44.4871 727.368 44.2348 726.946 43.8126C726.534 43.38 726.328 42.8548 726.328 42.2369C726.328 41.7528 726.421 41.3358 726.606 40.9856C726.791 40.6355 727.054 40.3471 727.394 40.1205C727.744 39.894 728.161 39.7292 728.645 39.6262C729.139 39.5232 729.69 39.4717 730.298 39.4717C730.689 39.4717 731.096 39.4975 731.518 39.549C731.951 39.6004 732.347 39.6674 732.708 39.7498V47.7981H731.287V44.6004ZM731.287 43.7199V40.8002C731.122 40.7487 730.931 40.7178 730.715 40.7075C730.509 40.6869 730.329 40.6766 730.174 40.6766C729.402 40.6766 728.82 40.8002 728.429 41.0474C728.037 41.2946 727.842 41.6859 727.842 42.2214C727.842 42.7364 728.068 43.1226 728.521 43.38C728.985 43.6375 729.587 43.7559 730.329 43.7353L731.287 43.7199ZM745.424 44.2605H741.345V47.7981H739.924V39.688H741.345V42.9938H745.424V39.688H746.845V47.7981H745.424V44.2605ZM749.471 40.1978C750.398 39.7549 751.546 39.5335 752.916 39.5335C753.534 39.5335 754.028 39.6159 754.399 39.7807C754.78 39.9351 755.074 40.136 755.28 40.3831C755.486 40.6303 755.619 40.9084 755.681 41.2173C755.753 41.516 755.789 41.8146 755.789 42.1133C755.789 42.6797 755.769 43.2513 755.728 43.828C755.686 44.3944 755.666 45.0123 755.666 45.6817C755.666 46.0731 755.681 46.4541 755.712 46.8249C755.753 47.1853 755.815 47.52 755.898 47.829H754.863L754.476 46.5932H754.322C754.209 46.7476 754.07 46.9073 753.905 47.072C753.74 47.2265 753.544 47.3656 753.318 47.4891C753.091 47.6127 752.829 47.7157 752.53 47.7981C752.242 47.8805 751.907 47.9217 751.526 47.9217C751.145 47.9217 750.795 47.8702 750.475 47.7672C750.156 47.6539 749.878 47.4994 749.641 47.3038C749.415 47.1081 749.234 46.8712 749.1 46.5932C748.967 46.3048 748.9 45.9856 748.9 45.6354C748.9 45.172 748.998 44.7703 749.193 44.4305C749.399 44.0906 749.662 43.8126 749.981 43.5963C750.3 43.38 750.661 43.2204 751.062 43.1174C751.474 43.0144 751.881 42.9629 752.283 42.9629C752.602 42.9629 752.87 42.9681 753.086 42.9784C753.313 42.9887 753.498 43.0041 753.642 43.0247C753.797 43.035 753.925 43.0505 754.028 43.0711C754.131 43.0814 754.224 43.0917 754.306 43.102C754.327 42.9475 754.342 42.8136 754.353 42.7003C754.363 42.587 754.368 42.4428 754.368 42.2678C754.368 41.9794 754.337 41.7374 754.276 41.5417C754.214 41.3461 754.111 41.1916 753.967 41.0783C753.833 40.9547 753.647 40.8672 753.41 40.8157C753.174 40.7642 752.885 40.7384 752.545 40.7384C752.35 40.7384 752.133 40.7539 751.897 40.7848C751.66 40.8157 751.423 40.862 751.186 40.9238C750.949 40.9753 750.712 41.0422 750.475 41.1246C750.249 41.207 750.043 41.2946 749.857 41.3872L749.471 40.1978ZM754.306 44.1215C754.224 44.1112 754.136 44.0958 754.044 44.0752C753.951 44.0546 753.833 44.0391 753.688 44.0288C753.555 44.0185 753.39 44.0082 753.194 43.9979C753.009 43.9876 752.777 43.9825 752.499 43.9825C751.861 43.9825 751.351 44.0958 750.97 44.3223C750.599 44.5489 750.414 44.9351 750.414 45.4809C750.414 45.8929 750.558 46.2018 750.846 46.4078C751.145 46.6138 751.526 46.7167 751.989 46.7167C752.329 46.7167 752.628 46.6756 752.885 46.5932C753.153 46.5005 753.38 46.3923 753.565 46.2688C753.761 46.1349 753.915 45.9907 754.028 45.8362C754.152 45.6714 754.245 45.5118 754.306 45.3573V44.1215ZM768.457 40.8929H764.472V47.7981H763.051V39.688H769.879V47.7981H768.457V40.8929ZM772.6 39.688H773.558L773.836 40.723H773.975C774.253 40.3213 774.613 40.0124 775.056 39.7961C775.499 39.5696 775.998 39.4563 776.555 39.4563C777.729 39.4563 778.604 39.7858 779.181 40.4449C779.757 41.0937 780.046 42.1339 780.046 43.5654C780.046 44.2451 779.948 44.863 779.752 45.4191C779.567 45.965 779.294 46.4335 778.934 46.8249C778.583 47.2059 778.151 47.4994 777.636 47.7054C777.131 47.9114 776.565 48.0144 775.937 48.0144C775.731 48.0144 775.54 48.0041 775.365 47.9835C775.2 47.9732 775.046 47.9474 774.902 47.9062C774.757 47.8753 774.613 47.8393 774.469 47.7981C774.325 47.7466 774.176 47.69 774.021 47.6282V50.8877H772.6V39.688ZM776.23 40.6612C775.612 40.6612 775.128 40.8157 774.778 41.1246C774.428 41.4336 774.176 41.9073 774.021 42.5458V46.2842C774.258 46.449 774.515 46.5777 774.793 46.6704C775.072 46.7631 775.427 46.8094 775.859 46.8094C776.694 46.8094 777.348 46.5365 777.821 45.9907C778.295 45.4449 778.532 44.6313 778.532 43.5499C778.532 42.6746 778.357 41.9743 778.007 41.449C777.656 40.9238 777.064 40.6612 776.23 40.6612ZM781.898 43.7508C781.898 43.0814 781.985 42.484 782.16 41.9588C782.335 41.4233 782.593 40.9702 782.933 40.5994C783.273 40.2287 783.684 39.9454 784.169 39.7498C784.663 39.5541 785.224 39.4563 785.852 39.4563C786.511 39.4563 787.088 39.5644 787.582 39.7807C788.077 39.9969 788.489 40.3007 788.818 40.6921C789.148 41.0731 789.39 41.5263 789.544 42.0515C789.709 42.5664 789.792 43.1329 789.792 43.7508C789.792 44.4099 789.699 45.002 789.513 45.5273C789.338 46.0525 789.081 46.5005 788.741 46.8712C788.412 47.242 788 47.5252 787.505 47.7209C787.021 47.9165 786.47 48.0144 785.852 48.0144C785.173 48.0144 784.586 47.9062 784.091 47.69C783.597 47.4737 783.185 47.175 782.855 46.794C782.536 46.4129 782.294 45.965 782.129 45.45C781.975 44.9248 781.898 44.3584 781.898 43.7508ZM783.412 43.7508C783.412 44.1318 783.453 44.5077 783.535 44.8785C783.628 45.2389 783.772 45.5633 783.968 45.8517C784.163 46.14 784.416 46.3717 784.725 46.5468C785.034 46.7219 785.415 46.8094 785.868 46.8094C787.474 46.8094 788.278 45.7899 788.278 43.7508C788.278 43.3491 788.231 42.9629 788.139 42.5922C788.056 42.2214 787.917 41.897 787.722 41.619C787.536 41.3306 787.289 41.0989 786.98 40.9238C786.671 40.7487 786.3 40.6612 785.868 40.6612C785.064 40.6612 784.452 40.9187 784.029 41.4336C783.618 41.9382 783.412 42.7106 783.412 43.7508ZM799.909 49.8372H798.936L798.689 47.7981H791.861L791.583 49.8372H790.641V46.5932H791.676C791.779 46.4696 791.908 46.2533 792.062 45.9444C792.227 45.6354 792.386 45.208 792.541 44.6622C792.695 44.1061 792.829 43.4212 792.943 42.6076C793.066 41.794 793.133 40.8208 793.143 39.688H798.596V46.5932H799.909V49.8372ZM797.175 46.5932V40.8929H794.426C794.395 41.3563 794.348 41.8507 794.286 42.3759C794.225 42.9011 794.137 43.4212 794.024 43.9361C793.921 44.4408 793.797 44.9248 793.653 45.3882C793.509 45.8517 793.339 46.2533 793.143 46.5932H797.175ZM804.158 44.8167L804.637 46.3769H804.838L805.224 44.8012L806.908 39.688H808.36L805.703 47.0257C805.507 47.5303 805.306 48.0195 805.1 48.4932C804.905 48.967 804.683 49.3841 804.436 49.7445C804.199 50.1153 803.931 50.4088 803.633 50.625C803.344 50.8516 803.01 50.9649 802.629 50.9649C802.217 50.9649 801.867 50.9186 801.578 50.8259L801.81 49.6209C801.964 49.6724 802.119 49.6982 802.273 49.6982C802.479 49.6982 802.665 49.6724 802.83 49.6209C803.005 49.5694 803.164 49.4768 803.308 49.3429C803.453 49.209 803.581 49.0185 803.695 48.7713C803.818 48.5344 803.931 48.2255 804.034 47.8444L800.404 39.688H802.088L804.158 44.8167ZM812.148 44.1524H811.268V47.7981H809.847V39.688H811.268V43.38L812.117 43.102L814.883 39.688H816.443L813.801 42.8393H813.817L812.983 43.4418L813.987 44.137L816.845 47.7981H815.053L812.148 44.1524ZM826.358 49.8372H825.401L825.138 47.7981H818.295V39.688H819.716V46.5932H823.624V39.688H825.045V46.5932H826.358V49.8372ZM833.633 43.1637L833.849 41.5572H833.679L832.922 43.0711L829.122 47.7981H828.025V39.688H829.446V44.4768L829.338 45.898H829.508L830.219 44.5232L833.942 39.688H835.054V47.7981H833.633V43.1637ZM844.799 48.0144C844.161 48.0144 843.615 47.9217 843.162 47.7363C842.709 47.5509 842.333 47.2935 842.034 46.9639C841.735 46.6344 841.509 46.2379 841.354 45.7744C841.21 45.3007 841.117 44.7806 841.076 44.2142H839.192V47.7981H837.77V39.688H839.192V43.0093H841.092C841.195 41.8867 841.545 41.0165 842.142 40.3986C842.75 39.7704 843.646 39.4563 844.83 39.4563C845.479 39.4563 846.03 39.5644 846.483 39.7807C846.946 39.9866 847.322 40.2802 847.611 40.6612C847.909 41.0422 848.126 41.4954 848.26 42.0206C848.404 42.5458 848.476 43.1226 848.476 43.7508C848.476 45.0896 848.172 46.1349 847.564 46.8867C846.957 47.6385 846.035 48.0144 844.799 48.0144ZM842.497 43.7508C842.497 44.173 842.534 44.5695 842.606 44.9402C842.678 45.311 842.801 45.6354 842.976 45.9135C843.151 46.1915 843.388 46.4129 843.687 46.5777C843.986 46.7322 844.362 46.8094 844.815 46.8094C845.587 46.8094 846.138 46.5623 846.468 46.0679C846.797 45.5736 846.962 44.8012 846.962 43.7508C846.962 43.3388 846.926 42.9475 846.854 42.5767C846.792 42.1957 846.679 41.8661 846.514 41.5881C846.349 41.2997 846.128 41.0731 845.85 40.9084C845.572 40.7436 845.221 40.6612 844.799 40.6612C843.986 40.6612 843.399 40.9135 843.038 41.4181C842.678 41.9125 842.497 42.69 842.497 43.7508ZM668.694 66.0988C669.436 66.0988 670.002 65.9547 670.393 65.6663C670.795 65.3676 670.996 64.9402 670.996 64.3841C670.996 63.7868 670.764 63.3491 670.301 63.0711C669.837 62.793 669.178 62.654 668.323 62.654L666.979 62.7158V56.9846H672.757V58.9928H668.864V60.9084L669.559 60.8466C670.105 60.8672 670.599 60.965 671.042 61.1401C671.485 61.3049 671.861 61.5366 672.17 61.8352C672.489 62.1339 672.731 62.4943 672.896 62.9166C673.071 63.3388 673.159 63.8074 673.159 64.3223C673.159 64.9299 673.045 65.4655 672.819 65.9289C672.592 66.3923 672.278 66.7785 671.876 67.0875C671.485 67.3965 671.016 67.6282 670.471 67.7826C669.935 67.9371 669.353 68.0144 668.725 68.0144C668.22 68.0144 667.736 67.9732 667.273 67.8908C666.82 67.8084 666.439 67.7003 666.13 67.5664L666.717 65.7744C666.974 65.8671 667.252 65.9444 667.551 66.0061C667.86 66.0679 668.241 66.0988 668.694 66.0988ZM684.094 61.6035H682.194C682.163 62.4686 682.096 63.2822 681.993 64.0443C681.901 64.8064 681.746 65.4758 681.53 66.0525C681.314 66.6189 681.025 67.0669 680.665 67.3965C680.315 67.726 679.862 67.8908 679.305 67.8908C678.657 67.8908 678.198 67.8187 677.931 67.6745L678.24 65.759C678.415 65.8105 678.574 65.8362 678.718 65.8362C678.966 65.8362 679.182 65.7487 679.367 65.5736C679.553 65.3985 679.707 65.0844 679.831 64.6313C679.954 64.1679 680.052 63.5396 680.124 62.7467C680.207 61.9537 680.268 60.9341 680.31 59.688H686.257V67.7981H684.094V61.6035ZM695.412 67.0566C695.062 67.3244 694.583 67.5561 693.975 67.7518C693.378 67.9371 692.734 68.0298 692.044 68.0298C690.654 68.0298 689.634 67.6488 688.986 66.8867C688.337 66.1246 688.012 65.0793 688.012 63.7508C688.012 62.3399 688.378 61.274 689.109 60.5531C689.84 59.8219 690.87 59.4563 692.199 59.4563C692.631 59.4563 693.059 59.5129 693.481 59.6262C693.903 59.7292 694.279 59.9094 694.609 60.1669C694.938 60.414 695.201 60.7539 695.396 61.1864C695.602 61.6087 695.705 62.1339 695.705 62.7621C695.705 62.9784 695.69 63.2152 695.659 63.4727C695.638 63.7302 695.597 63.9979 695.535 64.276H690.129C690.18 64.9763 690.381 65.4964 690.731 65.8362C691.092 66.1658 691.674 66.3306 692.477 66.3306C692.961 66.3306 693.393 66.2636 693.774 66.1297C694.166 65.9855 694.464 65.8414 694.67 65.6972L695.412 67.0566ZM692.168 61.1555C691.529 61.1555 691.056 61.3306 690.747 61.6808C690.438 62.0206 690.257 62.4583 690.206 62.9938H693.697C693.738 62.4274 693.635 61.9794 693.388 61.6499C693.141 61.3203 692.734 61.1555 692.168 61.1555ZM703.951 61.6035H701.433V67.7981H699.177V61.6035H696.659V59.688H703.951V61.6035Z" fill="black"/>
<g clip-path="url(#clip0_200_299)">
<path d="M647.442 21.3932C638.476 19.0683 629.456 15.4482 621.359 10.9241C620.996 10.7211 620.554 10.7211 620.19 10.9241C611.861 15.5777 603.329 19.0022 594.107 21.3932C593.579 21.5303 593.21 22.0073 593.21 22.5533V35.7838C593.21 49.3907 599.836 58.3916 605.395 63.5463C611.359 69.076 618.274 72.1341 620.775 72.1341C623.275 72.1341 630.191 69.076 636.154 63.5463C641.713 58.3914 648.34 49.3906 648.34 35.7838V22.5533C648.34 22.0074 647.971 21.5303 647.442 21.3932ZM634.524 61.7888C631.222 64.8513 628.012 66.7847 625.902 67.8673C623.227 69.2392 621.37 69.7373 620.775 69.7373C620.18 69.7373 618.323 69.2393 615.648 67.8673C613.538 66.7846 610.328 64.8513 607.025 61.7888C601.816 56.9584 595.607 48.5258 595.607 35.7838V23.4768C604.471 21.1038 612.721 17.7811 620.775 13.3409C628.625 17.6626 637.293 21.1532 645.943 23.4764V35.7838C645.943 48.5258 639.734 56.9584 634.524 61.7888Z" fill="#62BB46"/>
<path d="M643.282 24.5987C635.691 22.3919 628.308 19.3945 621.339 15.6897C620.987 15.5027 620.565 15.5027 620.213 15.6903C613.233 19.4103 605.85 22.4083 598.27 24.601C597.757 24.7492 597.404 25.2186 597.404 25.7522V35.7837C597.404 40.467 598.292 44.9114 600.042 48.9936C601.783 53.0552 604.381 56.7622 607.761 60.0114C610.179 62.3352 612.971 64.3831 615.835 65.9336C616.348 66.2114 618.987 67.6117 620.557 67.9016C620.629 67.9149 620.702 67.9216 620.775 67.9216C620.848 67.9216 620.92 67.9149 620.992 67.9016C622.562 67.6118 625.201 66.2114 625.715 65.9336C628.578 64.3832 631.37 62.3355 633.788 60.0115C637.169 56.7623 639.766 53.0554 641.507 48.9937C643.258 44.9114 644.145 40.467 644.145 35.7837V25.7496C644.145 25.2166 643.793 24.7476 643.282 24.5987ZM641.748 35.7837C641.748 44.5775 638.511 52.1475 632.127 58.2832C629.863 60.4599 627.251 62.3764 624.574 63.8256C623.355 64.4851 621.71 65.254 620.775 65.4955C619.839 65.254 618.194 64.4852 616.976 63.8256C614.299 62.3764 611.687 60.4599 609.422 58.2832C603.038 52.1475 599.801 44.5776 599.801 35.7837V26.6495C607.035 24.4957 614.084 21.6238 620.777 18.1037C627.46 21.6093 634.508 24.4802 641.748 26.6456V35.7837Z" fill="#62BB46"/>
<path d="M610.831 53.714L610.802 53.6826C610.352 53.1967 609.594 53.1672 609.108 53.6167C608.622 54.0661 608.592 54.8244 609.042 55.3102C609.043 55.3116 609.052 55.3216 609.057 55.3262C609.293 55.5834 609.616 55.7143 609.94 55.7143C610.226 55.7143 610.512 55.6127 610.741 55.4066C611.233 54.9636 611.273 54.2058 610.831 53.714Z" fill="#62BB46"/>
<path d="M617.295 59.1542C615.852 58.2433 614.461 57.1932 613.163 56.0328C612.67 55.5917 611.912 55.634 611.471 56.1276C611.03 56.621 611.072 57.3787 611.566 57.8199C612.963 59.0687 614.46 60.1997 616.016 61.1814C616.214 61.3068 616.435 61.3665 616.654 61.3665C617.052 61.3665 617.441 61.1686 617.669 60.8074C618.022 60.2474 617.855 59.5074 617.295 59.1542Z" fill="#62BB46"/>
<path d="M631.269 31.7918C630.562 31.0851 629.62 30.6961 628.616 30.6961C627.612 30.6961 626.67 31.0853 625.963 31.7918L618.349 39.4065L615.586 36.6434C614.879 35.9367 613.937 35.5476 612.933 35.5476C611.929 35.5476 610.987 35.9367 610.28 36.6434C608.818 38.106 608.818 40.4861 610.28 41.9487L615.696 47.3646C616.403 48.0712 617.345 48.4603 618.349 48.4603C619.353 48.4603 620.295 48.0712 621.002 47.3646L631.269 37.0972C631.976 36.3907 632.365 35.4486 632.365 34.4445C632.365 33.4404 631.976 32.4984 631.269 31.7918ZM629.574 35.4023L619.307 45.6697C619.053 45.9235 618.713 46.0634 618.349 46.0634C617.985 46.0634 617.645 45.9236 617.391 45.6697L611.975 40.2539C611.722 40.0001 611.582 39.66 611.582 39.2962C611.582 38.9324 611.722 38.5922 611.975 38.3384C612.229 38.0845 612.569 37.9448 612.933 37.9448C613.297 37.9448 613.637 38.0845 613.891 38.3384L617.502 41.9489C617.97 42.417 618.728 42.417 619.196 41.9489L627.659 33.4868C627.912 33.2329 628.252 33.0932 628.616 33.0932C628.98 33.0932 629.32 33.2331 629.574 33.4869C629.828 33.7407 629.968 34.0809 629.968 34.4446C629.968 34.8085 629.828 35.1486 629.574 35.4023Z" fill="#62BB46"/>
</g>
<path d="M985.207 47.6973C984.867 47.9341 984.419 48.1041 983.863 48.207C983.307 48.3203 982.735 48.377 982.148 48.377C981.458 48.377 980.794 48.274 980.156 48.068C979.527 47.862 978.966 47.5325 978.472 47.0794C977.988 46.6262 977.602 46.0444 977.313 45.3338C977.025 44.6232 976.881 43.7632 976.881 42.754C976.881 41.7035 977.045 40.823 977.375 40.1124C977.704 39.3915 978.127 38.8148 978.642 38.3822C979.157 37.9394 979.728 37.6201 980.356 37.4245C980.985 37.2288 981.602 37.131 982.21 37.131C982.88 37.131 983.441 37.1721 983.894 37.2545C984.357 37.3369 984.738 37.4348 985.037 37.548L984.589 39.4636C984.332 39.3503 984.028 39.2679 983.678 39.2164C983.338 39.1649 982.905 39.1392 982.38 39.1392C981.917 39.1392 981.494 39.2164 981.113 39.3709C980.743 39.5151 980.423 39.7365 980.156 40.0351C979.888 40.3338 979.677 40.7097 979.522 41.1628C979.378 41.616 979.306 42.1463 979.306 42.754C979.306 43.2895 979.373 43.7787 979.507 44.2215C979.641 44.6643 979.841 45.0454 980.109 45.3646C980.377 45.6839 980.717 45.9311 981.129 46.1061C981.541 46.2812 982.02 46.3688 982.565 46.3688C983.07 46.3688 983.492 46.3224 983.832 46.2297C984.182 46.137 984.491 46.0186 984.759 45.8744L985.207 47.6973ZM993.091 47.4192C992.741 47.687 992.262 47.9187 991.654 48.1144C991.057 48.2997 990.413 48.3924 989.723 48.3924C988.333 48.3924 987.313 48.0114 986.665 47.2493C986.016 46.4872 985.691 45.4419 985.691 44.1134C985.691 42.7025 986.057 41.6366 986.788 40.9157C987.519 40.1845 988.549 39.8189 989.878 39.8189C990.31 39.8189 990.738 39.8755 991.16 39.9888C991.582 40.0918 991.958 40.272 992.288 40.5295C992.617 40.7766 992.88 41.1165 993.075 41.549C993.281 41.9713 993.384 42.4965 993.384 43.1247C993.384 43.341 993.369 43.5778 993.338 43.8353C993.318 44.0928 993.276 44.3605 993.215 44.6386H987.808C987.859 45.3389 988.06 45.859 988.41 46.1988C988.771 46.5284 989.353 46.6932 990.156 46.6932C990.64 46.6932 991.072 46.6262 991.453 46.4923C991.845 46.3482 992.143 46.204 992.349 46.0598L993.091 47.4192ZM989.847 41.5181C989.208 41.5181 988.735 41.6932 988.426 42.0434C988.117 42.3832 987.937 42.8209 987.885 43.3564H991.376C991.417 42.79 991.314 42.342 991.067 42.0125C990.82 41.6829 990.413 41.5181 989.847 41.5181ZM995.327 40.0506H996.872L997.134 41.0547H997.32C997.639 40.6428 998.01 40.3338 998.432 40.1278C998.854 39.9219 999.349 39.8189 999.915 39.8189C1001.01 39.8189 1001.83 40.1484 1002.37 40.8075C1002.92 41.4563 1003.19 42.4914 1003.19 43.9126C1003.19 44.5923 1003.1 45.2102 1002.93 45.7663C1002.75 46.3121 1002.49 46.7858 1002.15 47.1875C1001.82 47.5788 1001.39 47.8826 1000.89 48.0989C1000.39 48.3049 999.822 48.4079 999.174 48.4079C998.823 48.4079 998.52 48.3718 998.262 48.2997C998.005 48.2379 997.747 48.1504 997.49 48.0371V51.2348H995.327V40.0506ZM999.251 41.6263C998.756 41.6263 998.375 41.7396 998.108 41.9661C997.84 42.1824 997.634 42.5222 997.49 42.9857V46.137C997.665 46.2812 997.86 46.3945 998.077 46.4769C998.293 46.5593 998.566 46.6005 998.895 46.6005C999.596 46.6005 1000.12 46.3842 1000.46 45.9517C1000.8 45.5088 1000.97 44.8085 1000.97 43.8508C1000.97 43.1608 1000.83 42.6201 1000.56 42.2287C1000.31 41.8271 999.869 41.6263 999.251 41.6263ZM1011.12 41.9661H1008.6V48.1607H1006.35V41.9661H1003.83V40.0506H1011.12V41.9661ZM1017.73 44.4996L1017.83 43.1247L1016.85 44.4841L1013.66 48.1607H1012.36V40.0506H1014.52V43.8662L1014.44 44.9785H1014.63C1014.75 44.8034 1014.88 44.618 1015 44.4223C1015.13 44.2267 1015.26 44.0413 1015.39 43.8662L1018.6 40.0506H1019.9V48.1607H1017.73V44.4996ZM1026.18 48.2225C1025.91 48.3049 1025.67 48.3512 1025.46 48.3615C1025.24 48.3821 1025.04 48.3924 1024.87 48.3924C1023.8 48.3924 1022.98 48.0423 1022.41 47.342C1021.85 46.6314 1021.56 45.5552 1021.56 44.1134C1021.56 42.7437 1021.88 41.6984 1022.51 40.9775C1023.13 40.2566 1024.04 39.8961 1025.22 39.8961C1025.37 39.8961 1025.52 39.9013 1025.67 39.9116C1025.83 39.9219 1026 39.9425 1026.18 39.9734V37.3472H1028.27V39.9888C1028.54 39.9476 1028.76 39.9219 1028.93 39.9116C1029.12 39.9013 1029.28 39.8961 1029.43 39.8961C1030.58 39.8961 1031.44 40.2102 1032.02 40.8384C1032.6 41.4666 1032.89 42.5016 1032.89 43.9434C1032.89 44.6129 1032.81 45.2256 1032.65 45.7817C1032.5 46.3276 1032.27 46.7961 1031.98 47.1875C1031.68 47.5685 1031.31 47.8672 1030.86 48.0835C1030.42 48.2894 1029.91 48.3924 1029.33 48.3924C1029.23 48.3924 1029.07 48.377 1028.84 48.3461C1028.62 48.3255 1028.43 48.2894 1028.27 48.2379V51.2503H1026.18V48.2225ZM1028.17 46.6314C1028.31 46.6623 1028.44 46.6829 1028.56 46.6932C1028.69 46.6932 1028.84 46.6932 1029.01 46.6932C1029.6 46.6932 1030.03 46.482 1030.31 46.0598C1030.58 45.6273 1030.72 44.9218 1030.72 43.9434C1030.72 43.1093 1030.59 42.5068 1030.32 42.1361C1030.05 41.7653 1029.59 41.5799 1028.92 41.5799C1028.78 41.5799 1028.66 41.5902 1028.55 41.6108C1028.44 41.6211 1028.32 41.6469 1028.17 41.6881V46.6314ZM1026.27 41.6726C1026.1 41.6314 1025.96 41.6057 1025.86 41.5954C1025.75 41.5851 1025.63 41.5799 1025.49 41.5799C1024.91 41.5799 1024.47 41.7756 1024.17 42.1669C1023.88 42.548 1023.73 43.1968 1023.73 44.1134C1023.73 44.9167 1023.86 45.55 1024.14 46.0135C1024.42 46.4666 1024.85 46.6932 1025.44 46.6932C1025.7 46.6932 1025.98 46.6571 1026.27 46.585V41.6726ZM1039.93 44.4996L1040.02 43.1247L1039.05 44.4841L1035.85 48.1607H1034.55V40.0506H1036.71V43.8662L1036.64 44.9785H1036.82C1036.94 44.8034 1037.07 44.618 1037.19 44.4223C1037.33 44.2267 1037.45 44.0413 1037.58 43.8662L1040.79 40.0506H1042.09V48.1607H1039.93V44.4996ZM1052.85 49.999H1051.32L1051.06 48.1607H1044.31V40.0506H1046.47V46.2452H1049.39V40.0506H1051.56V46.2452H1052.85V49.999ZM1059.64 44.4996L1059.74 43.1247L1058.76 44.4841L1055.56 48.1607H1054.27V40.0506H1056.43V43.8662L1056.35 44.9785H1056.54C1056.66 44.8034 1056.79 44.618 1056.91 44.4223C1057.04 44.2267 1057.17 44.0413 1057.29 43.8662L1060.51 40.0506H1061.81V48.1607H1059.64V44.4996ZM1064.03 40.0506H1065.57L1065.84 41.0547H1066.02C1066.34 40.6428 1066.71 40.3338 1067.13 40.1278C1067.55 39.9219 1068.05 39.8189 1068.62 39.8189C1069.71 39.8189 1070.53 40.1484 1071.07 40.8075C1071.62 41.4563 1071.89 42.4914 1071.89 43.9126C1071.89 44.5923 1071.8 45.2102 1071.63 45.7663C1071.45 46.3121 1071.2 46.7858 1070.86 47.1875C1070.52 47.5788 1070.09 47.8826 1069.59 48.0989C1069.09 48.3049 1068.52 48.4079 1067.87 48.4079C1067.52 48.4079 1067.22 48.3718 1066.96 48.2997C1066.71 48.2379 1066.45 48.1504 1066.19 48.0371V51.2348H1064.03V40.0506ZM1067.95 41.6263C1067.46 41.6263 1067.08 41.7396 1066.81 41.9661C1066.54 42.1824 1066.33 42.5222 1066.19 42.9857V46.137C1066.37 46.2812 1066.56 46.3945 1066.78 46.4769C1066.99 46.5593 1067.27 46.6005 1067.6 46.6005C1068.3 46.6005 1068.82 46.3842 1069.16 45.9517C1069.5 45.5088 1069.67 44.8085 1069.67 43.8508C1069.67 43.1608 1069.53 42.6201 1069.26 42.2287C1069.01 41.8271 1068.57 41.6263 1067.95 41.6263ZM1073.19 44.1134C1073.19 42.7746 1073.54 41.7241 1074.25 40.962C1074.97 40.1999 1075.98 39.8189 1077.3 39.8189C1077.99 39.8189 1078.59 39.927 1079.11 40.1433C1079.62 40.3595 1080.05 40.6634 1080.39 41.0547C1080.73 41.4357 1080.98 41.8889 1081.14 42.4141C1081.32 42.929 1081.41 43.4955 1081.41 44.1134C1081.41 44.7725 1081.31 45.3698 1081.13 45.9053C1080.94 46.4305 1080.68 46.8785 1080.33 47.2493C1079.98 47.62 1079.54 47.9032 1079.03 48.0989C1078.52 48.2946 1077.95 48.3924 1077.3 48.3924C1076.6 48.3924 1075.99 48.2843 1075.48 48.068C1074.96 47.8517 1074.53 47.5531 1074.19 47.172C1073.85 46.7807 1073.6 46.3276 1073.44 45.8126C1073.27 45.2874 1073.19 44.721 1073.19 44.1134ZM1075.41 44.1134C1075.41 44.4532 1075.45 44.7725 1075.52 45.0711C1075.59 45.3698 1075.7 45.6324 1075.85 45.859C1076 46.0752 1076.2 46.2503 1076.43 46.3842C1076.67 46.5181 1076.96 46.585 1077.3 46.585C1078.55 46.585 1079.18 45.7611 1079.18 44.1134C1079.18 43.7529 1079.15 43.4234 1079.07 43.1247C1079.01 42.8158 1078.9 42.5531 1078.75 42.3369C1078.61 42.1103 1078.41 41.9352 1078.16 41.8116C1077.93 41.6881 1077.64 41.6263 1077.3 41.6263C1076.71 41.6263 1076.25 41.8219 1075.91 42.2133C1075.58 42.6046 1075.41 43.238 1075.41 44.1134ZM1083.17 40.0506C1083.59 40.0197 1084.09 39.9888 1084.65 39.9579C1085.22 39.927 1085.84 39.9116 1086.52 39.9116C1087.8 39.9116 1088.71 40.0815 1089.24 40.4213C1089.78 40.7612 1090.05 41.2658 1090.05 41.9352C1090.05 42.3163 1089.93 42.6819 1089.69 43.032C1089.45 43.3822 1089.08 43.6448 1088.58 43.8199V43.9434C1089.22 44.0773 1089.68 44.309 1089.97 44.6386C1090.27 44.9579 1090.42 45.3749 1090.42 45.8899C1090.42 46.6932 1090.08 47.2956 1089.4 47.6973C1088.72 48.0989 1087.64 48.2997 1086.15 48.2997C1085.67 48.2997 1085.15 48.2843 1084.61 48.2534C1084.07 48.2328 1083.59 48.2019 1083.17 48.1607V40.0506ZM1085.29 46.5078C1085.49 46.549 1085.67 46.5747 1085.81 46.585C1085.97 46.5953 1086.15 46.6005 1086.35 46.6005C1087.05 46.6005 1087.54 46.5181 1087.81 46.3533C1088.08 46.1782 1088.22 45.9311 1088.22 45.6118C1088.22 45.3235 1088.1 45.0917 1087.87 44.9167C1087.63 44.7313 1087.2 44.6386 1086.57 44.6386H1085.29V46.5078ZM1086.6 43.3564C1087.01 43.3564 1087.35 43.2792 1087.6 43.1247C1087.86 42.9599 1087.99 42.7488 1087.99 42.4914C1087.99 42.2133 1087.88 41.997 1087.65 41.8425C1087.44 41.6881 1087.04 41.6108 1086.46 41.6108C1086.26 41.6108 1086.09 41.616 1085.95 41.6263C1085.82 41.6366 1085.69 41.6469 1085.58 41.6572C1085.54 41.6572 1085.49 41.6623 1085.43 41.6726C1085.37 41.6726 1085.32 41.6726 1085.29 41.6726V43.3564H1086.6ZM1092.01 40.6067C1092.47 40.4007 1093.04 40.2308 1093.71 40.0969C1094.39 39.9631 1095.09 39.8961 1095.81 39.8961C1096.38 39.8961 1096.85 39.9631 1097.23 40.0969C1097.62 40.2308 1097.93 40.4265 1098.16 40.684C1098.38 40.9311 1098.54 41.2349 1098.64 41.5954C1098.74 41.9455 1098.79 42.3369 1098.79 42.7694C1098.79 43.2946 1098.77 43.8147 1098.73 44.3296C1098.69 44.8446 1098.67 45.3904 1098.67 45.9671C1098.67 46.3585 1098.69 46.7395 1098.75 47.1103C1098.8 47.481 1098.88 47.8363 1098.99 48.1762H1097.23L1096.88 46.9712H1096.69C1096.42 47.3317 1096.08 47.6406 1095.67 47.8981C1095.26 48.1556 1094.73 48.2843 1094.08 48.2843C1093.69 48.2843 1093.33 48.2276 1093 48.1144C1092.68 48.0011 1092.4 47.8415 1092.16 47.6355C1091.94 47.4192 1091.76 47.1669 1091.62 46.8785C1091.5 46.5902 1091.44 46.2761 1091.44 45.9362C1091.44 45.0196 1091.74 44.3296 1092.35 43.8662C1092.97 43.3925 1093.9 43.1556 1095.15 43.1556C1095.43 43.1556 1095.72 43.1814 1096.01 43.2328C1096.3 43.274 1096.5 43.3049 1096.61 43.3255C1096.64 43.1093 1096.66 42.9239 1096.66 42.7694C1096.66 42.3781 1096.56 42.0897 1096.37 41.9043C1096.17 41.719 1095.8 41.6263 1095.27 41.6263C1094.78 41.6263 1094.29 41.6881 1093.82 41.8116C1093.35 41.9249 1092.94 42.0691 1092.58 42.2442L1092.01 40.6067ZM1094.84 46.5541C1095.32 46.5541 1095.71 46.4408 1096 46.2143C1096.28 45.9877 1096.49 45.7508 1096.63 45.5037V44.5768C1096.58 44.5562 1096.49 44.5356 1096.38 44.515C1096.28 44.4944 1096.16 44.4738 1096.03 44.4532C1095.9 44.4326 1095.77 44.4172 1095.64 44.4069C1095.52 44.3966 1095.4 44.3914 1095.3 44.3914C1094.74 44.3914 1094.33 44.4944 1094.06 44.7004C1093.8 44.8961 1093.66 45.1432 1093.66 45.4419C1093.66 45.8126 1093.77 46.0907 1093.97 46.2761C1094.19 46.4614 1094.48 46.5541 1094.84 46.5541ZM1106.27 45.0248H1103.2V48.1607H1101.03V40.0506H1103.2V43.0629H1106.27V40.0506H1108.43V48.1607H1106.27V45.0248ZM1115.89 45.0248H1112.82V48.1607H1110.66V40.0506H1112.82V43.0629H1115.89V40.0506H1118.06V48.1607H1115.89V45.0248ZM1119.82 44.1134C1119.82 42.7746 1120.17 41.7241 1120.88 40.962C1121.6 40.1999 1122.61 39.8189 1123.93 39.8189C1124.62 39.8189 1125.22 39.927 1125.74 40.1433C1126.25 40.3595 1126.68 40.6634 1127.02 41.0547C1127.36 41.4357 1127.61 41.8889 1127.77 42.4141C1127.95 42.929 1128.04 43.4955 1128.04 44.1134C1128.04 44.7725 1127.94 45.3698 1127.76 45.9053C1127.57 46.4305 1127.31 46.8785 1126.96 47.2493C1126.61 47.62 1126.17 47.9032 1125.66 48.0989C1125.15 48.2946 1124.58 48.3924 1123.93 48.3924C1123.23 48.3924 1122.62 48.2843 1122.11 48.068C1121.59 47.8517 1121.16 47.5531 1120.82 47.172C1120.48 46.7807 1120.23 46.3276 1120.07 45.8126C1119.9 45.2874 1119.82 44.721 1119.82 44.1134ZM1122.04 44.1134C1122.04 44.4532 1122.08 44.7725 1122.15 45.0711C1122.22 45.3698 1122.33 45.6324 1122.48 45.859C1122.63 46.0752 1122.83 46.2503 1123.06 46.3842C1123.3 46.5181 1123.59 46.585 1123.93 46.585C1125.18 46.585 1125.81 45.7611 1125.81 44.1134C1125.81 43.7529 1125.78 43.4234 1125.7 43.1247C1125.64 42.8158 1125.53 42.5531 1125.38 42.3369C1125.24 42.1103 1125.04 41.9352 1124.79 41.8116C1124.56 41.6881 1124.27 41.6263 1123.93 41.6263C1123.34 41.6263 1122.88 41.8219 1122.54 42.2133C1122.21 42.6046 1122.04 43.238 1122.04 44.1134ZM1136.74 47.4192C1136.39 47.687 1135.91 47.9187 1135.3 48.1144C1134.7 48.2997 1134.06 48.3924 1133.37 48.3924C1131.98 48.3924 1130.96 48.0114 1130.31 47.2493C1129.66 46.4872 1129.34 45.4419 1129.34 44.1134C1129.34 42.7025 1129.7 41.6366 1130.43 40.9157C1131.17 40.1845 1132.2 39.8189 1133.52 39.8189C1133.96 39.8189 1134.38 39.8755 1134.81 39.9888C1135.23 40.0918 1135.6 40.272 1135.93 40.5295C1136.26 40.7766 1136.53 41.1165 1136.72 41.549C1136.93 41.9713 1137.03 42.4965 1137.03 43.1247C1137.03 43.341 1137.02 43.5778 1136.98 43.8353C1136.96 44.0928 1136.92 44.3605 1136.86 44.6386H1131.45C1131.51 45.3389 1131.71 45.859 1132.06 46.1988C1132.42 46.5284 1133 46.6932 1133.8 46.6932C1134.29 46.6932 1134.72 46.6262 1135.1 46.4923C1135.49 46.3482 1135.79 46.204 1136 46.0598L1136.74 47.4192ZM1133.49 41.5181C1132.86 41.5181 1132.38 41.6932 1132.07 42.0434C1131.76 42.3832 1131.58 42.8209 1131.53 43.3564H1135.02C1135.06 42.79 1134.96 42.342 1134.71 42.0125C1134.47 41.6829 1134.06 41.5181 1133.49 41.5181ZM979.924 64.515H979.043V68.1607H977.622V60.0506H979.043V63.7426L979.893 63.4646L982.658 60.0506H984.218L981.577 63.202H981.592L980.758 63.8044L981.762 64.4996L984.62 68.1607H982.828L979.924 64.515ZM985.977 60.5604C986.904 60.1175 988.053 59.8961 989.422 59.8961C990.04 59.8961 990.535 59.9785 990.905 60.1433C991.286 60.2978 991.58 60.4986 991.786 60.7457C991.992 60.9929 992.126 61.271 992.187 61.5799C992.26 61.8786 992.296 62.1772 992.296 62.4759C992.296 63.0423 992.275 63.6139 992.234 64.1906C992.193 64.757 992.172 65.3749 992.172 66.0444C992.172 66.4357 992.187 66.8167 992.218 67.1875C992.26 67.5479 992.321 67.8826 992.404 68.1916H991.369L990.983 66.9558H990.828C990.715 67.1103 990.576 67.2699 990.411 67.4347C990.246 67.5891 990.051 67.7282 989.824 67.8517C989.597 67.9753 989.335 68.0783 989.036 68.1607C988.748 68.2431 988.413 68.2843 988.032 68.2843C987.651 68.2843 987.301 68.2328 986.982 68.1298C986.662 68.0165 986.384 67.862 986.147 67.6664C985.921 67.4707 985.741 67.2338 985.607 66.9558C985.473 66.6674 985.406 66.3482 985.406 65.998C985.406 65.5346 985.504 65.1329 985.699 64.7931C985.905 64.4532 986.168 64.1752 986.487 63.9589C986.806 63.7426 987.167 63.583 987.569 63.48C987.981 63.377 988.387 63.3255 988.789 63.3255C989.108 63.3255 989.376 63.3307 989.592 63.341C989.819 63.3513 990.004 63.3667 990.148 63.3873C990.303 63.3976 990.432 63.4131 990.535 63.4337C990.638 63.444 990.73 63.4543 990.813 63.4646C990.833 63.3101 990.849 63.1762 990.859 63.0629C990.869 62.9496 990.874 62.8055 990.874 62.6304C990.874 62.342 990.844 62.1 990.782 61.9043C990.72 61.7087 990.617 61.5542 990.473 61.4409C990.339 61.3173 990.154 61.2298 989.917 61.1783C989.68 61.1268 989.391 61.101 989.052 61.101C988.856 61.101 988.64 61.1165 988.403 61.1474C988.166 61.1783 987.929 61.2246 987.692 61.2864C987.455 61.3379 987.218 61.4049 986.982 61.4872C986.755 61.5696 986.549 61.6572 986.364 61.7499L985.977 60.5604ZM990.813 64.4841C990.73 64.4738 990.643 64.4584 990.55 64.4378C990.457 64.4172 990.339 64.4017 990.195 64.3914C990.061 64.3811 989.896 64.3708 989.7 64.3605C989.515 64.3502 989.283 64.3451 989.005 64.3451C988.367 64.3451 987.857 64.4584 987.476 64.6849C987.105 64.9115 986.92 65.2977 986.92 65.8435C986.92 66.2555 987.064 66.5644 987.352 66.7704C987.651 66.9764 988.032 67.0794 988.495 67.0794C988.835 67.0794 989.134 67.0382 989.391 66.9558C989.659 66.8631 989.886 66.755 990.071 66.6314C990.267 66.4975 990.421 66.3533 990.535 66.1988C990.658 66.0341 990.751 65.8744 990.813 65.7199V64.4841ZM996.05 60.0506V62.0434C996.05 62.3729 996.065 62.6664 996.096 62.9239C996.137 63.1814 996.215 63.4028 996.328 63.5881C996.452 63.7735 996.616 63.9177 996.822 64.0207C997.039 64.1134 997.317 64.1597 997.656 64.1597C998.182 64.1597 998.619 64.1031 998.97 63.9898C999.33 63.8662 999.603 63.7323 999.788 63.5881V60.0506H1001.21V68.1607H999.788V64.7158C999.593 64.8394 999.294 64.9785 998.892 65.1329C998.491 65.2874 997.955 65.3646 997.286 65.3646C996.853 65.3646 996.467 65.3183 996.127 65.2256C995.798 65.1329 995.52 64.9733 995.293 64.7467C995.077 64.5202 994.912 64.2215 994.799 63.8508C994.685 63.4697 994.629 62.996 994.629 62.4296V60.0506H996.05ZM1010.53 67.4964C1010.17 67.7642 1009.72 67.9805 1009.18 68.1453C1008.65 68.2997 1008.07 68.377 1007.44 68.377C1006.76 68.377 1006.17 68.2791 1005.66 68.0835C1005.17 67.8775 1004.76 67.5891 1004.44 67.2184C1004.12 66.8476 1003.89 66.3997 1003.73 65.8744C1003.58 65.3492 1003.5 64.7622 1003.5 64.1134C1003.5 62.7231 1003.84 61.6623 1004.52 60.9311C1005.21 60.1896 1006.19 59.8189 1007.45 59.8189C1007.86 59.8189 1008.26 59.8652 1008.66 59.9579C1009.06 60.0403 1009.42 60.2051 1009.74 60.4522C1010.06 60.6891 1010.32 61.0187 1010.51 61.4409C1010.72 61.8631 1010.82 62.4141 1010.82 63.0938C1010.82 63.2586 1010.82 63.4491 1010.81 63.6654C1010.8 63.8817 1010.78 64.0928 1010.74 64.2987H1004.95C1004.97 65.2462 1005.2 65.962 1005.63 66.446C1006.06 66.93 1006.8 67.172 1007.84 67.172C1008.27 67.172 1008.68 67.1 1009.08 66.9558C1009.47 66.8013 1009.77 66.6211 1009.99 66.4151L1010.53 67.4964ZM1009.46 63.2792C1009.48 62.4553 1009.31 61.8734 1008.95 61.5336C1008.6 61.1937 1008.11 61.0238 1007.47 61.0238C1006.75 61.0238 1006.18 61.1937 1005.75 61.5336C1005.33 61.8734 1005.09 62.4553 1005.01 63.2792H1009.46ZM1019.12 67.6046C1018.76 67.862 1018.33 68.0526 1017.85 68.1762C1017.36 68.31 1016.86 68.377 1016.32 68.377C1015.64 68.377 1015.06 68.274 1014.57 68.068C1014.1 67.862 1013.71 67.5737 1013.42 67.2029C1013.12 66.8322 1012.9 66.3842 1012.77 65.859C1012.63 65.3338 1012.57 64.7519 1012.57 64.1134C1012.57 62.7437 1012.9 61.6881 1013.55 60.9466C1014.22 60.1948 1015.18 59.8189 1016.43 59.8189C1016.97 59.8189 1017.45 59.8704 1017.85 59.9734C1018.25 60.066 1018.61 60.1845 1018.93 60.3287L1018.56 61.4872C1018.28 61.3431 1017.98 61.2298 1017.65 61.1474C1017.33 61.065 1016.98 61.0238 1016.6 61.0238C1014.92 61.0238 1014.08 62.0537 1014.08 64.1134C1014.08 64.5047 1014.13 64.8858 1014.22 65.2565C1014.31 65.617 1014.46 65.9414 1014.67 66.2297C1014.87 66.5078 1015.14 66.7344 1015.47 66.9094C1015.81 67.0845 1016.22 67.172 1016.71 67.172C1017.14 67.172 1017.51 67.1154 1017.83 67.0021C1018.16 66.8785 1018.44 66.7344 1018.65 66.5696L1019.12 67.6046ZM1026.62 61.2555H1023.81V68.1607H1022.39V61.2555H1019.57V60.0506H1026.62V61.2555ZM1027.98 60.0506L1028.57 60.0197C1028.89 59.9991 1029.26 59.9785 1029.65 59.9579C1030.04 59.927 1030.49 59.9116 1031.01 59.9116C1032.2 59.9116 1033.06 60.0815 1033.57 60.4213C1034.1 60.7509 1034.36 61.2452 1034.36 61.9043C1034.36 62.2648 1034.23 62.6304 1033.97 63.0011C1033.73 63.3616 1033.33 63.6242 1032.78 63.789V63.9589C1033.46 64.0928 1033.95 64.3193 1034.23 64.6386C1034.53 64.9579 1034.68 65.3801 1034.68 65.9053C1034.68 66.7189 1034.35 67.3214 1033.68 67.7127C1033.01 68.0938 1032 68.2843 1030.65 68.2843C1030.2 68.2843 1029.77 68.2688 1029.37 68.2379C1028.97 68.2173 1028.58 68.1916 1028.19 68.1607C1028.15 68.1607 1028.12 68.1607 1028.09 68.1607C1028.06 68.1504 1028.02 68.1453 1027.98 68.1453V60.0506ZM1029.4 67.0485C1029.63 67.0794 1029.85 67.1051 1030.06 67.1257C1030.28 67.136 1030.55 67.1411 1030.87 67.1411C1031.68 67.1411 1032.27 67.0382 1032.63 66.8322C1032.99 66.6159 1033.17 66.2658 1033.17 65.7817C1033.17 65.5861 1033.13 65.4058 1033.06 65.2411C1032.99 65.0763 1032.87 64.9373 1032.71 64.824C1032.54 64.7107 1032.31 64.6232 1032.03 64.5614C1031.75 64.4893 1031.4 64.4532 1030.99 64.4532H1029.4V67.0485ZM1031.16 63.48C1031.39 63.48 1031.6 63.4491 1031.81 63.3873C1032.02 63.3255 1032.2 63.238 1032.37 63.1247C1032.53 63.0114 1032.66 62.8827 1032.75 62.7385C1032.85 62.584 1032.91 62.4193 1032.91 62.2442C1032.91 61.8116 1032.76 61.513 1032.46 61.3482C1032.17 61.1731 1031.67 61.0856 1030.96 61.0856C1030.72 61.0856 1030.48 61.0959 1030.23 61.1165C1030 61.1268 1029.72 61.1371 1029.4 61.1474V63.48H1031.16ZM1036.54 64.1134C1036.54 63.444 1036.62 62.8467 1036.8 62.3214C1036.97 61.7859 1037.23 61.3328 1037.57 60.962C1037.91 60.5913 1038.32 60.3081 1038.81 60.1124C1039.3 59.9167 1039.86 59.8189 1040.49 59.8189C1041.15 59.8189 1041.73 59.927 1042.22 60.1433C1042.72 60.3595 1043.13 60.6634 1043.46 61.0547C1043.79 61.4357 1044.03 61.8889 1044.18 62.4141C1044.35 62.929 1044.43 63.4955 1044.43 64.1134C1044.43 64.7725 1044.34 65.3646 1044.15 65.8899C1043.98 66.4151 1043.72 66.8631 1043.38 67.2338C1043.05 67.6046 1042.64 67.8878 1042.14 68.0835C1041.66 68.2791 1041.11 68.377 1040.49 68.377C1039.81 68.377 1039.22 68.2688 1038.73 68.0526C1038.24 67.8363 1037.82 67.5376 1037.49 67.1566C1037.18 66.7755 1036.93 66.3276 1036.77 65.8126C1036.61 65.2874 1036.54 64.721 1036.54 64.1134ZM1038.05 64.1134C1038.05 64.4944 1038.09 64.8703 1038.17 65.2411C1038.27 65.6015 1038.41 65.9259 1038.61 66.2143C1038.8 66.5026 1039.05 66.7344 1039.36 66.9094C1039.67 67.0845 1040.05 67.172 1040.51 67.172C1042.11 67.172 1042.92 66.1525 1042.92 64.1134C1042.92 63.7117 1042.87 63.3255 1042.78 62.9548C1042.7 62.584 1042.56 62.2596 1042.36 61.9816C1042.18 61.6932 1041.93 61.4615 1041.62 61.2864C1041.31 61.1113 1040.94 61.0238 1040.51 61.0238C1039.7 61.0238 1039.09 61.2813 1038.67 61.7962C1038.26 62.3008 1038.05 63.0732 1038.05 64.1134Z" fill="black"/>
<g clip-path="url(#clip1_200_299)">
<path d="M965.106 18.4292H926.486C923.397 18.4292 920.908 20.918 920.908 24.0076V57.0488C920.908 57.7783 921.466 58.3361 922.195 58.3361C922.925 58.3361 923.482 57.7783 923.482 57.0488V24.0076C923.482 22.3341 924.813 21.0038 926.486 21.0038H960.386C959.828 21.8621 959.527 22.8919 959.527 24.0076V66.9182C959.527 68.5917 958.197 69.922 956.524 69.922C954.85 69.922 953.52 68.5917 953.52 66.9182V62.6272C953.52 61.8977 952.962 61.3398 952.233 61.3398H917.904C917.175 61.3398 916.617 61.8977 916.617 62.6272V66.9182C916.617 70.0078 919.106 72.4966 922.195 72.4966H956.524C959.613 72.4966 962.102 70.0078 962.102 66.9182V24.0076C962.102 22.3341 963.432 21.0038 965.106 21.0038C966.779 21.0038 968.109 22.3341 968.109 24.0076V27.0113H965.106C964.376 27.0113 963.818 27.5692 963.818 28.2986C963.818 29.0281 964.376 29.586 965.106 29.586H969.397C970.126 29.586 970.684 29.0281 970.684 28.2986V24.0076C970.684 20.918 968.195 18.4292 965.106 18.4292ZM922.195 69.922C920.522 69.922 919.191 68.5917 919.191 66.9182V63.9145H950.945V66.9182C950.945 68.0339 951.289 69.0638 951.803 69.922H922.195Z" fill="#62BB46"/>
<path d="M940.647 46.9647C940.69 46.9647 940.69 46.9647 940.647 46.9647C941.076 46.9647 941.419 46.7931 941.677 46.4927L948.543 37.9106C948.972 37.3528 948.886 36.5375 948.328 36.1084C947.77 35.6792 946.955 35.7651 946.526 36.3229L940.69 43.6177L937.987 40.0561C937.557 39.4983 936.742 39.3696 936.184 39.7987C935.626 40.2278 935.498 41.0431 935.927 41.6009L939.617 46.4498C939.875 46.7502 940.261 46.9647 940.647 46.9647Z" fill="#62BB46"/>
</g>
<path d="M106.674 50.1879H105.608L105.345 48.2106H97.1271L96.88 50.1879H95.8141V46.8512H97.019C97.1117 46.7379 97.2507 46.4804 97.4361 46.0788C97.6318 45.6668 97.8223 45.085 98.0076 44.3332C98.2033 43.5711 98.3681 42.6185 98.502 41.4753C98.6359 40.3322 98.6977 38.9728 98.6874 37.3971H105.129V46.8512H106.674V50.1879ZM103.584 46.8512V38.7565H100.109C100.067 39.8481 100 40.8265 99.9077 41.6916C99.8253 42.5464 99.7172 43.3033 99.5833 43.9624C99.4597 44.6215 99.3156 45.1879 99.1508 45.6617C98.9963 46.1354 98.8315 46.5319 98.6565 46.8512H103.584ZM107.676 44.1632C107.676 43.4938 107.764 42.8965 107.939 42.3713C108.114 41.8358 108.371 41.3826 108.711 41.0119C109.051 40.6411 109.463 40.3579 109.947 40.1623C110.441 39.9666 111.003 39.8687 111.631 39.8687C112.29 39.8687 112.867 39.9769 113.361 40.1931C113.855 40.4094 114.267 40.7132 114.597 41.1046C114.926 41.4856 115.168 41.9388 115.323 42.464C115.488 42.9789 115.57 43.5453 115.57 44.1632C115.57 44.8223 115.477 45.4145 115.292 45.9397C115.117 46.465 114.86 46.913 114.52 47.2837C114.19 47.6544 113.778 47.9377 113.284 48.1333C112.8 48.329 112.249 48.4268 111.631 48.4268C110.951 48.4268 110.364 48.3187 109.87 48.1024C109.376 47.8862 108.964 47.5875 108.634 47.2065C108.315 46.8254 108.073 46.3774 107.908 45.8625C107.754 45.3373 107.676 44.7709 107.676 44.1632ZM109.19 44.1632C109.19 44.5443 109.231 44.9202 109.314 45.2909C109.406 45.6514 109.551 45.9758 109.746 46.2641C109.942 46.5525 110.194 46.7842 110.503 46.9593C110.812 47.1344 111.193 47.2219 111.646 47.2219C113.253 47.2219 114.056 46.2024 114.056 44.1632C114.056 43.7616 114.01 43.3754 113.917 43.0047C113.835 42.6339 113.696 42.3095 113.5 42.0314C113.315 41.7431 113.068 41.5114 112.759 41.3363C112.45 41.1612 112.079 41.0737 111.646 41.0737C110.843 41.0737 110.23 41.3311 109.808 41.8461C109.396 42.3507 109.19 43.1231 109.19 44.1632ZM123.972 47.6544C123.611 47.9119 123.189 48.1024 122.705 48.226C122.221 48.3599 121.711 48.4268 121.176 48.4268C120.496 48.4268 119.914 48.3239 119.43 48.1179C118.956 47.9119 118.57 47.6236 118.271 47.2528C117.973 46.8821 117.756 46.4341 117.623 45.9088C117.489 45.3836 117.422 44.8017 117.422 44.1632C117.422 42.7935 117.751 41.7379 118.41 40.9964C119.08 40.2446 120.038 39.8687 121.284 39.8687C121.829 39.8687 122.303 39.9202 122.705 40.0232C123.107 40.1159 123.467 40.2343 123.786 40.3785L123.415 41.5371C123.137 41.3929 122.834 41.2796 122.504 41.1973C122.185 41.1149 121.835 41.0737 121.454 41.0737C119.775 41.0737 118.936 42.1035 118.936 44.1632C118.936 44.5546 118.982 44.9356 119.075 45.3064C119.167 45.6668 119.317 45.9912 119.523 46.2796C119.729 46.5577 119.996 46.7842 120.326 46.9593C120.666 47.1344 121.078 47.2219 121.562 47.2219C121.994 47.2219 122.37 47.1653 122.689 47.052C123.019 46.9284 123.292 46.7842 123.508 46.6194L123.972 47.6544ZM131.474 41.3054H128.663V48.2106H127.241V41.3054H124.43V40.1005H131.474V41.3054ZM132.742 40.6102C133.669 40.1674 134.817 39.946 136.187 39.946C136.805 39.946 137.299 40.0284 137.67 40.1931C138.051 40.3476 138.344 40.5484 138.55 40.7956C138.756 41.0428 138.89 41.3208 138.952 41.6298C139.024 41.9285 139.06 42.2271 139.06 42.5258C139.06 43.0922 139.039 43.6638 138.998 44.2405C138.957 44.8069 138.936 45.4248 138.936 46.0942C138.936 46.4856 138.952 46.8666 138.983 47.2374C139.024 47.5978 139.086 47.9325 139.168 48.2415H138.133L137.747 47.0056H137.592C137.479 47.1601 137.34 47.3197 137.175 47.4845C137.01 47.639 136.815 47.778 136.588 47.9016C136.362 48.0252 136.099 48.1282 135.8 48.2106C135.512 48.293 135.177 48.3342 134.796 48.3342C134.415 48.3342 134.065 48.2827 133.746 48.1797C133.427 48.0664 133.149 47.9119 132.912 47.7162C132.685 47.5206 132.505 47.2837 132.371 47.0056C132.237 46.7173 132.17 46.398 132.17 46.0479C132.17 45.5844 132.268 45.1828 132.464 44.8429C132.67 44.5031 132.932 44.225 133.252 44.0088C133.571 43.7925 133.931 43.6329 134.333 43.5299C134.745 43.4269 135.152 43.3754 135.553 43.3754C135.872 43.3754 136.14 43.3805 136.357 43.3908C136.583 43.4011 136.768 43.4166 136.913 43.4372C137.067 43.4475 137.196 43.4629 137.299 43.4835C137.402 43.4938 137.495 43.5041 137.577 43.5144C137.598 43.36 137.613 43.2261 137.623 43.1128C137.634 42.9995 137.639 42.8553 137.639 42.6802C137.639 42.3919 137.608 42.1499 137.546 41.9542C137.484 41.7585 137.381 41.604 137.237 41.4908C137.103 41.3672 136.918 41.2796 136.681 41.2282C136.444 41.1767 136.156 41.1509 135.816 41.1509C135.62 41.1509 135.404 41.1664 135.167 41.1973C134.93 41.2282 134.693 41.2745 134.456 41.3363C134.22 41.3878 133.983 41.4547 133.746 41.5371C133.519 41.6195 133.313 41.707 133.128 41.7997L132.742 40.6102ZM137.577 44.534C137.495 44.5237 137.407 44.5082 137.314 44.4876C137.222 44.467 137.103 44.4516 136.959 44.4413C136.825 44.431 136.66 44.4207 136.465 44.4104C136.279 44.4001 136.048 44.395 135.77 44.395C135.131 44.395 134.621 44.5082 134.24 44.7348C133.869 44.9614 133.684 45.3476 133.684 45.8934C133.684 46.3053 133.828 46.6143 134.117 46.8203C134.415 47.0262 134.796 47.1292 135.26 47.1292C135.6 47.1292 135.898 47.088 136.156 47.0056C136.423 46.913 136.65 46.8048 136.835 46.6812C137.031 46.5474 137.186 46.4032 137.299 46.2487C137.422 46.0839 137.515 45.9243 137.577 45.7698V44.534ZM141.826 40.1005L142.413 40.0696C142.742 40.049 143.103 40.0284 143.494 40.0078C143.885 39.9769 144.338 39.9614 144.853 39.9614C146.048 39.9614 146.903 40.1314 147.418 40.4712C147.943 40.8008 148.205 41.2951 148.205 41.9542C148.205 42.3146 148.077 42.6802 147.819 43.051C147.572 43.4114 147.176 43.6741 146.63 43.8388V44.0088C147.31 44.1426 147.794 44.3692 148.082 44.6885C148.381 45.0077 148.53 45.43 148.53 45.9552C148.53 46.7688 148.195 47.3712 147.526 47.7626C146.856 48.1436 145.847 48.3342 144.498 48.3342C144.045 48.3342 143.617 48.3187 143.216 48.2878C142.814 48.2672 142.423 48.2415 142.042 48.2106C142.001 48.2106 141.965 48.2106 141.934 48.2106C141.903 48.2003 141.867 48.1951 141.826 48.1951V40.1005ZM143.247 47.0983C143.473 47.1292 143.695 47.155 143.911 47.1756C144.127 47.1859 144.395 47.191 144.714 47.191C145.528 47.191 146.115 47.088 146.475 46.8821C146.836 46.6658 147.016 46.3156 147.016 45.8316C147.016 45.6359 146.98 45.4557 146.908 45.2909C146.836 45.1262 146.717 44.9871 146.553 44.8738C146.388 44.7606 146.161 44.673 145.873 44.6112C145.595 44.5391 145.25 44.5031 144.838 44.5031H143.247V47.0983ZM145.008 43.5299C145.234 43.5299 145.451 43.499 145.657 43.4372C145.863 43.3754 146.048 43.2879 146.213 43.1746C146.378 43.0613 146.506 42.9326 146.599 42.7884C146.702 42.6339 146.753 42.4691 146.753 42.2941C146.753 41.8615 146.604 41.5629 146.305 41.3981C146.017 41.223 145.518 41.1355 144.807 41.1355C144.57 41.1355 144.328 41.1458 144.081 41.1664C143.844 41.1767 143.566 41.187 143.247 41.1973V43.5299H145.008ZM153.118 44.5649H152.238V48.2106H150.817V40.1005H152.238V43.7925L153.087 43.5144L155.853 40.1005H157.413L154.771 43.2518H154.787L153.953 43.8543L154.957 44.5494L157.815 48.2106H156.023L153.118 44.5649ZM159.172 40.6102C160.099 40.1674 161.247 39.946 162.617 39.946C163.235 39.946 163.729 40.0284 164.1 40.1931C164.481 40.3476 164.774 40.5484 164.98 40.7956C165.186 41.0428 165.32 41.3208 165.382 41.6298C165.454 41.9285 165.49 42.2271 165.49 42.5258C165.49 43.0922 165.47 43.6638 165.428 44.2405C165.387 44.8069 165.367 45.4248 165.367 46.0942C165.367 46.4856 165.382 46.8666 165.413 47.2374C165.454 47.5978 165.516 47.9325 165.598 48.2415H164.563L164.177 47.0056H164.023C163.909 47.1601 163.77 47.3197 163.606 47.4845C163.441 47.639 163.245 47.778 163.019 47.9016C162.792 48.0252 162.529 48.1282 162.231 48.2106C161.942 48.293 161.608 48.3342 161.227 48.3342C160.846 48.3342 160.495 48.2827 160.176 48.1797C159.857 48.0664 159.579 47.9119 159.342 47.7162C159.115 47.5206 158.935 47.2837 158.801 47.0056C158.667 46.7173 158.6 46.398 158.6 46.0479C158.6 45.5844 158.698 45.1828 158.894 44.8429C159.1 44.5031 159.363 44.225 159.682 44.0088C160.001 43.7925 160.361 43.6329 160.763 43.5299C161.175 43.4269 161.582 43.3754 161.984 43.3754C162.303 43.3754 162.571 43.3805 162.787 43.3908C163.013 43.4011 163.199 43.4166 163.343 43.4372C163.497 43.4475 163.626 43.4629 163.729 43.4835C163.832 43.4938 163.925 43.5041 164.007 43.5144C164.028 43.36 164.043 43.2261 164.054 43.1128C164.064 42.9995 164.069 42.8553 164.069 42.6802C164.069 42.3919 164.038 42.1499 163.976 41.9542C163.914 41.7585 163.812 41.604 163.667 41.4908C163.533 41.3672 163.348 41.2796 163.111 41.2282C162.874 41.1767 162.586 41.1509 162.246 41.1509C162.05 41.1509 161.834 41.1664 161.597 41.1973C161.36 41.2282 161.124 41.2745 160.887 41.3363C160.65 41.3878 160.413 41.4547 160.176 41.5371C159.95 41.6195 159.744 41.707 159.558 41.7997L159.172 40.6102ZM164.007 44.534C163.925 44.5237 163.837 44.5082 163.745 44.4876C163.652 44.467 163.533 44.4516 163.389 44.4413C163.255 44.431 163.091 44.4207 162.895 44.4104C162.71 44.4001 162.478 44.395 162.2 44.395C161.561 44.395 161.051 44.5082 160.67 44.7348C160.3 44.9614 160.114 45.3476 160.114 45.8934C160.114 46.3053 160.259 46.6143 160.547 46.8203C160.846 47.0262 161.227 47.1292 161.69 47.1292C162.03 47.1292 162.329 47.088 162.586 47.0056C162.854 46.913 163.08 46.8048 163.266 46.6812C163.461 46.5474 163.616 46.4032 163.729 46.2487C163.853 46.0839 163.945 45.9243 164.007 45.7698V44.534ZM101.993 62.016H99.0118V68.2106H96.8491V60.1005H104.156V68.2106H101.993V62.016ZM105.92 64.1632C105.92 62.8244 106.275 61.774 106.986 61.0119C107.696 60.2498 108.711 59.8687 110.029 59.8687C110.719 59.8687 111.321 59.9769 111.836 60.1931C112.351 60.4094 112.779 60.7132 113.119 61.1046C113.458 61.4856 113.711 61.9388 113.875 62.464C114.051 62.9789 114.138 63.5453 114.138 64.1632C114.138 64.8223 114.045 65.4197 113.86 65.9552C113.675 66.4804 113.407 66.9284 113.057 67.2991C112.707 67.6699 112.274 67.9531 111.759 68.1488C111.254 68.3445 110.678 68.4423 110.029 68.4423C109.329 68.4423 108.721 68.3342 108.206 68.1179C107.691 67.9016 107.264 67.603 106.924 67.2219C106.584 66.8306 106.332 66.3774 106.167 65.8625C106.002 65.3373 105.92 64.7709 105.92 64.1632ZM108.144 64.1632C108.144 64.5031 108.18 64.8223 108.252 65.121C108.325 65.4197 108.433 65.6823 108.577 65.9088C108.731 66.1251 108.927 66.3002 109.164 66.4341C109.401 66.568 109.689 66.6349 110.029 66.6349C111.285 66.6349 111.914 65.811 111.914 64.1632C111.914 63.8028 111.878 63.4732 111.805 63.1746C111.744 62.8656 111.636 62.603 111.481 62.3867C111.337 62.1602 111.141 61.9851 110.894 61.8615C110.657 61.7379 110.369 61.6761 110.029 61.6761C109.442 61.6761 108.979 61.8718 108.639 62.2632C108.309 62.6545 108.144 63.2879 108.144 64.1632ZM120.172 60.1005C120.594 60.0696 121.088 60.0387 121.655 60.0078C122.221 59.9769 122.844 59.9614 123.524 59.9614C124.801 59.9614 125.707 60.1314 126.243 60.4712C126.778 60.8111 127.046 61.3157 127.046 61.9851C127.046 62.3661 126.928 62.7317 126.691 63.0819C126.454 63.432 126.083 63.6947 125.578 63.8697V63.9933C126.217 64.1272 126.68 64.3589 126.969 64.6885C127.267 65.0077 127.417 65.4248 127.417 65.9397C127.417 66.743 127.077 67.3455 126.397 67.7471C125.717 68.1488 124.636 68.3496 123.153 68.3496C122.669 68.3496 122.154 68.3342 121.608 68.3033C121.073 68.2827 120.594 68.2518 120.172 68.2106V60.1005ZM122.288 66.5577C122.494 66.5988 122.669 66.6246 122.813 66.6349C122.968 66.6452 123.148 66.6503 123.354 66.6503C124.054 66.6503 124.538 66.568 124.806 66.4032C125.084 66.2281 125.223 65.9809 125.223 65.6617C125.223 65.3733 125.105 65.1416 124.868 64.9665C124.631 64.7812 124.198 64.6885 123.57 64.6885H122.288V66.5577ZM123.601 63.4063C124.013 63.4063 124.348 63.3291 124.605 63.1746C124.863 63.0098 124.991 62.7987 124.991 62.5412C124.991 62.2632 124.878 62.0469 124.652 61.8924C124.435 61.7379 124.039 61.6607 123.462 61.6607C123.256 61.6607 123.086 61.6658 122.952 61.6761C122.818 61.6864 122.695 61.6967 122.582 61.707C122.54 61.707 122.489 61.7122 122.427 61.7225C122.365 61.7225 122.319 61.7225 122.288 61.7225V63.4063H123.601ZM135.205 67.7162C134.855 67.9531 134.432 68.1333 133.938 68.2569C133.454 68.3805 132.949 68.4423 132.424 68.4423C131.724 68.4423 131.132 68.3393 130.648 68.1333C130.174 67.9274 129.783 67.6339 129.474 67.2528C129.175 66.8718 128.959 66.4238 128.825 65.9088C128.691 65.3836 128.624 64.8017 128.624 64.1632C128.624 62.8141 128.953 61.7637 129.613 61.0119C130.282 60.2498 131.25 59.8687 132.517 59.8687C133.135 59.8687 133.639 59.9202 134.031 60.0232C134.432 60.1159 134.788 60.2395 135.097 60.394L134.571 62.1241C134.304 62.0108 134.036 61.9285 133.768 61.877C133.511 61.8152 133.207 61.7843 132.857 61.7843C132.208 61.7843 131.708 61.9748 131.358 62.3558C131.018 62.7266 130.848 63.3291 130.848 64.1632C130.848 64.4928 130.89 64.8017 130.972 65.0901C131.054 65.3682 131.183 65.6153 131.358 65.8316C131.533 66.0479 131.755 66.2178 132.022 66.3414C132.29 66.465 132.604 66.5268 132.965 66.5268C133.397 66.5268 133.737 66.4907 133.984 66.4186C134.242 66.3362 134.484 66.2281 134.71 66.0942L135.205 67.7162ZM143.446 67.4691C143.095 67.7368 142.617 67.9686 142.009 68.1642C141.412 68.3496 140.768 68.4423 140.078 68.4423C138.688 68.4423 137.668 68.0612 137.019 67.2991C136.371 66.5371 136.046 65.4918 136.046 64.1632C136.046 62.7523 136.412 61.6864 137.143 60.9655C137.874 60.2343 138.904 59.8687 140.232 59.8687C140.665 59.8687 141.092 59.9254 141.515 60.0387C141.937 60.1417 142.313 60.3219 142.642 60.5793C142.972 60.8265 143.235 61.1664 143.43 61.5989C143.636 62.0211 143.739 62.5464 143.739 63.1746C143.739 63.3908 143.724 63.6277 143.693 63.8852C143.672 64.1426 143.631 64.4104 143.569 64.6885H138.162C138.214 65.3888 138.415 65.9088 138.765 66.2487C139.125 66.5783 139.707 66.743 140.511 66.743C140.995 66.743 141.427 66.6761 141.808 66.5422C142.2 66.398 142.498 66.2538 142.704 66.1097L143.446 67.4691ZM140.202 61.568C139.563 61.568 139.089 61.7431 138.78 62.0932C138.471 62.4331 138.291 62.8708 138.24 63.4063H141.731C141.772 62.8399 141.669 62.3919 141.422 62.0623C141.175 61.7328 140.768 61.568 140.202 61.568ZM151.058 64.5494L151.15 63.1746L150.177 64.534L146.979 68.2106H145.682V60.1005H147.844V63.9161L147.767 65.0283H147.953C148.076 64.8532 148.2 64.6679 148.323 64.4722C148.457 64.2765 148.586 64.0911 148.709 63.9161L151.923 60.1005H153.22V68.2106H151.058V64.5494ZM148.462 56.7483C148.545 57.1808 148.689 57.4743 148.895 57.6288C149.101 57.7833 149.369 57.8605 149.698 57.8605C150.038 57.8605 150.306 57.7833 150.501 57.6288C150.707 57.464 150.852 57.1757 150.934 56.7637L152.541 57.1808C152.407 57.8605 152.072 58.3703 151.536 58.7102C151.001 59.05 150.362 59.2199 149.621 59.2199C149.26 59.2199 148.915 59.1839 148.586 59.1118C148.267 59.0397 147.973 58.9213 147.705 58.7565C147.438 58.5917 147.206 58.3806 147.01 58.1231C146.825 57.8657 146.696 57.5516 146.624 57.1808L148.462 56.7483ZM159.603 57.5052C160.067 57.4228 160.582 57.361 161.148 57.3198C161.715 57.2684 162.281 57.2426 162.847 57.2426C163.424 57.2426 164.006 57.289 164.593 57.3816C165.18 57.464 165.705 57.6391 166.169 57.9069C166.642 58.1643 167.029 58.5299 167.327 59.0037C167.626 59.4671 167.775 60.085 167.775 60.8574C167.775 61.5371 167.647 62.119 167.389 62.603C167.132 63.0767 166.787 63.4629 166.354 63.7616C165.932 64.0603 165.448 64.2817 164.902 64.4259C164.356 64.5597 163.795 64.6267 163.218 64.6267C163.167 64.6267 163.079 64.6267 162.956 64.6267C162.832 64.6267 162.698 64.6267 162.554 64.6267C162.42 64.6164 162.291 64.6061 162.168 64.5958C162.044 64.5855 161.951 64.5752 161.89 64.5649V68.2106H159.603V57.5052ZM163.002 59.2508C162.786 59.2508 162.574 59.256 162.369 59.2663C162.173 59.2766 162.013 59.2972 161.89 59.3281V62.5412C161.931 62.5515 161.998 62.5618 162.09 62.5721C162.183 62.5824 162.281 62.5927 162.384 62.603C162.487 62.603 162.58 62.6082 162.662 62.6185C162.755 62.6185 162.827 62.6185 162.878 62.6185C163.177 62.6185 163.476 62.5979 163.774 62.5567C164.073 62.5155 164.336 62.4279 164.562 62.2941C164.799 62.1602 164.989 61.9799 165.134 61.7534C165.278 61.5165 165.35 61.2024 165.35 60.8111C165.35 60.4815 165.283 60.2189 165.149 60.0232C165.015 59.8172 164.835 59.6576 164.608 59.5443C164.392 59.4311 164.14 59.3538 163.851 59.3126C163.573 59.2714 163.29 59.2508 163.002 59.2508ZM168.224 64.1632C168.224 62.8244 168.579 61.774 169.29 61.0119C170.001 60.2498 171.015 59.8687 172.333 59.8687C173.023 59.8687 173.626 59.9769 174.141 60.1931C174.656 60.4094 175.083 60.7132 175.423 61.1046C175.763 61.4856 176.015 61.9388 176.18 62.464C176.355 62.9789 176.442 63.5453 176.442 64.1632C176.442 64.8223 176.35 65.4197 176.164 65.9552C175.979 66.4804 175.711 66.9284 175.361 67.2991C175.011 67.6699 174.578 67.9531 174.063 68.1488C173.559 68.3445 172.982 68.4423 172.333 68.4423C171.633 68.4423 171.025 68.3342 170.51 68.1179C169.995 67.9016 169.568 67.603 169.228 67.2219C168.888 66.8306 168.636 66.3774 168.471 65.8625C168.306 65.3373 168.224 64.7709 168.224 64.1632ZM170.449 64.1632C170.449 64.5031 170.485 64.8223 170.557 65.121C170.629 65.4197 170.737 65.6823 170.881 65.9088C171.036 66.1251 171.231 66.3002 171.468 66.4341C171.705 66.568 171.993 66.6349 172.333 66.6349C173.59 66.6349 174.218 65.811 174.218 64.1632C174.218 63.8028 174.182 63.4732 174.11 63.1746C174.048 62.8656 173.94 62.603 173.785 62.3867C173.641 62.1602 173.445 61.9851 173.198 61.8615C172.961 61.7379 172.673 61.6761 172.333 61.6761C171.746 61.6761 171.283 61.8718 170.943 62.2632C170.613 62.6545 170.449 63.2879 170.449 64.1632ZM184.324 67.7162C183.974 67.9531 183.552 68.1333 183.057 68.2569C182.573 68.3805 182.069 68.4423 181.543 68.4423C180.843 68.4423 180.251 68.3393 179.767 68.1333C179.293 67.9274 178.902 67.6339 178.593 67.2528C178.294 66.8718 178.078 66.4238 177.944 65.9088C177.81 65.3836 177.743 64.8017 177.743 64.1632C177.743 62.8141 178.073 61.7637 178.732 61.0119C179.401 60.2498 180.369 59.8687 181.636 59.8687C182.254 59.8687 182.759 59.9202 183.15 60.0232C183.552 60.1159 183.907 60.2395 184.216 60.394L183.691 62.1241C183.423 62.0108 183.155 61.9285 182.887 61.877C182.63 61.8152 182.326 61.7843 181.976 61.7843C181.327 61.7843 180.828 61.9748 180.477 62.3558C180.138 62.7266 179.968 63.3291 179.968 64.1632C179.968 64.4928 180.009 64.8017 180.091 65.0901C180.174 65.3682 180.302 65.6153 180.477 65.8316C180.653 66.0479 180.874 66.2178 181.142 66.3414C181.409 66.465 181.724 66.5268 182.084 66.5268C182.517 66.5268 182.856 66.4907 183.104 66.4186C183.361 66.3362 183.603 66.2281 183.83 66.0942L184.324 67.7162ZM191.746 67.7162C191.396 67.9531 190.974 68.1333 190.479 68.2569C189.995 68.3805 189.491 68.4423 188.966 68.4423C188.265 68.4423 187.673 68.3393 187.189 68.1333C186.715 67.9274 186.324 67.6339 186.015 67.2528C185.716 66.8718 185.5 66.4238 185.366 65.9088C185.232 65.3836 185.165 64.8017 185.165 64.1632C185.165 62.8141 185.495 61.7637 186.154 61.0119C186.823 60.2498 187.792 59.8687 189.058 59.8687C189.676 59.8687 190.181 59.9202 190.572 60.0232C190.974 60.1159 191.329 60.2395 191.638 60.394L191.113 62.1241C190.845 62.0108 190.577 61.9285 190.31 61.877C190.052 61.8152 189.748 61.7843 189.398 61.7843C188.749 61.7843 188.25 61.9748 187.9 62.3558C187.56 62.7266 187.39 63.3291 187.39 64.1632C187.39 64.4928 187.431 64.8017 187.513 65.0901C187.596 65.3682 187.725 65.6153 187.9 65.8316C188.075 66.0479 188.296 66.2178 188.564 66.3414C188.832 66.465 189.146 66.5268 189.506 66.5268C189.939 66.5268 190.279 66.4907 190.526 66.4186C190.783 66.3362 191.025 66.2281 191.252 66.0942L191.746 67.7162ZM198.729 64.5494L198.821 63.1746L197.848 64.534L194.65 68.2106H193.353V60.1005H195.515V63.9161L195.438 65.0283H195.624C195.747 64.8532 195.871 64.6679 195.994 64.4722C196.128 64.2765 196.257 64.0911 196.381 63.9161L199.594 60.1005H200.891V68.2106H198.729V64.5494ZM208.489 64.5494L208.582 63.1746L207.609 64.534L204.411 68.2106H203.113V60.1005H205.276V63.9161L205.199 65.0283H205.384C205.508 64.8532 205.631 64.6679 205.755 64.4722C205.889 64.2765 206.017 64.0911 206.141 63.9161L209.354 60.1005H210.652V68.2106H208.489V64.5494Z" fill="black"/>
<g clip-path="url(#clip2_200_299)">
<path d="M84.762 43.8393L74.267 28.1052C73.4826 26.9175 72.1614 26.2085 70.7337 26.2085H60.5933L61.6443 16.7602C61.7771 15.5636 61.3898 14.3606 60.5847 13.46C59.7781 12.5587 58.6228 12.0419 57.4179 12.0419H10.7092C8.53311 12.0419 6.71657 13.6695 6.48282 15.8215L6.12871 18.9669C6.04155 19.7443 6.60052 20.4457 7.37797 20.5329C8.1624 20.6242 8.85684 20.0604 8.94549 19.2836L9.29961 16.1328C9.37713 15.4155 9.98309 14.8753 10.7094 14.8753H57.4179C57.8246 14.8753 58.1995 15.0441 58.4734 15.3497C58.746 15.6549 58.8732 16.045 58.8275 16.4474L53.7848 61.7835C53.7073 62.489 53.0945 63.0417 52.389 63.0417H52.382H26.7887C26.111 59.0281 22.6202 55.9583 18.4167 55.9583C14.2132 55.9583 10.7224 59.0281 10.0447 63.0417H5.66652C5.25978 63.0417 4.88492 62.8737 4.61099 62.5679C4.33707 62.2621 4.21123 61.872 4.25539 61.4694L6.42322 41.9479C6.50905 41.1705 5.94875 40.4697 5.17113 40.3839C4.41294 40.2981 3.69226 40.8577 3.60643 41.6353L1.43877 61.1583C1.30728 62.3557 1.69476 63.5585 2.50127 64.4585C3.30777 65.3591 4.46158 65.8751 5.66669 65.8751H10.0447C10.7224 69.8887 14.2132 72.9585 18.4167 72.9585C22.6202 72.9585 26.111 69.8887 26.7887 65.8751H52.382H52.389H59.6279C60.3056 69.8887 63.7964 72.9585 67.9999 72.9585C72.2034 72.9585 75.6942 69.8887 76.3719 65.8751H80.7499C83.0936 65.8751 84.9999 63.9687 84.9999 61.6251V44.6251C84.9999 44.3457 84.9169 44.0718 84.762 43.8393ZM18.4165 70.1251C15.2913 70.1251 12.7499 67.5831 12.7499 64.4585C12.7499 61.3339 15.2913 58.7919 18.4165 58.7919C21.5418 58.7919 24.0831 61.3341 24.0831 64.4585C24.0831 67.5829 21.5418 70.1251 18.4165 70.1251ZM67.9999 70.1251C64.8747 70.1251 62.3333 67.5831 62.3333 64.4585C62.3333 61.3339 64.8747 58.7919 67.9999 58.7919C71.1252 58.7919 73.6665 61.3341 73.6665 64.4585C73.6665 67.5829 71.1252 70.1251 67.9999 70.1251ZM82.1665 61.6251C82.1665 62.406 81.5315 63.0417 80.7499 63.0417H76.3719C75.6942 59.0281 72.2034 55.9583 67.9999 55.9583C63.7964 55.9583 60.3056 59.0281 59.6279 63.0417H56.3737C56.4803 62.7389 56.5654 62.4254 56.6016 62.0934L60.2782 29.0417H62.3333V46.0417C62.3333 46.7466 62.8521 47.3443 63.5494 47.4439L82.1667 50.1034L82.1665 61.6251ZM82.1665 47.2418L65.1665 44.8132V29.0417H70.7335C71.2067 29.0417 71.6453 29.2755 71.9068 29.6719L82.1665 45.0539V47.2418Z" fill="#62BB46"/>
<path d="M1.41661 24.7917H25.5C26.2831 24.7917 26.9166 24.1574 26.9166 23.3751C26.9166 22.5927 26.2829 21.9585 25.5 21.9585H1.41661C0.633682 21.9585 0 22.5927 0 23.3751C0 24.1575 0.633682 24.7917 1.41661 24.7917Z" fill="#62BB46"/>
<path d="M1.41661 31.8751H12.75C13.5331 31.8751 14.1666 31.2407 14.1666 30.4585C14.1666 29.6762 13.5329 29.0419 12.75 29.0419H1.41661C0.633516 29.0419 0 29.6762 0 30.4585C0 31.2407 0.633682 31.8751 1.41661 31.8751Z" fill="#62BB46"/>
<path d="M21.25 38.9584C22.0331 38.9584 22.6666 38.3241 22.6666 37.5418C22.6666 36.7596 22.0331 36.1251 21.25 36.1251H1.41661C0.633682 36.1251 0 36.7594 0 37.5417C0 38.3239 0.633682 38.9583 1.41661 38.9583H21.25V38.9584Z" fill="#62BB46"/>
</g>
<defs>
<clipPath id="clip0_200_299">
<rect width="61.3622" height="61.3622" fill="white" transform="translate(590.094 10.772)"/>
</clipPath>
<clipPath id="clip1_200_299">
<rect width="54.9256" height="54.9256" fill="white" transform="translate(916.188 18)"/>
</clipPath>
<clipPath id="clip2_200_299">
<rect width="85" height="85" fill="white"/>
</clipPath>
</defs>
</svg>
