<svg width="59" height="59" viewBox="0 0 59 59" fill="none" xmlns="http://www.w3.org/2000/svg">
<path d="M39.9018 17.8141C39.2668 17.8141 38.7513 18.3272 38.7513 18.9619C38.7513 19.5961 39.2668 20.1101 39.9018 20.1101C40.5381 20.1101 41.0522 19.5961 41.0522 18.9619C41.0522 18.3272 40.5381 17.8141 39.9018 17.8141Z" fill="#62BB46"/>
<path d="M18.9988 38.6758C18.3625 38.6758 17.8484 39.1903 17.8484 39.824C17.8484 40.4591 18.3625 40.9722 18.9988 40.9722C19.6338 40.9722 20.1493 40.4591 20.1493 39.824C20.1493 39.1903 19.6338 38.6758 18.9988 38.6758Z" fill="#62BB46"/>
<path d="M57.4713 7.06376C57.083 6.9736 56.675 7.09067 56.3946 7.37323L51.6252 12.171H49.3387L46.8216 9.56826V7.25437L51.5227 2.4925C51.8009 2.21083 51.9142 1.80583 51.822 1.42055C51.7304 1.03573 51.4463 0.725356 51.0706 0.598875C49.8896 0.201492 48.6538 0.000108931 47.3969 0.000108931C43.6498 0.000108931 40.2457 1.74393 38.0572 4.78441C36.0088 7.63068 35.3774 11.1188 36.2821 14.4571L27.8079 22.9147L13.6898 8.79188V6.02006C13.6898 5.61685 13.4777 5.24279 13.1312 5.03558L4.99678 0.163816C4.5438 -0.107534 3.96453 -0.0362207 3.59154 0.336494L0.337942 3.58329C-0.0350526 3.956 -0.106506 4.53414 0.164927 4.98624L5.04532 13.1048C5.25294 13.4506 5.62728 13.6618 6.03128 13.6623L8.80762 13.6632L22.9271 27.786L14.4852 36.2113C11.1404 35.3089 7.6437 35.94 4.79051 37.9857C1.74589 40.1686 0 43.5652 0 47.3049C0 48.5589 0.201777 49.7928 0.599938 50.971C0.727115 51.3482 1.04124 51.633 1.42951 51.7227C1.81824 51.8129 2.22584 51.6958 2.50671 51.4133L7.27565 46.616H9.57473L12.1942 49.2304V51.5249L7.38755 56.2846C7.10443 56.5649 6.98714 56.9717 7.07747 57.3597C7.16734 57.7472 7.45271 58.0607 7.83065 58.1876C9.0112 58.585 10.2475 58.7864 11.504 58.7864C15.251 58.7864 18.6538 57.0435 20.8414 54.0048C22.8911 51.1572 23.5234 47.6677 22.6192 44.3294L29.3992 37.5627L30.9523 39.2464L30.2396 39.9573C29.7902 40.4058 29.7902 41.1329 30.2396 41.5814C30.6889 42.0295 31.417 42.0295 31.8668 41.5814L32.5121 40.9373L47.0841 56.7349C47.0949 56.7465 47.1061 56.7578 47.1173 56.769C49.8137 59.4601 54.1822 59.461 56.8799 56.7685C59.57 54.0824 59.57 49.7116 56.8799 47.0255C56.8682 47.0138 56.8561 47.0026 56.844 46.9914L40.9908 32.4757L41.6289 31.8388C42.0783 31.3907 42.0783 30.6637 41.6289 30.2152C41.1795 29.7666 40.4515 29.7666 40.0017 30.2152L39.2939 30.922L37.6037 29.3737L44.4165 22.5743C45.3849 22.8326 46.3844 22.9636 47.3969 22.9636C53.7405 22.9636 58.9008 17.8128 58.9008 11.4821C58.9008 10.2276 58.6991 8.99416 58.3009 7.81546C58.1737 7.43826 57.8596 7.15346 57.4713 7.06376ZM10.0992 11.7041C9.88347 11.4883 9.59091 11.3785 9.28533 11.3785L6.68335 11.3776L2.60018 4.57361L4.58334 2.59431L11.3889 6.67041V9.2673C11.3889 9.5714 11.5098 9.86293 11.7251 10.0782L26.1811 24.5388L24.5539 26.1624L10.0992 11.7041ZM39.3622 34.1011L55.2693 48.6657C57.0462 50.4579 57.0408 53.3598 55.2527 55.1454C53.4605 56.934 50.5592 56.9394 48.7599 55.161L34.1403 39.3119L39.3622 34.1011ZM37.6653 32.547L32.5804 37.621L31.0273 35.9373L35.9751 30.9987L37.6653 32.547ZM47.3969 20.6672C46.3907 20.6672 45.4011 20.5062 44.4565 20.1886C44.0426 20.05 43.5851 20.1568 43.2759 20.4649C37.5085 26.2211 25.081 38.6239 20.5048 43.1916C20.1957 43.5001 20.0882 43.9567 20.228 44.3703C21.1843 47.2044 20.7268 50.2274 18.9724 52.6651C17.2229 55.0956 14.5005 56.49 11.504 56.49C11.1674 56.49 10.8326 56.4716 10.5009 56.4362L14.1549 52.8176C14.3724 52.6023 14.4951 52.3089 14.4951 52.0026V48.7545C14.4951 48.4499 14.3738 48.158 14.1581 47.9427L10.8645 44.6555C10.6488 44.4402 10.3562 44.3191 10.0511 44.3191H6.7966C6.48966 44.3191 6.19576 44.4416 5.9796 44.6586L2.35436 48.3055C2.31841 47.9745 2.30043 47.6404 2.30043 47.3044C2.30043 44.3133 3.69714 41.5966 6.13285 39.8506C8.57484 38.0996 11.6042 37.6425 14.4443 38.5974C14.8582 38.7369 15.3157 38.6297 15.6249 38.3211C15.6883 38.2584 38.3798 15.6106 38.396 15.5945C38.7052 15.2859 38.8121 14.8298 38.6728 14.4162C37.7161 11.5821 38.1727 8.56 39.9257 6.12412C41.6766 3.69138 44.3994 2.2965 47.3964 2.2965C47.7433 2.2965 48.088 2.31579 48.4296 2.35346L44.8515 5.9779C44.6394 6.19274 44.5208 6.48203 44.5208 6.78343V10.0316C44.5208 10.3294 44.6363 10.6151 44.8434 10.829L48.022 14.1162C48.2386 14.3404 48.5374 14.4669 48.8498 14.4669H52.1042C52.4107 14.4669 52.7046 14.3449 52.9208 14.1274L56.546 10.481C56.582 10.812 56.6 11.1461 56.6 11.4821C56.6 16.5467 52.4714 20.6672 47.3969 20.6672Z" fill="#62BB46"/>
<path d="M35.8349 21.3974L21.4386 35.7655C20.9897 36.2136 20.9897 36.9406 21.4386 37.3891C21.888 37.8376 22.6165 37.8376 23.0659 37.3891L37.4621 23.021C37.9115 22.5729 37.9115 21.8459 37.4621 21.3974C37.0127 20.9488 36.2843 20.9488 35.8349 21.3974Z" fill="#62BB46"/>
<path d="M50.3726 51.8986C50.8219 52.3458 51.5504 52.3458 51.9998 51.8959C52.4483 51.447 52.4469 50.7199 51.9971 50.2723L41.6274 39.956C41.1776 39.5084 40.4486 39.5098 40.0006 39.9587C39.5517 40.4081 39.553 41.1347 40.0028 41.5823L50.3726 51.8986Z" fill="#62BB46"/>
</svg>
