<svg width="55" height="55" viewBox="0 0 55 55" fill="none" xmlns="http://www.w3.org/2000/svg">
<path d="M49.1057 0.429199H10.4861C7.39658 0.429199 4.90776 2.91802 4.90776 6.00758V39.0488C4.90776 39.7783 5.4656 40.3361 6.19508 40.3361C6.92456 40.3361 7.4824 39.7783 7.4824 39.0488V6.00758C7.4824 4.33407 8.81263 3.00384 10.4861 3.00384H44.3856C43.8277 3.86205 43.5273 4.89191 43.5273 6.00758V48.9182C43.5273 50.5917 42.1971 51.922 40.5236 51.922C38.8501 51.922 37.5199 50.5917 37.5199 48.9182V44.6272C37.5199 43.8977 36.962 43.3398 36.2325 43.3398H1.90402C1.17454 43.3398 0.616699 43.8977 0.616699 44.6272V48.9182C0.616699 52.0078 3.10552 54.4966 6.19508 54.4966H40.5236C43.6132 54.4966 46.102 52.0078 46.102 48.9182V6.00758C46.102 4.33407 47.4322 3.00384 49.1057 3.00384C50.7792 3.00384 52.1095 4.33407 52.1095 6.00758V9.01133H49.1057C48.3763 9.01133 47.8184 9.56917 47.8184 10.2986C47.8184 11.0281 48.3763 11.586 49.1057 11.586H53.3968C54.1263 11.586 54.6841 11.0281 54.6841 10.2986V6.00758C54.6841 2.91802 52.1953 0.429199 49.1057 0.429199ZM6.19508 51.922C4.52157 51.922 3.19134 50.5917 3.19134 48.9182V45.9145H34.9452V48.9182C34.9452 50.0339 35.2885 51.0638 35.8034 51.922H6.19508Z" fill="#62BB46"/>
<path d="M24.647 28.9647C24.6899 28.9647 24.6899 28.9647 24.647 28.9647C25.0761 28.9647 25.4194 28.7931 25.6768 28.4927L32.5425 19.9106C32.9716 19.3528 32.8858 18.5375 32.328 18.1084C31.7702 17.6792 30.9548 17.7651 30.5257 18.3229L24.6899 25.6177L21.9865 22.0561C21.5574 21.4983 20.7421 21.3696 20.1843 21.7987C19.6264 22.2278 19.4977 23.0431 19.9268 23.6009L23.6171 28.4498C23.8746 28.7502 24.2608 28.9647 24.647 28.9647Z" fill="#62BB46"/>
</svg>
