<svg width="85" height="61" viewBox="0 0 85 61" fill="none" xmlns="http://www.w3.org/2000/svg">
<path d="M84.762 31.8393L74.267 16.1052C73.4826 14.9175 72.1614 14.2085 70.7337 14.2085H60.5933L61.6443 4.7602C61.7771 3.56356 61.3898 2.36061 60.5847 1.45998C59.7781 0.558677 58.6228 0.0418701 57.4179 0.0418701H10.7092C8.53311 0.0418701 6.71657 1.66949 6.48282 3.82155L6.12871 6.96688C6.04155 7.74433 6.60052 8.44575 7.37797 8.53291C8.1624 8.62421 8.85684 8.06042 8.94549 7.28364L9.29961 4.13283C9.37713 3.41547 9.98309 2.87526 10.7094 2.87526H57.4179C57.8246 2.87526 58.1995 3.0441 58.4734 3.34973C58.746 3.65487 58.8732 4.045 58.8275 4.44743L53.7848 49.7835C53.7073 50.489 53.0945 51.0417 52.389 51.0417H52.382H26.7887C26.111 47.0281 22.6202 43.9583 18.4167 43.9583C14.2132 43.9583 10.7224 47.0281 10.0447 51.0417H5.66652C5.25978 51.0417 4.88492 50.8737 4.61099 50.5679C4.33707 50.2621 4.21123 49.872 4.25539 49.4694L6.42322 29.9479C6.50905 29.1705 5.94875 28.4697 5.17113 28.3839C4.41294 28.2981 3.69226 28.8577 3.60643 29.6353L1.43877 49.1583C1.30728 50.3557 1.69476 51.5585 2.50127 52.4585C3.30777 53.3591 4.46158 53.8751 5.66669 53.8751H10.0447C10.7224 57.8887 14.2132 60.9585 18.4167 60.9585C22.6202 60.9585 26.111 57.8887 26.7887 53.8751H52.382H52.389H59.6279C60.3056 57.8887 63.7964 60.9585 67.9999 60.9585C72.2034 60.9585 75.6942 57.8887 76.3719 53.8751H80.7499C83.0936 53.8751 84.9999 51.9687 84.9999 49.6251V32.6251C84.9999 32.3457 84.9169 32.0718 84.762 31.8393ZM18.4165 58.1251C15.2913 58.1251 12.7499 55.5831 12.7499 52.4585C12.7499 49.3339 15.2913 46.7919 18.4165 46.7919C21.5418 46.7919 24.0831 49.3341 24.0831 52.4585C24.0831 55.5829 21.5418 58.1251 18.4165 58.1251ZM67.9999 58.1251C64.8747 58.1251 62.3333 55.5831 62.3333 52.4585C62.3333 49.3339 64.8747 46.7919 67.9999 46.7919C71.1252 46.7919 73.6665 49.3341 73.6665 52.4585C73.6665 55.5829 71.1252 58.1251 67.9999 58.1251ZM82.1665 49.6251C82.1665 50.406 81.5315 51.0417 80.7499 51.0417H76.3719C75.6942 47.0281 72.2034 43.9583 67.9999 43.9583C63.7964 43.9583 60.3056 47.0281 59.6279 51.0417H56.3737C56.4803 50.7389 56.5654 50.4254 56.6016 50.0934L60.2782 17.0417H62.3333V34.0417C62.3333 34.7466 62.8521 35.3443 63.5494 35.4439L82.1667 38.1034L82.1665 49.6251ZM82.1665 35.2418L65.1665 32.8132V17.0417H70.7335C71.2067 17.0417 71.6453 17.2755 71.9068 17.6719L82.1665 33.0539V35.2418Z" fill="#62BB46"/>
<path d="M1.41661 12.7917H25.5C26.2831 12.7917 26.9166 12.1574 26.9166 11.3751C26.9166 10.5927 26.2829 9.9585 25.5 9.9585H1.41661C0.633682 9.9585 0 10.5927 0 11.3751C0 12.1575 0.633682 12.7917 1.41661 12.7917Z" fill="#62BB46"/>
<path d="M1.41661 19.8751H12.75C13.5331 19.8751 14.1666 19.2407 14.1666 18.4585C14.1666 17.6762 13.5329 17.0419 12.75 17.0419H1.41661C0.633516 17.0419 0 17.6762 0 18.4585C0 19.2407 0.633682 19.8751 1.41661 19.8751Z" fill="#62BB46"/>
<path d="M21.25 26.9584C22.0331 26.9584 22.6666 26.3241 22.6666 25.5418C22.6666 24.7596 22.0331 24.1251 21.25 24.1251H1.41661C0.633682 24.1251 0 24.7594 0 25.5417C0 26.3239 0.633682 26.9583 1.41661 26.9583H21.25V26.9584Z" fill="#62BB46"/>
</svg>
