<svg xmlns="http://www.w3.org/2000/svg" width="50" height="50" viewBox="0 0 68 87.9"><defs><style>.cls-1,.cls-2{fill:#81a90c;}.cls-2{opacity:0.1;isolation:isolate;}</style></defs><path class="cls-1" d="M1,0A1.08,1.08,0,0,0,0,1V86.9a1,1,0,0,0,1,1H67a1,1,0,0,0,1-1V1a1,1,0,0,0-.8-1H1ZM2.1,2H33V61.3H2.1ZM35,2H65.9V61.3H35ZM26.7,24.5a1.09,1.09,0,0,0-.9,1.1V35.8a1,1,0,0,0,2,0h0V25.6c0-.6-.4-1-1.1-1.1Zm14.4,0a1.09,1.09,0,0,0-.9,1.1V35.8a1,1,0,0,0,2,0h0V25.6c0-.6-.4-1-1.1-1.1ZM2.1,63.4H33V73.6H2.1V63.4Zm32.9,0H65.9V73.6H35V63.4ZM17.5,66.5a2.09,2.09,0,0,0-2.1,2,2,2,0,0,0,2.1,2,2.09,2.09,0,0,0,2.1-2A2,2,0,0,0,17.5,66.5Zm33,0a2.09,2.09,0,0,0-2.1,2,2.1,2.1,0,0,0,4.2,0A2.16,2.16,0,0,0,50.5,66.5ZM2.1,75.7H33V85.9H2.1Zm32.9,0H65.9V85.9H35ZM17.5,78.8a2.09,2.09,0,0,0-2.1,2,2,2,0,0,0,2.1,2,2.09,2.09,0,0,0,2.1-2A2,2,0,0,0,17.5,78.8Zm33,0a2.09,2.09,0,0,0-2.1,2,2.1,2.1,0,0,0,4.2,0A2.09,2.09,0,0,0,50.5,78.8Z"/><rect class="cls-2" x="1.1" y="62.4" width="65.5" height="24.2"/></svg>