<svg xmlns="http://www.w3.org/2000/svg" width="50" height="50" viewBox="0 0 107.54 111.27"><defs><style>.cls-1,.cls-2{fill:#81a90c;}.cls-2{opacity:0.1;isolation:isolate;}</style></defs><path class="cls-1" d="M74.92,26.13a3.81,3.81,0,0,0-2-1l-22-3.1-9.8-20.1a3.62,3.62,0,0,0-4.7-1.6,3.54,3.54,0,0,0-1.6,1.6L25,21.73,3,25a3.34,3.34,0,0,0-2.3,1.4A3.57,3.57,0,0,0,0,29a4.21,4.21,0,0,0,1,2l15.9,15.4-3.7,21.9a3.5,3.5,0,0,0,2.9,4.1,3.66,3.66,0,0,0,2.3-.4L38,61.63l19.7,10.5a3.57,3.57,0,0,0,4.8-1.4,4.31,4.31,0,0,0,.4-2.3l-3.8-21.8L75,31.13A3.69,3.69,0,0,0,74.92,26.13Zm-18.1,18a3.58,3.58,0,0,0-1,3.1l3.8,22.2-20-10.5a3.6,3.6,0,0,0-3.2,0l-20.1,10.6,3.8-22.2a3.69,3.69,0,0,0-1-3.2L2.92,28.23,25.32,25a3.3,3.3,0,0,0,2.6-1.9L38,2.83l10,20.3a3.64,3.64,0,0,0,2.6,1.9l22.3,3.2Z"/><path class="cls-1" d="M107.42,87.53a2.49,2.49,0,0,0-2.1-1.7l-10.6-1.5L90,74.73a2.43,2.43,0,0,0-1.5-1.3,2.33,2.33,0,0,0-2,.2c-.5.3-1,.7-1.1,1.1l-4.8,9.6L70,85.83a2.58,2.58,0,0,0-2.2,2.9,3.15,3.15,0,0,0,.8,1.5l7.6,7.4-1.8,10.6a2.56,2.56,0,0,0,.4,1.9,2.83,2.83,0,0,0,1.7,1.1,2.59,2.59,0,0,0,1.7-.3l9.5-5,9.5,5a2.57,2.57,0,0,0,3.5-1.1,3.06,3.06,0,0,0,.3-1.7l-1.8-10.6,7.6-7.4A2.69,2.69,0,0,0,107.42,87.53Zm-10.8,8.1a2.86,2.86,0,0,0-.8,2.3l1.6,9.5-8.6-4.6a2.35,2.35,0,0,0-2.3,0l-8.6,4.6,1.6-9.6a2.79,2.79,0,0,0-.7-2.3l-6.9-6.8,9.6-1.4a2.19,2.19,0,0,0,1.9-1.4l4.3-8.7,4.3,8.7a2.32,2.32,0,0,0,1.9,1.4l9.7,1.4Z"/><path class="cls-1" d="M93.62,51.13a1.58,1.58,0,0,0,1.6-1.6v-6.1h6.1a1.6,1.6,0,1,0,0-3.2h-6.1v-6.1a1.6,1.6,0,1,0-3.2,0v6.1h-6.1a1.6,1.6,0,0,0,0,3.2H92v6.1A1.58,1.58,0,0,0,93.62,51.13Z"/><path class="cls-1" d="M22.82,100.23a1.58,1.58,0,0,0,1.6-1.6v-6.1h6.1a1.6,1.6,0,0,0,0-3.2h-6.1v-6.1a1.6,1.6,0,1,0-3.2,0v6.1h-6.1a1.6,1.6,0,1,0,0,3.2h6.1v6.1A1.58,1.58,0,0,0,22.82,100.23Z"/><path class="cls-2" d="M56.82,44.13a3.58,3.58,0,0,0-1,3.1l3.8,22.2-20-10.5a3.6,3.6,0,0,0-3.2,0l-20.1,10.6,3.8-22.2a3.69,3.69,0,0,0-1-3.2L2.92,28.23,25.32,25a3.3,3.3,0,0,0,2.6-1.9L38,2.83l10,20.3a3.64,3.64,0,0,0,2.6,1.9l22.3,3.2Z"/></svg>