<svg xmlns="http://www.w3.org/2000/svg" width="17" height="17" viewBox="0 0 17 17" fill="none">
    <path d="M13.1332 8.32624C12.0748 5.57554 8.30604 5.42722 9.2162 1.42927C9.28362 1.13263 8.96675 0.903403 8.71055 1.05847C6.26324 2.50123 4.50361 5.39351 5.98008 9.18246C6.10144 9.49259 5.73738 9.78249 5.47444 9.58023C4.25416 8.65659 4.12606 7.32843 4.23393 6.37783C4.27438 6.02725 3.81593 5.8587 3.62042 6.1486C3.16197 6.84976 2.69678 7.9824 2.69678 9.6881C2.95297 13.4636 6.14189 14.6232 7.28801 14.7715C8.9263 14.9805 10.6994 14.6771 11.9736 13.5108C13.3759 12.2096 13.8883 10.1331 13.1332 8.32624Z" fill="#89D166"/>
    </svg>