<svg xmlns="http://www.w3.org/2000/svg" width="50" height="50" viewBox="0 0 88.29 90.38"><defs><style>.cls-1,.cls-2{fill:#81a90c;}.cls-2{opacity:0.1;isolation:isolate;}</style></defs><path class="cls-1" d="M18.48,48l8.3,7a1.14,1.14,0,0,0,.8.3h.3L38.68,53a1.4,1.4,0,0,0,1.2-.9V52h0l2.7-10.9h0v-.7c0-.1-.1-.1-.1-.2l-.1-.1a.1.1,0,0,0-.1-.1l-.1-.1h0l-8.7-7.1a1.69,1.69,0,0,0-1-.3l-11,2.2a1.06,1.06,0,0,0-.9.9h0l-2.7,11h0A1,1,0,0,0,18.48,48Zm19.1,2.7-8.4,1.8,2.1-8.3,5-1,3.4-.7ZM32.28,35l6.3,5.1-8,1.7-6.3-5.2Zm-9.9,3,6.6,5.5-2.1,8.3-6.6-5.5Z"/><path class="cls-1" d="M50.48,34.48h0l3.4,10.8a1.11,1.11,0,0,0,1.3.8l10.9,1.6h.2a1.14,1.14,0,0,0,.8-.3L75,40a1.19,1.19,0,0,0,.7-1.5l-3.4-10.8h0c0-.1-.1-.2-.1-.3a.1.1,0,0,0-.1-.1c0-.1-.1-.1-.1-.2l-.1-.1c-.1,0-.1-.1-.2-.1h-.4l-11.1-1.5a1.21,1.21,0,0,0-1,.3l-8.3,7.6A1,1,0,0,0,50.48,34.48Zm5.5,9.3-2.5-8.1L62,37l2.5,8.1Zm10.8.5-2.5-8.1,2.7-2.5,3.6-3.4,2.5,8.1Zm-6.4-16.5,8,1.1-4.2,3.9-1.7,1.7-8.1-1.2Z"/><path class="cls-1" d="M34.38,20.38a1,1,0,0,0,.8.7l10.3,3.4a1.08,1.08,0,0,0,.7.3,1.22,1.22,0,0,0,.9-.4l7.8-8.2h0l.2-.2v-.1c0-.1.1-.1.1-.2V15l-4-10.5a1.21,1.21,0,0,0-.7-.7L39.78.08a1.31,1.31,0,0,0-1.3.3h0l-7.8,8.2h0a1.23,1.23,0,0,0-.1,1.6ZM46,22.08l-8.2-2.6,5.9-6.2,8.2,2.6Zm3.1-16.3,2.9,7.6-7.7-2.5-2.8-7.6ZM39,3.48l3,8-5.9,6.2-3-8Z"/><path class="cls-1" d="M83.78,65.18c0-.1-.1-.1-.2-.2-12.1-11.4-25-8.5-26.3-8.2l-17.4,2.1c-2,.1-5.7,1.4-6.4,5.2H16.28c-4.1,0-7,1.8-8.3,5a8.07,8.07,0,0,0-5.8,2.8c-2.8,3.3-2.1,8.2-2.1,8.4a1.19,1.19,0,0,0,1.2,1h6.4a17.54,17.54,0,0,0-.1,3.9,1.19,1.19,0,0,0,1.2,1h6.4a14.72,14.72,0,0,0,0,3.2,1.19,1.19,0,0,0,1.2,1h66.5a1.22,1.22,0,0,0,.9-.4C93.88,79.88,83.88,65.38,83.78,65.18ZM82.28,88H17.48a8.75,8.75,0,0,1,1.6-5.4,6.56,6.56,0,0,1,5.2-2h27.1a1.14,1.14,0,0,0,.8-.3c.3-.3,8.4-7.7,24.2.2l1.1-2.2c-15.7-7.9-24.7-1.7-26.6-.1H24.28a9.1,9.1,0,0,0-7.1,2.8,8.05,8.05,0,0,0-1.5,2.7H9.88a8.75,8.75,0,0,1,1.6-5.4,6.56,6.56,0,0,1,5.2-2h32.1v-2.4H16.58a9.1,9.1,0,0,0-7.1,2.8,6.66,6.66,0,0,0-1.3,2.1h-6c.1-1.3.3-3.7,1.7-5.3a6.56,6.56,0,0,1,5.2-2h36.2v-2.4H10.68c1.1-1.6,2.9-2.5,5.6-2.5H54a4,4,0,0,0,.7,2.5,4.6,4.6,0,0,0,4,1.7v-2.4a2.67,2.67,0,0,1-2-.6,2.55,2.55,0,0,1-.1-1.9,1.38,1.38,0,0,0-.1-1.1,1.23,1.23,0,0,0-1-.5H36c.7-2.5,3.7-2.8,4.1-2.8l17.5-2.1h.2c.1,0,12.5-3.2,24.1,7.5C82.68,67.88,90.08,79.68,82.28,88Z"/><polygon class="cls-2" points="31.88 9.68 39.28 1.08 50.08 4.98 53.78 14.98 45.98 24.18 35.58 19.98 31.88 9.68"/></svg>