<svg xmlns="http://www.w3.org/2000/svg" width="50" height="50" viewBox="0 0 57.2 57.2"><defs><style>.cls-1,.cls-2{fill:#81a90c;}.cls-2{opacity:0.1;isolation:isolate;}</style></defs><path class="cls-1" d="M54.6,14.7H46.3a2.34,2.34,0,0,0-1.8.8l-.1.1H40.8V6.8a.53.53,0,0,0-.6-.6h-11V.6a.53.53,0,0,0-.6-.6H9.7a.53.53,0,0,0-.6.6V15.5H.6a.68.68,0,0,0-.5.3c-.1.1-.1.3-.1.6L6.4,37a.66.66,0,0,0,.5.4h3.7v4.2h-8a2.6,2.6,0,1,0,0,5.2H37a2.49,2.49,0,0,0,2.4-1.7l8.7-25.2h6.5a2.6,2.6,0,1,0,0-5.2ZM35.7,7.3h3.9v8.1H35.8V7.3Zm-5.1.1h3.8v8.2H30.6Zm.7,9.3H43.6l-1.8,5.6H30.6Zm10,6.9-2,5.6H29.7l.7-5.6ZM16.6,29.3,16,23.6H29.2l-.7,5.6H16.6Zm11.7,1.2-.7,5.7H17.5l-.7-5.7Zm8.2,6.9-1.4,4.2H15.6V37.5H36.5Zm-7.6-1.2.7-5.7H39l-2,5.7Zm.5-13.8H15.8l-.6-5.6H30.1Zm.1-15v8.2H25.6V7.5h3.9ZM22.3,1.2h5.6v5H24.8a.53.53,0,0,0-.6.6v8.8H22.3Zm-5.1,0h3.9V15.4H17.2Zm-6.9,0h5.6V15.4H10.3ZM1.5,16.7H13.9l.7,5.6H3.2Zm2.1,6.9h11l.7,5.6H5.3Zm4,12.6L5.8,30.5h9.7l.7,5.7Zm47-17.5H47.7c-.2,0-.5.2-.5.4L38.3,44.7a1.41,1.41,0,0,1-1.3,1H2.6a1.4,1.4,0,0,1,0-2.8h8.7a.53.53,0,0,0,.6-.6V37.5h2.3v4.8a.53.53,0,0,0,.6.6H35.6a1,1,0,0,0,.7-.5l8.9-25.6a1.41,1.41,0,0,1,1.4-1h8A1.37,1.37,0,0,1,56,17.2,1.45,1.45,0,0,1,54.6,18.7Z"/><path class="cls-1" d="M8.3,48.6a4.3,4.3,0,1,0,4.3,4.3A4.27,4.27,0,0,0,8.3,48.6ZM8.4,56a3.1,3.1,0,1,1,3-3.1A3.1,3.1,0,0,1,8.4,56Z"/><path class="cls-1" d="M32.4,48.6a4.3,4.3,0,1,0,4.3,4.3A4.27,4.27,0,0,0,32.4,48.6Zm.1,7.4a3.1,3.1,0,1,1,3.1-3.1A3.12,3.12,0,0,1,32.5,56Z"/><path class="cls-1" d="M24,25.9H21.2a.6.6,0,0,0,0,1.2H24a.6.6,0,0,0,0-1.2Z"/><polygon class="cls-2" points="0.8 16.1 7.1 37.1 36.6 36.8 44 16.3 0.8 16.1"/></svg>