<svg width="18" height="21" viewBox="0 0 18 21" fill="none" xmlns="http://www.w3.org/2000/svg">
<path d="M9 0C10.8358 0 12.3507 1.336 12.5722 3.06252L17.325 3.0625C17.6978 3.0625 18 3.35631 18 3.71875C18 4.08119 17.6978 4.375 17.325 4.375H16.101L15.0081 18.8988C14.952 19.6445 14.8569 19.9101 14.6931 20.1763C14.5294 20.4425 14.3015 20.6484 14.0165 20.7878C13.7315 20.9272 13.4521 21 12.683 21H5.31701C4.54794 21 4.26855 20.9272 3.98352 20.7878C3.6985 20.6484 3.47063 20.4425 3.30685 20.1763C3.14308 19.9101 3.04798 19.6445 2.99186 18.8988L1.89855 4.375H0.675C0.302208 4.375 0 4.08119 0 3.71875C0 3.35631 0.302208 3.0625 0.675 3.0625L5.42785 3.06252C5.64928 1.336 7.16416 0 9 0ZM14.7474 4.375H3.25215L4.33826 18.803C4.37545 19.2971 4.40316 19.4014 4.46541 19.5026C4.49763 19.5549 4.53405 19.5878 4.59012 19.6153C4.6917 19.6649 4.79383 19.685 5.22607 19.6873L12.683 19.6875C13.1925 19.6875 13.3015 19.6682 13.4099 19.6153C13.4659 19.5878 13.5024 19.5549 13.5346 19.5026C13.5968 19.4014 13.6246 19.2971 13.6617 18.803L14.7474 4.375ZM9 7C9.37279 7 9.675 7.29381 9.675 7.65625V15.5312C9.675 15.8937 9.37279 16.1875 9 16.1875C8.62721 16.1875 8.325 15.8937 8.325 15.5312V7.65625C8.325 7.29381 8.62721 7 9 7ZM12.1874 7.00101C12.5597 7.02111 12.8446 7.33077 12.824 7.69265L12.374 15.5677C12.3533 15.9295 12.0348 16.2066 11.6626 16.1865C11.2903 16.1664 11.0054 15.8567 11.026 15.4948L11.476 7.61985C11.4967 7.25797 11.8152 6.98091 12.1874 7.00101ZM5.81256 7.00101C6.18478 6.98091 6.50328 7.25797 6.52396 7.61985L6.97396 15.4948C6.99464 15.8567 6.70966 16.1664 6.33744 16.1865C5.96522 16.2066 5.64672 15.9295 5.62604 15.5677L5.17604 7.69265C5.15536 7.33077 5.44034 7.02111 5.81256 7.00101ZM9 1.3125C7.91147 1.3125 7.00348 2.06402 6.79501 3.0625H11.205C10.9965 2.06402 10.0885 1.3125 9 1.3125Z" fill="#60C339"/>
</svg>