<svg width="235" height="56" viewBox="0 0 235 56" fill="none" xmlns="http://www.w3.org/2000/svg">
<path d="M76.82 9.79001V51.74H65.78V15.47H69.73L58.69 9.94001V4.26001H65.78L76.82 9.79001Z" fill="#62BB46"/>
<path d="M47.48 15.47H11.05L0 10.03V4.26001H36.43L47.48 9.79001V15.47Z" fill="#62BB46"/>
<path d="M11.06 15.47V22.4H36.43L47.48 27.92V33.6H11.22L0 28.08V15.47H11.06Z" fill="#62BB46"/>
<path d="M47.48 46.06V51.74H11.05L0 46.22V33.6H11.22V40.53H36.43L47.48 46.06Z" fill="#62BB46"/>
<path d="M90.22 4.96002H94.47V18.13H97.72V4.96002H101.95V18.13H105.22V4.96002H109.45V22.16H90.22V4.96002Z" fill="black"/>
<path d="M111.86 4.96002H116.11V11.69H117.17L120 4.96002H124.91L120.86 13.56L125.06 22.16H120.15L117.2 15.45H116.12V22.16H111.87V4.96002H111.86Z" fill="black"/>
<path d="M130.3 4.96002H134.58L140.04 22.16H135.62L134.91 19.58H130L129.29 22.16H124.84L130.3 4.96002ZM134.01 16.09L133.2 13.14C132.9 12.01 132.63 10.81 132.44 9.43002C132.24 10.81 132 12.01 131.7 13.14L130.87 16.09H134.01Z" fill="black"/>
<path d="M146.57 21C142.51 20.68 139.59 17.88 139.59 13.55C139.59 9.4 142.51 6.42 146.57 6.11V4H150.62V6.11C154.65 6.48 157.52 9.43 157.52 13.55C157.52 17.68 154.64 20.63 150.62 21V23.11H146.57V21ZM146.67 9.8C144.7 10.02 143.92 11.47 143.92 13.56C143.92 15.65 144.78 17.1 146.67 17.32V9.8ZM153.2 13.56C153.2 11.47 152.41 10.05 150.55 9.8V17.32C152.42 17.07 153.2 15.64 153.2 13.56Z" fill="black"/>
<path d="M159.06 4.96002H163.31V10.71H165.23C168.52 10.71 171.15 12.55 171.15 16.44C171.15 20.33 168.52 22.17 165.23 22.17H159.06V4.96002ZM164.89 18.3C166.12 18.3 166.91 17.66 166.91 16.43C166.91 15.23 166.1 14.56 164.89 14.56H163.32V18.3H164.89V18.3ZM177 22.16H172.75V4.96002H177V22.16Z" fill="black"/>
<g transform="translate(90, 25) scale(1.55)">
    <path d="M 6.862793,6.3359375 V 8.1303711 H 3.0395508 V 17 H 0.87890625 V 6.3359375 Z" fill="black"/>
    <path d="M 5.9985352,17 9.3310547,6.3359375 H 11.30127 L 14.655762,17 H 12.363281 L 11.791992,14.817383 H 8.8549805 L 8.2836914,17 Z M 9.3237305,13.022949 H 11.323242 L 10.319824,9.2143555 Z" fill="black"/>
    <path d="M 17.819824,13.25 V 17 H 15.65918 V 6.3359375 h 3.640136 q 1.611329,0 2.53418,1.003418 0.930176,0.9960937 0.930176,2.5268554 0,1.5454101 -0.922852,2.4609371 -0.915527,0.915528 -2.519531,0.922852 z m 0,-5.1196289 v 3.3251949 h 1.479492 q 0.673829,0 0.974121,-0.439453 0.307618,-0.446777 0.307618,-1.1352536 0,-0.6884766 -0.307618,-1.2158203 -0.300292,-0.534668 -0.974121,-0.534668 z" fill="black"/>
    <path d="m 23.942871,6.3359375 h 6.130371 v 8.8769535 h 1.105957 L 30.98877,19.62207 H 29.01123 V 17 h -5.046386 v 2.62207 h -2.028809 l -0.124512,-4.409179 h 0.717774 q 0.358887,-0.32959 0.681152,-1.215821 0.322266,-0.893554 0.446778,-2.90039 z m 0.893555,8.8769535 h 3.09082 V 8.1303711 h -1.933594 l -0.175781,2.9443359 q -0.19043,2.680664 -0.981445,4.138184 z" fill="black"/>
    <path d="M 32.285156,17 V 6.3359375 h 6.108399 v 1.7944336 h -3.947754 v 2.5195309 h 3.347168 v 1.73584 h -3.347168 v 2.827149 h 3.962402 V 17 Z" fill="black"/>
    <path d="M 41.806641,13.25 V 17 H 39.645996 V 6.3359375 h 3.640137 q 1.611328,0 2.534179,1.003418 0.930176,0.9960937 0.930176,2.5268554 0,1.5454101 -0.922851,2.4609371 -0.915528,0.915528 -2.519532,0.922852 z m 0,-5.1196289 v 3.3251949 h 1.479492 q 0.673828,0 0.974121,-0.439453 0.307617,-0.446777 0.307617,-1.1352536 0,-0.6884766 -0.307617,-1.2158203 -0.300293,-0.534668 -0.974121,-0.534668 z" fill="black"/>
    <path d="m 55.686035,12.620117 q 0,2.25586 -1.054687,3.391113 -1.054688,1.135254 -2.775879,1.135254 -1.713867,0 -2.783203,-1.135254 -1.069336,-1.135253 -1.069336,-3.391113 v -1.772461 q 0,-2.3071287 1.062011,-3.4790037 1.062012,-1.1791992 2.775879,-1.1791992 1.721192,0 2.783203,1.1791992 1.062012,1.171875 1.062012,3.4790037 z m -2.15332,-1.787109 q 0,-1.5234377 -0.432129,-2.1826174 -0.432129,-0.6591797 -1.259766,-0.6591797 -0.820312,0 -1.252441,0.6518555 -0.424805,0.6445313 -0.432129,2.1313476 v 1.845703 q 0,1.450196 0.432129,2.094727 0.439453,0.637207 1.26709,0.637207 0.820312,0 1.245117,-0.629883 0.424805,-0.629883 0.432129,-2.050781 z" fill="black"/>
    <path d="M 57.224121,17 V 6.3359375 h 5.983887 V 8.1303711 H 59.39209 V 10.15918 h 1.325683 q 1.59668,0.0073 2.53418,0.9375 0.944824,0.930175 0.944824,2.446289 0,1.530761 -0.952148,2.497558 Q 62.299805,17 60.695801,17 Z m 2.167969,-1.787109 h 1.303711 q 0.666504,0 1.003418,-0.498047 0.344238,-0.498047 0.344238,-1.186524 0,-0.673828 -0.344238,-1.120605 -0.336914,-0.454102 -1.003418,-0.454102 H 59.39209 Z" fill="black"/>
    <path d="M 70.751953,17 V 12.437012 H 67.580566 V 17 H 65.419922 V 6.3359375 h 2.160644 v 4.3139645 h 3.171387 V 6.3359375 h 2.145996 V 17 Z" fill="black"/>
    <path d="m 81.621094,13.542969 q 0,1.530761 -0.952149,2.497558 Q 79.724121,17 78.120117,17 H 74.655762 V 6.3359375 h 2.160644 V 10.15918 h 1.325684 q 1.59668,0.0073 2.53418,0.9375 0.944824,0.930175 0.944824,2.446289 z M 84.331055,6.3359375 V 17 H 82.177734 V 6.3359375 Z m -7.514649,8.8769535 h 1.303711 q 0.666504,0 1.003418,-0.498047 0.344238,-0.498047 0.344238,-1.186524 0,-0.673828 -0.344238,-1.120605 -0.336914,-0.454102 -1.003418,-0.454102 h -1.303711 z" fill="black"/>
    <path d="M 86.05957,17 V 6.3359375 h 6.108399 v 1.7944336 h -3.947754 v 2.5195309 h 3.347168 v 1.73584 h -3.347168 v 2.827149 h 3.962402 V 17 Z" fill="black"/>
</g>
</svg>
